<svg xmlns="http://www.w3.org/2000/svg" viewBox="0 0 500 500"><g id="background-complete"><g><g><path d="M253.16,381.72s-3.51-24.1-3.21-38.12c.29-14.02-.02-29.8-.02-29.8h1.62s-1.09,27.83,.1,44.62c1.19,16.77,4.32,23.3,4.32,23.3h-2.81" style="fill:#e0e0e0;"></path><path d="M263.6,286.68c-.32-.82-.72-1.68-1.47-2.15-1.02-.65-2.37-.38-3.51,.02-4.88,1.73-9.21,10.83-11.18,15.61l6.48,21.83c11.7-10.85,13.72-25.09,9.68-35.32Z" style="fill:#ebebeb;"></path><path d="M261.75,285.41s-.02,.1-.09,.28c-.08,.21-.19,.47-.32,.8-.28,.69-.68,1.69-1.16,2.93-.95,2.48-2.17,5.95-3.26,9.85-1.08,3.91-1.83,7.51-2.29,10.12-.23,1.31-.4,2.37-.52,3.11-.06,.34-.1,.62-.14,.85-.03,.19-.06,.29-.07,.29,0,0,0-.1,.01-.3,.02-.22,.05-.51,.09-.85,.08-.74,.22-1.81,.43-3.12,.41-2.63,1.13-6.24,2.22-10.16,1.09-3.92,2.34-7.38,3.34-9.85,.5-1.23,.93-2.22,1.24-2.9,.15-.32,.27-.57,.36-.78,.09-.18,.13-.27,.14-.26Z" style="fill:#e0e0e0;"></path><path d="M251.03,327.24c-6.07-3.36-9.65-9.67-9.99-16.6-.23-4.85,1.26-9.6,2.94-14.15,.15-.39,.32-.82,.69-1.03,.51-.29,1.15-.03,1.66,.26,4.41,2.51,7.09,7.3,8.51,12.18,.95,3.24,1.44,6.67,1,10.02-.44,3.35-2.35,7-4.81,9.32" style="fill:#e0e0e0;"></path><path d="M251.03,327.24s-.02-.1-.02-.29c0-.22,0-.5-.02-.84,0-.73-.03-1.78-.09-3.08-.12-2.6-.46-6.18-1.13-10.09-.67-3.91-1.49-7.41-2.09-9.94-.3-1.24-.54-2.25-.72-3-.08-.33-.14-.6-.19-.82-.04-.19-.06-.29-.05-.29s.04,.09,.1,.28c.06,.21,.14,.48,.24,.8,.2,.7,.48,1.72,.8,2.98,.65,2.52,1.5,6.02,2.17,9.94,.67,3.92,.98,7.52,1.05,10.12,.04,1.3,.04,2.36,0,3.09-.01,.34-.03,.62-.03,.84-.01,.19-.02,.29-.03,.29Z" style="fill:#ebebeb;"></path><path d="M257.89,364.11c5.98,1.31,10.9,5.53,16.67,7.58,3.82,1.36,8.13,1.84,11.18,4.5-.73-1.85-2.46-3.08-4.15-4.13-4.74-2.96-9.82-5.39-15.11-7.21-2.71-.94-5.66-1.72-8.42-.95" style="fill:#ebebeb;"></path><path d="M249.24,369.44c-7.49-.12-15.37-6.49-22.82-6.87,7.8-2.52,18.96-.46,22.82,6.87" style="fill:#ebebeb;"></path><path d="M252.17,351.48c3.8-1.37,7.98-1.44,11.97-.81,3.99,.62,7.85,1.9,11.68,3.18-.38-2.6-2.49-4.55-4.46-6.28-1.49-1.3-2.99-2.61-4.69-3.61-1.71-1-3.65-1.67-5.63-1.59-2.38,.1-4.65,1.33-6.21,3.13-1.56,1.8-2.4,3.61-2.66,5.98" style="fill:#ebebeb;"></path><path d="M236.8,343.21c-4.71-4.02-11.85-3.63-18.05-3.49,9.52,4.55,19.79,10.8,27.99,17.44,.25-4.38-3.99-8.87-9.94-13.95Z" style="fill:#ebebeb;"></path><path d="M254.29,337.66c2.37-1.58,4.77-3.09,7.25-4.21,2.48-1.13,4.79-2.92,7.19-4.22,3.11-1.68,5.8-4.02,8.65-6.11,2.85-2.09,5.98-3.97,9.47-4.52-2.85-.59-5.82-.27-8.62,.5-2.8,.77-5.46,1.96-8.11,3.16-3.68,1.66-7.42,3.35-10.42,6.04-3.01,2.69-5.72,5.34-5.4,9.36" style="fill:#ebebeb;"></path><path d="M274.42,369.44s-.09-.03-.24-.1c-.18-.09-.39-.2-.65-.34-.56-.3-1.37-.74-2.39-1.26-.5-.27-1.06-.54-1.67-.83-.6-.3-1.25-.59-1.94-.89-1.38-.59-2.93-1.21-4.61-1.61-1.68-.41-3.35-.5-4.8-.12-.73,.18-1.42,.35-2.03,.61-.62,.25-1.16,.54-1.64,.84-.96,.6-1.63,1.24-2.06,1.71-.43,.46-.64,.75-.66,.73,0,0,.04-.08,.13-.22,.09-.14,.25-.34,.45-.58,.42-.49,1.08-1.16,2.04-1.79,.48-.32,1.04-.63,1.66-.89,.62-.27,1.33-.46,2.06-.64,1.48-.41,3.22-.32,4.92,.1,1.71,.41,3.26,1.03,4.65,1.64,.69,.31,1.34,.61,1.94,.92,.61,.29,1.16,.58,1.66,.86,1.01,.54,1.81,1.01,2.36,1.33,.25,.15,.46,.28,.63,.38,.14,.09,.21,.14,.21,.15Z" style="fill:#e0e0e0;"></path><path d="M243.66,365.73s.17,.03,.47,.14c.3,.1,.72,.28,1.22,.53,1.01,.5,2.33,1.34,3.58,2.54,1.24,1.2,2.14,2.49,2.68,3.47,.27,.49,.47,.9,.58,1.2,.12,.29,.17,.46,.16,.46-.04,.02-.32-.61-.9-1.57-.57-.95-1.48-2.2-2.7-3.38-1.22-1.17-2.51-2.03-3.48-2.56-.97-.54-1.62-.79-1.6-.83Z" style="fill:#e0e0e0;"></path><path d="M227.09,342.84s.11,.02,.32,.09c.23,.08,.53,.19,.9,.32,.4,.15,.87,.32,1.42,.52,.55,.21,1.15,.51,1.83,.81,2.7,1.22,6.28,3.28,9.75,6.21,1.71,1.49,3.25,3,4.55,4.48,1.29,1.48,2.38,2.87,3.23,4.09,.85,1.21,1.5,2.22,1.95,2.92,.21,.33,.38,.6,.51,.8,.12,.18,.17,.28,.17,.29,0,0-.08-.08-.21-.26-.13-.17-.32-.43-.55-.78-.47-.68-1.14-1.67-2.01-2.86-.87-1.2-1.97-2.57-3.26-4.03-1.3-1.46-2.84-2.96-4.53-4.44-3.44-2.91-6.99-4.98-9.65-6.24-.67-.31-1.26-.62-1.81-.84-.54-.22-1-.4-1.4-.56-.36-.15-.65-.27-.88-.37-.2-.09-.3-.14-.3-.15Z" style="fill:#e0e0e0;"></path><path d="M263.4,347.27s-.22-.01-.6-.08c-.21-.04-.43-.08-.69-.13-.27-.05-.58-.05-.92-.09-1.35-.1-3.31,.01-5.15,1.02-.93,.47-1.7,1.1-2.34,1.74-.65,.63-1.14,1.29-1.51,1.86-.75,1.15-.98,1.98-1.03,1.96-.01,0,.03-.21,.15-.58,.14-.36,.35-.89,.72-1.48,.36-.6,.84-1.28,1.49-1.93,.64-.66,1.44-1.32,2.39-1.8,1.9-1.03,3.92-1.12,5.29-.97,.34,.05,.66,.06,.93,.13l.69,.17c.37,.1,.58,.16,.57,.18Z" style="fill:#e0e0e0;"></path><path d="M270.93,323.93s-.09,.07-.28,.17c-.22,.12-.49,.27-.84,.45-.73,.39-1.77,.97-3.04,1.72-1.26,.76-2.75,1.69-4.34,2.82-1.58,1.13-3.28,2.45-4.84,4.06-.77,.81-1.48,1.65-1.98,2.56-.49,.94-.96,1.85-1.39,2.73-.87,1.75-1.57,3.35-2.08,4.74-.51,1.38-.82,2.53-1.01,3.33-.19,.8-.26,1.25-.29,1.25,0,0,0-.12,.03-.33,.03-.22,.07-.53,.16-.94,.16-.81,.45-1.98,.94-3.38,.49-1.4,1.18-3.02,2.04-4.78,.43-.88,.89-1.79,1.38-2.74,.52-.96,1.24-1.81,2.02-2.63,1.59-1.62,3.3-2.94,4.89-4.07,1.6-1.13,3.1-2.04,4.38-2.78,1.29-.73,2.35-1.28,3.09-1.65,.35-.17,.64-.3,.86-.41,.2-.09,.3-.13,.31-.13Z" style="fill:#e0e0e0;"></path><path d="M249.93,346.6s-.07-.22-.15-.63c-.09-.46-.2-1.04-.33-1.73-.29-1.46-.72-3.46-1.42-5.62-.69-2.16-1.53-4.03-2.14-5.39-.29-.64-.53-1.17-.73-1.6-.17-.38-.26-.59-.24-.6,.02,0,.13,.19,.33,.56,.2,.37,.48,.9,.81,1.57,.66,1.33,1.53,3.21,2.22,5.38,.7,2.17,1.11,4.2,1.35,5.67,.12,.74,.2,1.33,.24,1.75,.05,.41,.06,.64,.05,.65Z" style="fill:#e0e0e0;"></path><path d="M249.39,329.56c-.19-2.83-1.11-5.58-2.43-8.08-3.63-6.87-10.46-11.96-18.08-13.49,5.58,8.32,11.16,16.64,16.74,24.95l2.16,4.45c1.47-2.42,1.8-5.01,1.61-7.84Z" style="fill:#ebebeb;"></path></g><g><rect x="234.48" y="378.74" width="38.93" height="6.9" style="fill:#ebebeb;"></rect><polygon points="237.38 384.27 240.7 405.68 266.54 405.68 270.5 384.27 237.38 384.27" style="fill:#ebebeb;"></polygon><path d="M273.39,385.65c0,.08-8.78,.14-19.61,.14s-19.61-.06-19.61-.14,8.78-.14,19.61-.14,19.61,.06,19.61,.14Z" style="fill:#e0e0e0;"></path></g></g><g><g><rect x="63.3" y="30.34" width="85.52" height="121.13" style="fill:#ebebeb;"></rect><rect x="66.93" y="33.51" width="78.27" height="114.78" style="fill:#fff;"></rect><rect x="88.75" y="58" width="34.64" height="43.23" style="fill:#ebebeb;"></rect><g><path d="M115.06,97.24c-.29,.13-.96-.54-1.74-2-.76-1.46-1.63-3.74-2.03-6.72-.09-.74-.17-1.53-.2-2.35-.02-.41-.02-.83-.01-1.26l.02-.65c0-.21,0-.33,0-.48,0-.28-.07-.54-.11-.58-.01-.01-.01,.05,.09,.18,.1,.13,.31,.28,.47,.31,.2,.06,.35,.04,.37,.04,.01,0-.07,.04-.22,.12-.2,.11-.4,.21-.6,.32l-.65,.34c-1.76,.88-3.69,1.66-5.75,2.28-1.04,.31-2.07,.58-3.2,.81-1.19,.23-2.47,.38-3.97,.17-.74-.12-1.55-.35-2.32-.79-.78-.44-1.48-1.12-1.96-1.9-.49-.79-.73-1.68-.79-2.48-.07-.81,.01-1.54,.15-2.2,.28-1.31,.83-2.45,1.36-3.37,.25-.49,.55-.94,.84-1.38,.28-.45,.61-.86,.92-1.27,1.27-1.62,2.69-2.94,4.07-4.04,1.39-1.09,2.75-1.97,4.03-2.69,2.55-1.44,4.7-2.3,6.23-2.82,1.53-.5,2.45-.62,2.6-.34,.15,.29-.48,.97-1.72,1.96-1.23,1-3.11,2.29-5.24,3.98-2.13,1.68-4.56,3.79-6.45,6.53-.23,.35-.48,.69-.67,1.06-.21,.37-.43,.73-.61,1.12-.41,.79-.68,1.49-.81,2.17-.12,.68-.02,1.14,.11,1.31,.08,.1,.15,.19,.3,.27,.14,.08,.38,.17,.7,.21,.64,.1,1.5,.04,2.36-.11,.93-.17,1.9-.4,2.81-.64,1.84-.49,3.58-1.1,5.19-1.78,.2-.09,.4-.17,.6-.26,.21-.09,.42-.19,.63-.28,.26-.12,.59-.26,1.04-.36,.44-.1,1.06-.16,1.68,.01,.59,.15,1.19,.53,1.57,.99,.39,.46,.58,.92,.7,1.31,.22,.78,.21,1.38,.18,1.92-.01,.26-.05,.55-.08,.74-.03,.19-.05,.37-.08,.56-.04,.37-.09,.73-.12,1.09-.07,.71-.09,1.4-.12,2.06-.05,2.65,.25,4.82,.44,6.35,.21,1.53,.29,2.44-.01,2.57Z" style="fill:#e0e0e0;"></path><path d="M106.31,92.66c.4,1.24-.79,2.75-2.66,3.36-1.88,.61-3.72,.1-4.13-1.15-.4-1.24,.79-2.74,2.66-3.36,1.87-.61,3.72-.1,4.13,1.14Z" style="fill:#e0e0e0;"></path><path d="M114.88,69.69c-.07-.3,.02-.69,.48-.95,.45-.26,1.24-.33,2.07,.07,.4,.2,.81,.51,1.16,.97,.34,.46,.64,1.1,.67,1.9,.04,.79-.24,1.69-.77,2.33-.52,.66-1.2,1.11-1.94,1.35-.75,.24-1.56,.28-2.37,.05-.8-.21-1.56-.78-1.99-1.44-.44-.66-.58-1.35-.58-1.93,0-.58,.16-1.07,.37-1.47,.43-.8,1.11-1.22,1.63-1.27,.53-.06,.83,.2,.95,.49,.13,.31,.13,.64,.22,.93,.09,.29,.26,.53,.44,.68,.09,.08,.19,.13,.28,.12-.11,0-.34,.09-.4,.16-.07,.05,0,.04,.05-.17,.06-.19,.01-.43,0-.42,0,0,.1,.22,.25,.34,.17,.14,.22,.11,.14,.11-.09-.01-.32,.05-.42,.11,.07-.04,.13-.14,.16-.26,.06-.22,.05-.52-.04-.8-.09-.29-.29-.56-.37-.89Z" style="fill:#e0e0e0;"></path></g></g><polygon points="63.3 30.34 66.93 33.51 145.2 33.51 148.83 30.34 63.3 30.34" style="fill:#e0e0e0;"></polygon><polygon points="63.3 151.47 66.93 148.29 145.2 148.29 148.6 151.69 63.3 151.47" style="fill:#e0e0e0;"></polygon></g><g><g><rect x="353.64" y="35.65" width="91.54" height="82.96" style="fill:#fafafa;"></rect><path d="M445.18,118.61s-.02-.53-.02-1.54c0-1.02-.01-2.51-.02-4.45-.01-3.89-.03-9.59-.05-16.84-.03-14.5-.06-35.21-.11-60.14l.21,.21c-26.36,.01-57.83,.02-91.54,.04h0l.24-.25c-.01,30.18-.02,58.58-.03,82.96l-.22-.22c27.31,.05,50.17,.08,66.21,.11,8.03,.02,14.35,.04,18.67,.06,2.16,.01,3.81,.02,4.94,.03,.55,0,.98,0,1.27,.01,.29,0,.44,.01,.44,.01,0,0-.14,0-.42,.01-.29,0-.71,0-1.25,.01-1.12,0-2.76,.01-4.9,.03-4.32,.01-10.62,.03-18.63,.06-16.08,.03-38.98,.06-66.35,.11h-.22v-.22c0-24.38-.02-52.78-.03-82.96v-.25h.25c33.71,.01,65.17,.03,91.54,.04h.21v.21c-.04,24.98-.08,45.74-.11,60.27-.02,7.23-.04,12.91-.05,16.79-.01,1.92-.02,3.4-.02,4.4,0,.99-.02,1.49-.02,1.49Z" style="fill:#e0e0e0;"></path></g><rect x="364.36" y="65.12" width="4.26" height="4.26" style="fill:#e0e0e0;"></rect><rect x="374.84" y="65.12" width="4.26" height="4.26" style="fill:#e0e0e0;"></rect><rect x="385.52" y="64.92" width="4.26" height="4.26" style="fill:#e0e0e0;"></rect><rect x="395.81" y="65.12" width="4.26" height="4.26" style="fill:#e0e0e0;"></rect><rect x="406.29" y="65.12" width="4.26" height="4.26" style="fill:#e0e0e0;"></rect><rect x="416.78" y="65.12" width="4.26" height="4.26" style="fill:#e0e0e0;"></rect><rect x="427.26" y="65.12" width="4.26" height="4.26" style="fill:#ebebeb;"></rect><rect x="364.36" y="74.17" width="4.26" height="4.26" style="fill:#ebebeb;"></rect><rect x="374.84" y="74.17" width="4.26" height="4.26" style="fill:#e0e0e0;"></rect><rect x="385.33" y="74.17" width="4.26" height="4.26" style="fill:#ebebeb;"></rect><rect x="395.81" y="74.17" width="4.26" height="4.26" style="fill:#e0e0e0;"></rect><rect x="406.29" y="74.17" width="4.26" height="4.26" style="fill:#e0e0e0;"></rect><rect x="416.97" y="73.98" width="4.26" height="4.26" style="fill:#e0e0e0;"></rect><rect x="427.26" y="74.17" width="4.26" height="4.26" style="fill:#e0e0e0;"></rect><rect x="364.36" y="83.23" width="4.26" height="4.26" style="fill:#e0e0e0;"></rect><rect x="375.04" y="83.03" width="4.26" height="4.26" style="fill:#e0e0e0;"></rect><rect x="385.33" y="83.23" width="4.26" height="4.26" style="fill:#e0e0e0;"></rect><rect x="395.81" y="83.23" width="4.26" height="4.26" style="fill:#ebebeb;"></rect><rect x="406.29" y="83.23" width="4.26" height="4.26" style="fill:#e0e0e0;"></rect><rect x="416.78" y="83.23" width="4.26" height="4.26" style="fill:#e0e0e0;"></rect><rect x="427.26" y="83.23" width="4.26" height="4.26" style="fill:#e0e0e0;"></rect><rect x="364.36" y="92.28" width="4.26" height="4.26" style="fill:#e0e0e0;"></rect><rect x="374.84" y="92.28" width="4.26" height="4.26" style="fill:#e0e0e0;"></rect><rect x="385.33" y="92.28" width="4.26" height="4.26" style="fill:#e0e0e0;"></rect><rect x="396" y="92.09" width="4.26" height="4.26" style="fill:#e0e0e0;"></rect><rect x="406.29" y="92.28" width="4.26" height="4.26" style="fill:#e0e0e0;"></rect><rect x="416.78" y="92.28" width="4.26" height="4.26" style="fill:#ebebeb;"></rect><rect x="427.26" y="92.28" width="4.26" height="4.26" style="fill:#e0e0e0;"></rect><rect x="364.36" y="101.33" width="4.26" height="4.26" style="fill:#e0e0e0;"></rect><rect x="374.84" y="101.33" width="4.26" height="4.26" style="fill:#ebebeb;"></rect><rect x="385.33" y="101.33" width="4.26" height="4.26" style="fill:#e0e0e0;"></rect><rect x="395.81" y="101.33" width="4.26" height="4.26" style="fill:#e0e0e0;"></rect><rect x="406.29" y="101.33" width="4.26" height="4.26" style="fill:#e0e0e0;"></rect><rect x="416.97" y="101.14" width="4.26" height="4.26" style="fill:#e0e0e0;"></rect><rect x="427.26" y="101.33" width="4.26" height="4.26" style="fill:#e0e0e0;"></rect><path d="M430.55,58.48h-66.49c-.68,0-1.23-.55-1.23-1.23h0c0-.68,.55-1.23,1.23-1.23h66.49c.68,0,1.23,.55,1.23,1.23h0c0,.68-.55,1.23-1.23,1.23Z" style="fill:#e0e0e0;"></path><path d="M368.04,49.9h-3.98c-.68,0-1.23-.55-1.23-1.23h0c0-.68,.55-1.23,1.23-1.23h3.98c.68,0,1.23,.55,1.23,1.23h0c0,.68-.55,1.23-1.23,1.23Z" style="fill:#e0e0e0;"></path><path d="M386.23,49.9h-12.94c-.68,0-1.23-.55-1.23-1.23h0c0-.68,.55-1.23,1.23-1.23h12.94c.68,0,1.23,.55,1.23,1.23h0c0,.68-.55,1.23-1.23,1.23Z" style="fill:#e0e0e0;"></path></g><g><path d="M92.89,204.92s-.01-.1-.02-.27c0-.2-.01-.45-.02-.77-.01-.71-.02-1.69-.04-2.95-.02-2.59-.06-6.31-.1-11l.18,.18c-12.94,.03-33.51,.07-56.66,.11,.13-.13-.29,.29,.29-.29h0v1.92c0,.64,0,1.28,0,1.91,0,1.27,0,2.53,0,3.78,0,2.5,0,4.96,0,7.37l-.28-.28c16.13,.05,30.25,.1,40.38,.13,5.04,.03,9.09,.06,11.92,.08,1.38,.02,2.45,.03,3.22,.04,.35,0,.62,.01,.84,.02,.19,0,.29,.01,.3,.02,0,0-.08,.01-.26,.02-.21,0-.48,.01-.81,.02-.76,0-1.81,.02-3.16,.04-2.81,.02-6.84,.05-11.85,.08-10.18,.03-24.36,.08-40.58,.13h-.28v-.28c0-2.41,0-4.87,0-7.37,0-1.25,0-2.51,0-3.78,0-.64,0-1.27,0-1.91v-1.91h0c.58-.59,.16-.17,.29-.3,23.15,.05,43.72,.09,56.66,.11h.18v.18c-.04,4.74-.08,8.49-.1,11.1-.02,1.24-.03,2.21-.04,2.91,0,.3-.01,.55-.02,.74,0,.16-.01,.24-.02,.24Z" style="fill:#e0e0e0;"></path><path d="M100.57,189.93s-.01-.1-.02-.29c0-.22-.01-.48-.02-.79-.01-.74-.03-1.74-.05-3.01-.03-2.63-.06-6.34-.11-10.9l.21,.21c-8.82,.02-20.82,.05-34.04,.08-.26,.26,.35-.35,.29-.29h0v1.96c0,.65,0,1.3,0,1.94,0,1.29,0,2.56,0,3.82,0,2.51,0,4.94-.01,7.27l-.27-.27c9.83,.05,18.29,.1,24.35,.13,2.99,.03,5.39,.06,7.09,.08,.8,.01,1.43,.03,1.91,.03,.44,.01,.67,.02,.68,.03,.01,.01-.2,.02-.62,.03-.47,0-1.08,.02-1.86,.03-1.69,.02-4.07,.04-7.03,.08-6.11,.03-14.64,.08-24.54,.13h-.27v-.27c0-2.33,0-4.76-.01-7.27,0-1.25,0-2.53,0-3.82,0-.64,0-1.29,0-1.94v-1.95h0c-.06,.05,.55-.56,.29-.3,13.22,.03,25.22,.06,34.04,.08h.21v.21c-.05,4.62-.09,8.37-.11,11.03-.02,1.25-.04,2.23-.05,2.96-.02,.67-.03,1.01-.04,1Z" style="fill:#e0e0e0;"></path></g><g><path d="M136.28,385.91s-.01-.1-.02-.27c0-.2-.01-.45-.02-.77-.01-.71-.02-1.69-.04-2.95-.02-2.59-.06-6.31-.1-11l.18,.18c-12.94,.03-33.51,.07-56.66,.11,.13-.13-.29,.29,.29-.29h0v1.92c0,.64,0,1.28,0,1.91,0,1.27,0,2.53,0,3.78,0,2.5,0,4.96,0,7.37l-.28-.28c16.13,.05,30.25,.1,40.38,.13,5.04,.03,9.09,.06,11.92,.08,1.38,.02,2.45,.03,3.22,.04,.35,0,.62,.01,.84,.02,.19,0,.29,.01,.3,.02,0,0-.08,.01-.26,.02-.21,0-.48,.01-.81,.02-.76,0-1.81,.02-3.16,.04-2.81,.02-6.84,.05-11.85,.08-10.18,.03-24.36,.08-40.58,.13h-.28v-.28c0-2.41,0-4.87,0-7.37,0-1.25,0-2.51,0-3.78,0-.64,0-1.27,0-1.91v-1.91h0c.58-.59,.16-.17,.29-.3,23.15,.05,43.72,.09,56.66,.11h.18v.18c-.04,4.74-.08,8.49-.1,11.1-.02,1.24-.03,2.21-.04,2.91,0,.3-.01,.55-.02,.74,0,.16-.01,.24-.02,.24Z" style="fill:#e0e0e0;"></path><path d="M143.96,370.92s-.01-.1-.02-.29c0-.22-.01-.48-.02-.79-.01-.74-.03-1.74-.05-3.01-.03-2.63-.06-6.34-.11-10.9l.21,.21c-8.82,.02-20.82,.05-34.04,.08-.26,.26,.35-.35,.29-.29h0v1.96c0,.65,0,1.3,0,1.94,0,1.29,0,2.56,0,3.82,0,2.51,0,4.94-.01,7.27l-.27-.27c9.83,.05,18.29,.1,24.35,.13,2.99,.03,5.39,.06,7.09,.08,.8,.01,1.43,.03,1.91,.03,.44,.01,.67,.02,.68,.03,.01,.01-.2,.02-.62,.03-.47,0-1.08,.02-1.86,.03-1.69,.02-4.07,.04-7.03,.08-6.11,.03-14.64,.08-24.54,.13h-.27v-.27c0-2.33,0-4.76-.01-7.27,0-1.25,0-2.53,0-3.82,0-.64,0-1.29,0-1.94v-1.95h0c-.06,.05,.55-.56,.29-.3,13.22,.03,25.22,.06,34.04,.08h.21v.21c-.05,4.62-.09,8.37-.11,11.03-.02,1.25-.04,2.23-.05,2.96-.02,.67-.03,1.01-.04,1Z" style="fill:#e0e0e0;"></path></g><g><rect x="426.69" y="152.12" width="49.91" height="13.2" style="fill:#ebebeb;"></rect><path d="M455.49,179.23s-.01-.09-.02-.24c0-.18,0-.4-.02-.68,0-.62-.02-1.49-.04-2.6-.02-2.28-.05-5.56-.09-9.69l.15,.15c-11.4,.02-29.52,.06-49.91,.1,.11-.11-.26,.25,.25-.25h0v1.69c0,.56,0,1.12,0,1.68,0,1.12,0,2.23,0,3.33,0,2.2,0,4.37,0,6.49l-.25-.25c14.21,.05,26.65,.08,35.57,.11,4.44,.03,8.01,.05,10.5,.07,1.21,.01,2.16,.02,2.84,.03,.31,0,.55,.01,.74,.02,.17,0,.26,.01,.26,.02,0,0-.07,.01-.23,.02-.18,0-.42,0-.71,.02-.67,0-1.6,.02-2.78,.03-2.48,.02-6.02,.04-10.44,.07-8.96,.03-21.46,.07-35.74,.11h-.25v-.25c0-2.12,0-4.29,0-6.49,0-1.1,0-2.21,0-3.33,0-.56,0-1.12,0-1.68v-1.67h0v-.02h0c.51-.51,.14-.14,.26-.26,20.39,.04,38.51,.08,49.91,.1h.16v.15c-.04,4.17-.07,7.48-.09,9.78-.02,1.1-.03,1.95-.04,2.56,0,.27-.01,.48-.02,.65,0,.14-.01,.21-.02,.21Z" style="fill:#e0e0e0;"></path></g><g><rect x="229.01" y="221.51" width="49.91" height="13.2" style="fill:#ebebeb;"></rect><path d="M257.82,248.62s-.01-.09-.02-.24c0-.18,0-.4-.02-.68,0-.62-.02-1.49-.04-2.6-.02-2.28-.05-5.56-.09-9.69l.15,.15c-11.4,.02-29.52,.06-49.91,.1,.11-.11-.26,.25,.25-.25h0v1.69c0,.56,0,1.12,0,1.68,0,1.12,0,2.23,0,3.33,0,2.2,0,4.37,0,6.49l-.25-.25c14.21,.05,26.65,.08,35.57,.11,4.44,.03,8.01,.05,10.5,.07,1.21,.01,2.16,.02,2.84,.03,.31,0,.55,.01,.74,.02,.17,0,.26,.01,.26,.02,0,0-.07,.01-.23,.02-.18,0-.42,0-.71,.02-.67,0-1.6,.02-2.78,.03-2.48,.02-6.02,.04-10.44,.07-8.96,.03-21.46,.07-35.74,.11h-.25v-.25c0-2.12,0-4.29,0-6.49,0-1.1,0-2.21,0-3.33,0-.56,0-1.12,0-1.68v-1.67h0v-.02h0c.51-.51,.14-.14,.26-.26,20.39,.04,38.51,.08,49.91,.1h.16v.15c-.04,4.17-.07,7.48-.09,9.78-.02,1.1-.03,1.95-.04,2.56,0,.27-.01,.48-.02,.65,0,.14-.01,.21-.02,.21Z" style="fill:#e0e0e0;"></path></g><rect x="293.29" y="48.24" width="49.91" height="13.2" style="fill:#ebebeb;"></rect><rect x="420.44" y="369.6" width="49.91" height="13.2" style="fill:#ebebeb;"></rect></g><g id="background-simple"><path d="M129.1,86.19l.89-2.9c7.47-24.43,27.46-43.1,52.35-47.76,3.2-.6,6.44-.97,9.7-1.09,23.48-.89,47.13,11.03,60.64,30.56,7.94,11.48,12.97,25.75,24.49,33.54,14.99,10.14,34.9,5.52,52.18,.56,17.27-4.96,37.21-9.53,52.16,.67,9.36,6.39,14.65,17.52,16.86,28.7,5.86,29.6-7.86,60.89-30.45,80.44-22.59,19.55-52.77,28.45-82.55,29.94-41.72,2.08-85.04-10.31-116.34-38.49-31.3-28.17-48.78-72.95-39.93-114.18Z" style="fill:#f5f5f5;"></path></g><g id="Floor"><path d="M473.73,405.68c0,.14-101.07,.26-225.72,.26s-225.74-.12-225.74-.26,101.05-.26,225.74-.26,225.72,.12,225.72,.26Z" style="fill:#263238;"></path></g><g id="Screen"><g><g><path d="M220.47,58.44v112.92c0,2.59,1.96,4.69,4.39,4.69h33.35l11.31,13.95,3.49-13.95h33.13c2.42,0,4.39-2.1,4.39-4.69V58.44c0-3.3-2.51-5.98-5.6-5.98h-78.86c-3.09,0-5.6,2.68-5.6,5.98Z" style="fill:#fff;"></path><path d="M220.47,58.44s0-.1,0-.28c0-.19,.02-.47,.08-.84,.12-.73,.43-1.85,1.39-2.98,.48-.55,1.12-1.09,1.94-1.47,.82-.39,1.84-.52,2.9-.48,2.12,0,4.57-.01,7.33-.02,11.04-.02,27-.05,46.71-.08,4.93,0,10.1-.01,15.48-.02,2.69,0,5.44,0,8.23,0,1.42-.08,2.95,.39,4.05,1.38,1.12,.97,1.86,2.36,2.08,3.84,.11,.75,.07,1.49,.08,2.21,0,.73,0,1.46,0,2.2,0,1.47,0,2.96,0,4.46,0,3,0,6.04,0,9.13,0,6.18,0,12.53,.01,19.05,0,13.04,0,26.72,.02,40.91,0,7.09,0,14.31,0,21.64,0,3.66,0,7.35,0,11.07v2.79c.04,.93-.12,1.96-.59,2.83-.46,.87-1.17,1.62-2.07,2.06-.44,.22-.92,.39-1.42,.44-.51,.06-.97,.04-1.44,.04-10.98,0-21.77,0-32.26,0l.25-.19c-1.18,4.72-2.35,9.37-3.49,13.94l-.12,.49-.32-.4c-3.86-4.76-7.63-9.41-11.3-13.95l.19,.09c-11.13,0-21.88-.01-32.16-.02-.64-.01-1.28,.04-1.96-.08-.66-.12-1.3-.39-1.84-.79-1.08-.79-1.78-2.04-1.95-3.34-.08-.66-.04-1.28-.05-1.91,0-.62,0-1.25,0-1.87,0-1.24,0-2.47,0-3.7,0-4.9,0-9.67,.01-14.31,.02-18.55,.04-34.94,.06-48.55,.03-13.6,.06-24.42,.07-31.85,.02-3.7,.03-6.56,.04-8.5,0-.96,.02-1.69,.02-2.19,0-.49,.02-.74,.02-.74,0,0,.01,.25,.02,.74,0,.5,.01,1.23,.02,2.19,0,1.94,.02,4.8,.04,8.5,.02,7.43,.04,18.25,.07,31.85,.02,13.61,.03,30,.06,48.55,0,4.64,0,9.41,.01,14.31,.02,2.43-.05,4.97,.05,7.41,.16,1.19,.8,2.32,1.77,3.03,.48,.36,1.05,.6,1.65,.71,.58,.1,1.23,.05,1.88,.07,10.28,0,21.03-.01,32.16-.02h.12l.07,.09c3.68,4.54,7.45,9.18,11.31,13.94l-.44,.1c1.14-4.58,2.31-9.23,3.49-13.95l.05-.2h.2c10.48,0,21.28,0,32.26,0,.47,0,.95,.01,1.37-.04,.44-.05,.86-.2,1.25-.39,.79-.39,1.43-1.06,1.84-1.84,.42-.79,.56-1.66,.53-2.59v-2.79c0-3.71,0-7.4,0-11.07,0-7.33,0-14.55,0-21.64,0-14.19,.01-27.87,.02-40.91,0-6.52,0-12.88,.01-19.05,0-3.09,0-6.13,0-9.13,0-1.5,0-2.98,0-4.46,0-.74,0-1.47,0-2.2,0-.73,.03-1.46-.07-2.15-.2-1.38-.89-2.68-1.93-3.58-1.04-.92-2.4-1.35-3.77-1.28-2.8,0-5.54,0-8.23,0-5.38,0-10.55-.01-15.48-.02-19.72-.03-35.67-.06-46.71-.08-2.76,0-5.21-.02-7.33-.02-1.06-.05-2.03,.08-2.85,.45-.81,.36-1.44,.89-1.92,1.42-.95,1.09-1.28,2.2-1.41,2.92-.13,.73-.1,1.12-.13,1.11Z" style="fill:#263238; stroke:#263238; stroke-linecap:round; stroke-linejoin:round; stroke-width:.5px;"></path></g><path d="M230.18,59.64c0,.88-.72,1.6-1.6,1.6s-1.6-.72-1.6-1.6,.72-1.6,1.6-1.6,1.6,.72,1.6,1.6Z" style="fill:#ebebeb;"></path><path d="M234.51,59.64c0,.88-.72,1.6-1.6,1.6s-1.6-.72-1.6-1.6,.72-1.6,1.6-1.6,1.6,.72,1.6,1.6Z" style="fill:#ebebeb;"></path><path d="M239,59.64c0,.88-.72,1.6-1.6,1.6s-1.6-.72-1.6-1.6,.72-1.6,1.6-1.6,1.6,.72,1.6,1.6Z" style="fill:#ebebeb;"></path><rect x="227.56" y="72.55" width="26.69" height="4.1" style="fill:#FF725E;"></rect><rect x="227.56" y="103.85" width="26.69" height="4.1" style="fill:#455a64;"></rect><rect x="227.56" y="145.73" width="26.69" height="4.1" style="fill:#455a64;"></rect><rect x="235.45" y="79.47" width="27.3" height="4.1" style="fill:#ebebeb;"></rect><rect x="227.97" y="79.48" width="4.07" height="4.07" style="fill:#ebebeb;"></rect><rect x="239.56" y="136.73" width="60.83" height="4.1" style="fill:#ebebeb;"></rect><rect x="239.56" y="129.99" width="60.83" height="4.1" style="fill:#ebebeb;"></rect><rect x="227.97" y="130" width="7.48" height="4.07" style="fill:#ebebeb;"></rect><rect x="239.56" y="162.22" width="60.83" height="4.1" style="fill:#ebebeb;"></rect><rect x="239.56" y="155.48" width="60.83" height="4.1" style="fill:#ebebeb;"></rect><rect x="227.97" y="155.49" width="7.48" height="4.07" style="fill:#ebebeb;"></rect><rect x="239.56" y="121.03" width="60.83" height="4.1" style="fill:#ebebeb;"></rect><rect x="239.56" y="114.29" width="60.83" height="4.1" style="fill:#ebebeb;"></rect><rect x="227.97" y="114.3" width="7.48" height="4.07" style="fill:#ebebeb;"></rect><rect x="235.45" y="85.74" width="20.96" height="4.1" style="fill:#ebebeb;"></rect><rect x="227.97" y="85.75" width="4.07" height="4.07" style="fill:#ebebeb;"></rect><rect x="235.45" y="92.27" width="23.1" height="4.1" style="fill:#ebebeb;"></rect><rect x="227.97" y="92.29" width="4.07" height="4.07" style="fill:#ebebeb;"></rect><g><rect x="272.93" y="74.87" width="27.17" height="27.17" style="fill:#ebebeb;"></rect><path d="M297.02,62.9s2.13,4.49,3.08,13.41c.67,6.26-.05,15.19-.05,15.19,0,0-26.88,2.42-27.34,1.7-4.45-7.07,.28-26.28,.28-26.28l24.03-4.03Z" style="fill:#263238;"></path><g><path d="M297.54,75.07c-2.01,6.21-6.66,9.07-6.66,9.07,0,0-14.3,3.78-17.14-6.76s.63-16.67,4.83-19.13c3.53-2.06,14.92-2.61,18.67,5.07,0,0,2.88,5.99,.3,11.75Z" style="fill:#263238;"></path><g><g><path d="M290.69,62l-7.75-2.97-2.01,.26c-4.54,.07-7.6,5.11-7.59,8.79,.02,4.08,.2,9.06,.88,12.07,1.38,6.03,6.55,6.47,6.55,6.47,0,0,.07,4.97,.06,7l10.46-2.46,1.47-27.11c-.05-1.11-.95-2-2.06-2.05Z" style="fill:#ffbf9d;"></path><path d="M280.75,86.6s4.12-.01,8.02-2.73c0,0-1.89,4.37-8.03,4.21v-1.49Z" style="fill:#ff9a6c;"></path></g><path d="M276.12,73.17c.01,.41,.37,.74,.81,.74,.43,0,.77-.35,.76-.76-.01-.41-.37-.74-.81-.74-.43,0-.77,.35-.76,.76Z" style="fill:#263238;"></path><path d="M274.74,70.09c.1,.1,.67-.38,1.51-.44,.84-.07,1.49,.33,1.57,.22,.04-.05-.07-.23-.35-.4-.28-.18-.74-.34-1.27-.3-.52,.04-.95,.26-1.19,.48-.25,.22-.32,.41-.27,.45Z" style="fill:#263238;"></path><path d="M280.23,76.63s-.53-.1-1.38-.16c-.22,0-.42-.04-.47-.18-.06-.15,.01-.39,.1-.65,.17-.53,.34-1.09,.53-1.68,.73-2.39,1.24-4.35,1.14-4.38-.1-.03-.76,1.89-1.49,4.27-.17,.59-.34,1.15-.5,1.69-.07,.25-.19,.54-.05,.85,.07,.16,.23,.26,.37,.29,.14,.03,.26,.03,.37,.03,.86-.01,1.39-.04,1.39-.09Z" style="fill:#263238;"></path><path d="M274.51,67.3c.16,.2,.79,.02,1.55,.03,.76-.01,1.39,.17,1.55-.03,.07-.1-.03-.29-.3-.48-.27-.19-.73-.35-1.25-.35-.52,0-.98,.16-1.24,.35-.27,.19-.37,.38-.3,.48Z" style="fill:#263238;"></path><path d="M284.99,72.49c.03,.41-.3,.78-.73,.81-.43,.04-.8-.27-.83-.68-.03-.41,.3-.78,.73-.81,.43-.04,.8,.27,.83,.68Z" style="fill:#263238;"></path><path d="M286.14,69.63c-.09,.11-.7-.32-1.54-.29-.84,.02-1.45,.47-1.54,.37-.05-.04,.05-.23,.31-.44,.26-.2,.71-.41,1.23-.42,.53-.01,.97,.17,1.23,.36,.26,.19,.36,.37,.31,.42Z" style="fill:#263238;"></path><path d="M285.53,67.35c-.19,.17-.81-.12-1.58-.23-.77-.14-1.45-.07-1.57-.29-.05-.11,.08-.28,.39-.42,.31-.14,.8-.22,1.33-.14,.53,.09,.97,.32,1.21,.55,.25,.23,.31,.44,.23,.52Z" style="fill:#263238;"></path><g><path d="M291.54,74.34c-.03-.45,.42-1.56,.87-1.66,1.19-.27,3.35-.32,3.57,2.72,.31,4.16-4.32,3.8-4.33,3.68-.01-.09,0-3.18-.11-4.74Z" style="fill:#ffbf9d;"></path><path d="M293.07,77.28s.08,.05,.2,.09c.12,.05,.33,.07,.54-.03,.43-.19,.75-.92,.71-1.67-.02-.38-.12-.73-.28-1.02-.15-.29-.36-.49-.59-.52-.22-.03-.37,.11-.41,.23-.05,.12-.01,.2-.04,.21-.01,.01-.09-.06-.07-.24,.01-.08,.05-.19,.14-.27,.09-.09,.24-.14,.39-.14,.32,0,.63,.27,.8,.59,.19,.32,.32,.71,.34,1.14,.04,.84-.34,1.65-.92,1.87-.29,.1-.54,.03-.67-.06-.14-.09-.16-.18-.15-.19Z" style="fill:#ff9a6c;"></path></g><path d="M292.87,72.66l-1.04,1.11c-4.62-4.31-14.17-15.79-13.67-15.14,0,0,3.62-.68,7.02-.14,3.4,.54,9.86,2.16,9.81,6.16-.05,4-2.11,8.01-2.11,8.01Z" style="fill:#263238;"></path></g><path d="M280.88,78.58c.06,.7,.67,1.23,1.38,1.17,.7-.06,1.23-.67,1.17-1.38-.06-.7-.67-1.23-1.38-1.17-.7,.06-1.23,.67-1.17,1.38Z" style="fill:#ff9a6c;"></path><path d="M283.18,77.12c-.08-.02-.26,.77-.99,1.39-.71,.63-1.53,.69-1.51,.78,0,.03,.21,.07,.54,.01,.33-.06,.77-.24,1.16-.58,.39-.34,.63-.75,.74-1.07,.11-.32,.1-.53,.07-.53Z" style="fill:#263238;"></path></g><path d="M271.72,93.61s7.21-2.32,7.57-2.59c.36-.27-.08-1.79,.59-2.56,.67-.77,11.99-3.5,12.15-3.09,.39,1.02,0,2.72,0,2.72,0,0,7.65,1.87,8.08,2.41,.42,.54,0,11.54,0,11.54h-28.38v-8.43Z" style="fill:#FF725E;"></path></g></g></g><g id="Lines"><g><path d="M248.24,240.25c0,.14-3.5,.21-7.81,.15-4.31-.06-7.8-.23-7.8-.37,0-.14,3.5-.21,7.81-.15,4.31,.06,7.8,.23,7.8,.37Z" style="fill:#263238;"></path><path d="M251.19,228.71c-.07,.13-3.24-1.51-7.08-3.66-3.84-2.15-6.9-3.99-6.83-4.11,.07-.13,3.24,1.51,7.09,3.66,3.84,2.15,6.9,3.99,6.83,4.11Z" style="fill:#263238;"></path><path d="M255.67,218.08c-.13,.06-1.48-2.34-3.01-5.38-1.54-3.04-2.68-5.55-2.55-5.61,.13-.06,1.48,2.34,3.01,5.38,1.54,3.04,2.68,5.55,2.55,5.61Z" style="fill:#263238;"></path></g></g><g id="Device"><g><path d="M257.76,265.32h-70.01c0-1.92,1.56-3.47,3.47-3.47h66.54v3.47Z" style="fill:#455a64;"></path><path d="M257.76,265.32l15.55-58.68c.28-1.08-.34-2.18-1.41-2.49h0c-1.09-.31-2.23,.33-2.53,1.43l-16.25,59.74h4.64Z" style="fill:#455a64;"></path><path d="M256.47,264.9c-.11,.1-.77-.47-1.47-1.27-.7-.8-1.19-1.52-1.08-1.62,.11-.1,.77,.47,1.47,1.27,.7,.8,1.19,1.52,1.08,1.62Z" style="fill:#263238;"></path></g></g><g id="Speech_Bubble_2"><g><g><path d="M359.02,139.36l-5.58-1.4c-4.31,1.69-9.19,2.12-14.09,.9-11.06-2.75-18.59-13.41-17.45-24.76,1.43-14.25,15.16-23.79,29.02-20.16,11.11,2.91,18.49,13.81,17.09,25.21-.71,5.83-3.5,10.83-7.49,14.43h.01l-1.5,5.78Z" style="fill:#fff;"></path><path d="M359.02,139.36s.03-.14,.09-.39c.07-.26,.16-.64,.28-1.12,.25-.99,.61-2.43,1.08-4.28l.09,.07h-.01l-.42,.22,.35-.32c2.07-1.9,4.59-4.86,6.16-9.14,.76-2.13,1.33-4.56,1.4-7.19,.09-2.63-.28-5.45-1.23-8.24-.95-2.79-2.53-5.53-4.68-7.94-1.05-1.23-2.31-2.3-3.64-3.32-.34-.25-.7-.46-1.05-.7-.36-.22-.7-.49-1.08-.67-.76-.39-1.5-.84-2.31-1.14-3.18-1.36-6.8-2.01-10.45-1.81-3.66,.18-7.35,1.36-10.6,3.35-3.27,2.01-6.02,4.77-7.87,7.97-1.86,3.19-2.87,6.74-3.12,10.22-.22,3.48,.33,6.9,1.57,9.9,1.21,3.02,2.98,5.65,5.05,7.76,2.07,2.13,4.45,3.71,6.84,4.81,.61,.25,1.21,.49,1.8,.73,.6,.2,1.21,.37,1.79,.55,1.18,.33,2.35,.53,3.48,.66,4.53,.5,8.29-.43,10.88-1.42h.04c1.78,.46,3.17,.82,4.12,1.06,.47,.12,.82,.22,1.08,.28,.24,.07,.37,.11,.37,.11,0,0-.12-.02-.36-.08-.25-.06-.61-.14-1.07-.25-.96-.23-2.36-.57-4.17-1.01h.04c-2.59,1.02-6.37,1.99-10.94,1.5-1.14-.12-2.32-.32-3.51-.65-.59-.18-1.2-.35-1.81-.55-.6-.24-1.2-.48-1.82-.73-2.42-1.1-4.83-2.69-6.93-4.84-2.1-2.13-3.9-4.79-5.13-7.84-1.26-3.04-1.82-6.5-1.6-10.03,.24-3.52,1.26-7.12,3.15-10.35,1.87-3.24,4.65-6.04,7.97-8.08,3.3-2.02,7.03-3.21,10.74-3.39,3.71-.2,7.36,.46,10.59,1.85,.83,.31,1.57,.76,2.34,1.16,.39,.19,.73,.45,1.1,.68,.36,.24,.72,.46,1.06,.71,1.34,1.03,2.62,2.12,3.68,3.37,2.17,2.44,3.76,5.22,4.71,8.05,.96,2.83,1.32,5.68,1.22,8.33-.09,2.66-.67,5.1-1.45,7.25-1.61,4.31-4.16,7.28-6.27,9.16l-.07-.1h.01l.12-.07-.04,.13c-.5,1.86-.89,3.31-1.15,4.3-.13,.48-.23,.84-.3,1.1-.07,.25-.11,.37-.11,.37Z" style="fill:#263238; stroke:#263238; stroke-linecap:round; stroke-linejoin:round; stroke-width:.5px;"></path></g><path d="M338.59,116.2c0,1.46-1.18,2.64-2.64,2.64s-2.64-1.18-2.64-2.64,1.18-2.64,2.64-2.64,2.64,1.18,2.64,2.64Z" style="fill:#263238;"></path><path d="M347.6,116.2c0,1.46-1.18,2.64-2.64,2.64s-2.64-1.18-2.64-2.64,1.18-2.64,2.64-2.64,2.64,1.18,2.64,2.64Z" style="fill:#263238;"></path><path d="M356.61,116.2c0,1.46-1.18,2.64-2.64,2.64s-2.64-1.18-2.64-2.64,1.18-2.64,2.64-2.64,2.64,1.18,2.64,2.64Z" style="fill:#263238;"></path></g></g><g id="Speech_Bubble_1"><g><path d="M167.48,103.57c.98-.44,2.39-1.08,4.19-1.89,2.79,.79,6.75,1.37,11.35,.4,1.14-.25,2.33-.57,3.51-1.04,.58-.25,1.2-.46,1.79-.75,.58-.31,1.18-.62,1.78-.93,2.35-1.38,4.61-3.27,6.52-5.67,1.9-2.4,3.43-5.29,4.34-8.52,.89-3.22,1.21-6.79,.56-10.34-.63-3.54-2.06-7.07-4.32-10.14l-.41-.58-.47-.54-.95-1.08c-.66-.7-1.39-1.34-2.12-1.99-1.54-1.19-3.16-2.33-4.97-3.14-3.54-1.69-7.43-2.5-11.2-2.3-3.76,.18-7.38,1.22-10.51,2.94-3.15,1.69-5.73,4.12-7.68,6.8-1.96,2.69-3.28,5.65-3.99,8.61-.7,2.96-.79,5.89-.43,8.58,.38,2.69,1.16,5.13,2.19,7.23,2.05,4.21,4.94,6.99,7.31,8.72,.67,2.03,1.18,3.61,1.54,4.7,.17,.51,.3,.91,.4,1.2,.09,.27,.14,.39,.14,.39,0,0,.12-.04,.36-.15,.26-.12,.62-.28,1.08-.48Z" style="fill:#fff;"></path><path d="M170.8,73.09h4.29s0-3.6,3.74-3.66c1.94-.03,2.95,1.24,3.36,2.21,.48,1.13,.33,2.42-.31,3.47-.73,1.2-2.32,2.29-5.21,1.78v9.66h4.24v-5.66s5.94-1.54,5.94-8.09-5.62-7.72-8.03-7.72c-1.84,0-8.11,.44-8.03,8.01Z" style="fill:#263238;"></path><rect x="176.66" y="88.55" width="4.3" height="4.02" style="fill:#263238;"></rect><path d="M166.05,104.22s-.05-.12-.14-.39c-.1-.29-.23-.69-.4-1.2-.36-1.09-.88-2.68-1.55-4.72-.02-.05,.01-.1,.06-.11,.02,0,.04,0,.06,0h.01l-.09,.16c-2.37-1.73-5.29-4.51-7.35-8.75-1.03-2.1-1.8-4.55-2.19-7.23-.36-2.69-.26-5.62,.43-8.58,.71-2.95,2.03-5.92,3.99-8.61,1.96-2.67,4.53-5.11,7.68-6.8,3.13-1.71,6.75-2.76,10.51-2.94,3.77-.2,7.66,.61,11.2,2.3,1.82,.81,3.44,1.95,4.97,3.14,.72,.65,1.45,1.29,2.12,1.99l.95,1.08,.47,.54,.41,.58c2.26,3.07,3.69,6.6,4.32,10.14,.65,3.55,.33,7.12-.56,10.34-.9,3.23-2.44,6.13-4.34,8.52-1.91,2.39-4.17,4.29-6.52,5.67-.6,.32-1.2,.63-1.78,.93-.59,.29-1.2,.5-1.79,.75-1.18,.48-2.36,.79-3.51,1.04-4.61,.98-8.59,.39-11.38-.41h.06c-1.82,.82-3.24,1.45-4.22,1.9-.46,.2-.82,.36-1.08,.48-.24,.11-.36,.16-.36,.15,0,0,.13-.07,.38-.19,.26-.13,.62-.3,1.08-.53,.96-.46,2.35-1.12,4.13-1.97,.02,0,.04-.01,.06,0,2.78,.75,6.72,1.3,11.27,.3,1.13-.25,2.3-.57,3.46-1.05,.57-.25,1.18-.46,1.76-.75,.57-.3,1.16-.61,1.75-.93,2.31-1.37,4.53-3.25,6.4-5.61,1.86-2.37,3.36-5.22,4.24-8.4,.87-3.17,1.17-6.67,.53-10.16-.63-3.48-2.03-6.94-4.25-9.95l-.41-.57-.46-.53-.93-1.06c-.65-.68-1.37-1.31-2.08-1.95-1.51-1.17-3.1-2.29-4.88-3.08-3.47-1.66-7.29-2.46-10.99-2.26-3.69,.17-7.25,1.19-10.32,2.87-3.09,1.66-5.63,4.04-7.56,6.66-1.93,2.63-3.25,5.55-3.95,8.46-.7,2.91-.81,5.8-.46,8.45,.37,2.65,1.11,5.07,2.12,7.15,2,4.2,4.86,6.98,7.19,8.73,.04,.03,.05,.09,.02,.13-.02,.03-.07,.05-.11,.03h-.01l.12-.12c.62,2.03,1.1,3.61,1.43,4.7,.16,.53,.28,.94,.37,1.23,.08,.28,.12,.43,.12,.43Z" style="fill:#263238; stroke:#263238; stroke-linecap:round; stroke-linejoin:round; stroke-width:.5px;"></path></g></g><g id="Character_2"><g><g><path d="M350.88,409.35c-.31,.15,4.03,9.57,10.18,12.42,.92,.43,5.73,.86,6.15,2.38,.42,1.52-6.95,29.31-8.86,31.34-1.91,2.03-4.56,3.09-4.56,3.09,0,0-2.88-14.69-3.99-20.49-1.11-5.8-11.4-19.26-11.4-19.26l12.48-9.49Z" style="fill:#ffbf9d;"></path><path d="M361.98,422.09c.46,.11,6.28,.8,9.87,4.2,3.59,3.4,13.14,21.66,13.14,21.66l-1.74,1.19s-8.23-12.96-9.36-13.61c-1.13-.65-3.97-.76-6.17,7-2.2,7.76,1.56,12.06-2.26,16.42-3.82,4.36-17.34,10.84-17.95,9.71-.61-1.14,6.05-11.39,6.05-11.39,0,0,3.81-.97,5.25-5.42,1.44-4.46,3.19-29.76,3.19-29.76Z" style="fill:#263238;"></path></g><g><path d="M361.37,397.91c-.33,.09,2.24,10.14,7.79,14.05,.83,.58,5.48,1.87,5.62,3.45,.14,1.57-12.11,27.59-14.35,29.24-2.24,1.65-5.04,2.22-5.04,2.22,0,0-.2-14.97-.25-20.87-.05-5.9-7.75-20.99-7.75-20.99l13.98-7.1Z" style="fill:#ffbf9d;"></path><path d="M369.99,412.44c.43,.19,6.03,1.92,8.95,5.91,2.92,3.99,9.03,23.67,9.03,23.67l-1.93,.86s-5.77-14.23-6.76-15.07c-.99-.84-3.77-1.46-7.33,5.78-3.56,7.24-.64,12.15-5.18,15.75-4.54,3.6-19.01,7.55-19.41,6.32-.4-1.23,8-10.12,8-10.12,0,0,3.93-.27,6.14-4.39,2.22-4.12,8.48-28.7,8.48-28.7Z" style="fill:#263238;"></path></g><g><path d="M306,312.63l71.68-14.66,2.25-16.23,5.55,1.25,2.14,43.1-47.01,16.26,24.23,63.27-15.38,10.39s-49.86-70.35-53.58-78.2c-3.72-7.85-2.42-22.37,10.12-25.18Z" style="fill:#263238;"></path><g><path d="M424.42,276.41s19.62,51.13,4.65,60.89c-19.57,12.75-102.09,9.81-100.58,11.26,7.65,7.39,21.9,44.12,30.76,65.99l-19.49,13.06s-40.39-59.01-47.85-74.4c-5.02-10.36-5.2-25.5,7.11-30.93,7.75-3.42,81.06-22.49,81.06-22.49l-.15-18.04,44.49-5.33Z" style="fill:#263238;"></path><path d="M339.63,428.3l-.28-.41c-.4-.59-40.5-59.21-47.89-74.47-3.48-7.19-4.23-15.52-1.95-21.74,1.68-4.56,4.81-7.89,9.3-9.87,7.5-3.31,74.45-20.77,80.76-22.42l-.15-18.1,.44-.05,44.88-5.38,.14,.36c.81,2.1,19.59,51.62,4.46,61.48-14.67,9.56-64.14,10.37-87.91,10.75-5.42,.09-10.23,.17-12.01,.33,7.02,7.75,18.75,36.9,27.39,58.35,1.02,2.53,1.99,4.95,2.91,7.21l.15,.38-20.24,13.56Zm40.8-146.11l.15,17.98-.38,.1c-.73,.19-73.36,19.1-80.98,22.46-4.24,1.87-7.19,5-8.77,9.3-2.19,5.97-1.46,14.01,1.91,20.96,7.04,14.51,43.94,68.66,47.54,73.93l18.74-12.55c-.87-2.15-1.8-4.45-2.76-6.84-8.84-21.97-20.95-52.06-27.74-58.61l-.24-.23,.11-.36c.23-.58,.68-.65,13.41-.85,23.68-.39,72.95-1.19,87.38-10.59,13.81-9-2.99-55.33-4.71-59.92l-43.66,5.23Z" style="fill:#455a64;"></path></g></g><path d="M365.75,159.9c-.22-2.83-.16-5.9,.31-9h0c.67-4.49,3.04-8.56,5.8-12.17,2.33-3.04,5.74-4.89,9.47-5.73,3.73-.85,5.89-1.83,11.02-1.54,9.08,.51,16.64,4.87,22.12,12.13,1.73,2.29,3.06,5.07,3.91,8.04,1.58,4,14.19,47.47,12.79,68.53-1.26,18.97-3.4,22.1-11.82,22.34-8.42,.24-42.89,8.61-49.76-1.2-5.45-7.78-4.47-60.09-3.84-81.39Z" style="fill:#263238;"></path><g><g><path d="M403.93,143.09l-15.53-6.9-4.14,.31c-9.28-.34-16.08,9.64-16.44,17.15-.4,8.34-.56,18.54,.52,24.75,2.17,12.47,12.69,13.92,12.69,13.92,0,0-.38,10.17-.62,14.32l21.64-3.91,5.89-55.23c.01-2.28-1.73-4.2-4-4.4Z" style="fill:#ffbf9d;"></path><path d="M381.01,192.31s8.42,.42,16.68-4.72c0,0-4.33,8.73-16.86,7.75l.18-3.03Z" style="fill:#ff9a6c;"></path></g><path d="M370.89,164.2c-.02,.85,.69,1.56,1.57,1.59,.88,.03,1.61-.62,1.63-1.47,.02-.85-.69-1.56-1.57-1.6-.89-.03-1.62,.62-1.63,1.47Z" style="fill:#263238;"></path><path d="M370.48,157.93c.2,.21,1.4-.71,3.13-.73,1.72-.05,3,.82,3.19,.61,.09-.09-.12-.47-.68-.86-.55-.39-1.48-.77-2.56-.75-1.07,.02-1.97,.43-2.49,.84-.52,.42-.7,.8-.6,.89Z" style="fill:#263238;"></path><path d="M381.01,171.88c0-.1-1.07-.27-2.81-.46-.44-.04-.86-.12-.94-.42-.11-.32,.07-.79,.27-1.31,.4-1.07,.82-2.2,1.25-3.38,1.74-4.8,2.99-8.75,2.8-8.82-.19-.07-1.76,3.77-3.5,8.57-.42,1.18-.82,2.31-1.2,3.39-.16,.5-.44,1.08-.2,1.73,.12,.33,.45,.56,.73,.63,.28,.08,.53,.08,.75,.09,1.75,.07,2.84,.06,2.84-.04Z" style="fill:#263238;"></path><path d="M371.31,151.93c.3,.42,1.61,.12,3.16,.22,1.55,.06,2.83,.49,3.17,.11,.15-.19-.03-.6-.57-1.01-.53-.41-1.45-.79-2.51-.85-1.06-.05-2.01,.23-2.58,.58-.58,.36-.79,.75-.66,.95Z" style="fill:#263238;"></path><path d="M388.61,164.67c.01,.85-.7,1.56-1.58,1.58-.88,.03-1.61-.63-1.62-1.48-.01-.85,.7-1.56,1.58-1.58,.88-.03,1.61,.64,1.62,1.48Z" style="fill:#263238;"></path><path d="M393.81,158.2c-.2,.2-1.4-.72-3.12-.76-1.72-.06-3.01,.8-3.19,.59-.09-.1,.12-.47,.68-.86,.55-.39,1.49-.76,2.56-.73,1.07,.03,1.97,.45,2.48,.86,.52,.42,.69,.8,.59,.89Z" style="fill:#263238;"></path><path d="M393,152.64c-.35,.38-1.67-.05-3.27-.11-1.6-.11-2.96,.2-3.26-.22-.13-.2,.09-.59,.69-.95,.59-.36,1.57-.64,2.67-.58,1.1,.06,2.04,.43,2.59,.85,.56,.42,.73,.82,.58,1.01Z" style="fill:#263238;"></path><g><path d="M404.35,168.39c-.01-.93,1.03-3.14,1.95-3.3,2.45-.42,6.88-.29,7.01,5.95,.18,8.52-9.23,7.3-9.25,7.06-.02-.19,.32-6.49,.28-9.7Z" style="fill:#ffbf9d;"></path><path d="M407.16,174.58s.15,.1,.4,.21c.25,.11,.67,.18,1.11,0,.89-.35,1.62-1.8,1.63-3.33,0-.78-.17-1.51-.46-2.12-.27-.62-.69-1.04-1.14-1.12-.45-.09-.77,.18-.87,.43-.11,.24-.05,.41-.1,.43-.02,.02-.19-.14-.13-.49,.03-.17,.13-.37,.32-.54,.2-.17,.5-.26,.82-.23,.66,.03,1.26,.62,1.58,1.29,.35,.67,.57,1.49,.57,2.36-.02,1.72-.86,3.35-2.09,3.73-.6,.17-1.1,0-1.36-.2-.27-.2-.32-.39-.29-.41Z" style="fill:#ff9a6c;"></path></g><path d="M407.25,165.11l-2.25,2.16c-8.97-9.3-26.32-32.39-25.35-31.02,0,0,6.5-2.37,13.39-.92,6.89,1.46,19.91,5.46,19.38,13.63-.53,8.17-5.17,16.15-5.17,16.15Z" style="fill:#263238;"></path></g><path d="M388.31,174.6c-.22-.39-.56-.77-1.02-.85-.45-.08-.89,.15-1.28,.38-1.09,.62-2.68,1.74-3.75,2.37,.25,1.12,1.86,2.67,3.03,2.81s2.37-.46,2.98-1.44c.61-.98,.61-2.27,.04-3.27Z" style="fill:#ff9a6c;"></path><g><polygon points="462.39 463.08 459.08 462.98 437.97 350.26 443.09 349.48 462.39 463.08" style="fill:#6f4439;"></polygon><polygon points="342.87 463.08 346.19 462.98 367.31 350.26 362.2 349.48 342.87 463.08" style="fill:#6f4439;"></polygon><path d="M445.91,339.18c.03-.31,.06-.61,.07-.92,.26-5.88-2.13-11.52-4.43-16.95-6.17-14.54-12.14-29.97-10.4-45.67,2.29-20.76,17.55-37.92,23-58,.64-2.36,2.81-3.99,5.27-3.99h0c3.68,0,6.36,3.57,5.23,7.07-6.07,18.77-19.91,35.23-22.09,54.92-1.73,15.7,4.23,31.13,10.4,45.67,2.3,5.43,4.69,11.07,4.43,16.95-.26,5.88-4.05,12.07-9.88,13.01h-86.73c-3.02,0-5.47-2.44-5.47-5.46v-1.18c0-3.01,2.45-5.46,5.47-5.46h85.13Z" style="fill:#FF725E;"></path></g><path d="M372.34,226.26c.14,.05-.41,1.92-1.22,4.18-.81,2.26-1.58,4.06-1.71,4.01-.14-.05,.41-1.92,1.22-4.18,.81-2.26,1.57-4.05,1.71-4.01Z" style="fill:#263238;"></path><g><path d="M304.02,252.4l41.86-5.83,7.88,.7,16.21-3.26s-23.61,17.79-27.07,17.86c-3.47,.07-40.52-1.09-40.52-1.09l1.64-8.37Z" style="fill:#ff9a6c;"></path><path d="M326.12,257.12s-1.36-8.23,.43-8.24,26.64-3.7,26.64-3.7l19.97-18.05-2.38,27.23-44.89,3.78" style="fill:#e0e0e0;"></path><path d="M379.17,201.5l.46,5.87s-10.05,26.29-11.52,33.28c-3.04,14.51,10.4,39.37,10.4,39.37l-1.03,11.33c-7.28,15.84,30.37,13.64,53.52,4.82l-4.21-22.68s-2.84-39.13-4.21-49.7c-1.24-9.57-5.6-25.41-18.41-29.7v-4.18l-24.55,9.5c-.38,.29-.61,1.62-.46,2.07Z" style="fill:#e0e0e0;"></path><path d="M346.1,252.13l-38.77,2.15-4.97-7.63s-11.42-8.23-12.09-7.31c-.67,.92,1.06,3.88,1.06,3.88l5.02,4.77s-7.35-4.85-9.11-4.41-1.26,3.77-1.26,3.77l.09,2.7s-2.8,.48-1.59,3.81c0,0-1.24,3.09,0,5.53,0,0-.76,1.64,.96,4.24,1.72,2.6,4.64,4.07,4.64,4.07,0,0,66.73,1.15,70.56-.98s45.41-37.18,45.41-37.18c-.05-1.15-10.43-19.51-10.43-19.51,0,0-35.08,41.45-36.5,41.52-1.42,.06-13.03,.58-13.03,.58Z" style="fill:#ffbf9d;"></path><g><path d="M286.6,246.25s-1.29,.06-1.77,1.32c-.48,1.26-.09,2.01,.11,2.53,.2,.52,2.82,2.41,4.14,2.94,1.32,.53,3.04-.63,2.63-1.87-.41-1.24-5.11-4.92-5.11-4.92Z" style="fill:#ffbf9d;"></path><path d="M286.6,246.25c.04-.05,1.02,.61,2.5,1.84,.73,.63,1.61,1.34,2.45,2.35,.19,.26,.44,.58,.46,.99,.04,.4-.11,.81-.36,1.11-.49,.61-1.29,.96-2.12,.87-.43-.05-.78-.23-1.1-.39-.32-.17-.63-.35-.92-.54-.59-.37-1.13-.76-1.64-1.16-.25-.2-.49-.4-.72-.62-.11-.11-.22-.22-.32-.36-.13-.19-.14-.3-.2-.44-.22-.54-.28-1.14-.18-1.63,.09-.49,.25-.93,.5-1.26,.25-.33,.55-.52,.81-.63,.52-.22,.84-.17,.84-.14,0,.04-.3,.07-.75,.32-.46,.23-.94,.84-1.04,1.76-.06,.45,0,.93,.22,1.42,.11,.48,.66,.8,1.13,1.2,.5,.37,1.04,.75,1.61,1.1,.57,.33,1.21,.76,1.81,.85,.63,.07,1.29-.22,1.66-.67,.18-.23,.28-.5,.26-.76,0-.26-.18-.49-.35-.74-.76-.95-1.62-1.72-2.31-2.37-1.41-1.28-2.3-2.05-2.26-2.11Z" style="fill:#ff9a6c;"></path></g><g><path d="M283.7,252.7s-1.07,1.44-1.02,2.44c.04,1,.81,1.03,2.98,2.11,2.17,1.08,5.62,1.11,5.81-.26,.19-1.36,.45-2.2-1.42-3.06s-5.56-2.25-6.35-1.23Z" style="fill:#ffbf9d;"></path><path d="M283.7,252.7s.03-.08,.15-.2c.13-.1,.36-.21,.67-.24,.62-.09,1.49,.04,2.52,.33,1.03,.3,2.22,.7,3.51,1.34,.32,.17,.65,.38,.92,.72,.28,.33,.4,.79,.39,1.2,0,.41-.08,.8-.13,1.19-.07,.54-.55,.88-.95,1.02-.84,.31-1.67,.28-2.45,.21-.78-.09-1.52-.27-2.19-.53-.68-.28-1.23-.6-1.81-.86-.55-.28-1.12-.46-1.55-.92-.42-.53-.27-1.12-.14-1.52,.14-.42,.32-.74,.48-.99,.32-.51,.55-.75,.58-.73,.03,.02-.14,.3-.4,.83-.13,.26-.28,.59-.38,.98-.1,.37-.15,.88,.14,1.2,1.63,.86,4.53,2.71,7.53,1.86,.34-.13,.6-.34,.63-.61,.05-.39,.12-.77,.13-1.12,.05-.7-.43-1.17-1.03-1.49-1.21-.62-2.4-1.08-3.39-1.4-.99-.32-1.83-.5-2.4-.48-.59-.01-.8,.28-.83,.24Z" style="fill:#ff9a6c;"></path></g><g><path d="M283.75,259.07s-.82,1.57-.78,2.57c.04,1,1,1.85,2.36,2.43,.46,.2,1.18,.12,1.96-.1,1.55-.44,3.3-1.46,3.59-2.1,.43-.96,.85-2.16-.11-2.59-.96-.43-6.46-1.24-7.02-.22Z" style="fill:#ffbf9d;"></path><path d="M283.75,259.07s.02-.08,.13-.21c.13-.1,.34-.21,.62-.29,.57-.14,1.42-.19,2.45-.13,1.03,.06,2.25,.17,3.6,.52,.33,.08,.79,.3,.95,.74,.17,.43,.09,.85,0,1.22-.1,.39-.24,.73-.41,1.1-.25,.43-.58,.65-.91,.89-.67,.46-1.38,.79-2.08,1.06-.71,.26-1.42,.46-2.16,.45-.37,.01-.77-.15-1.04-.3-.3-.15-.57-.31-.83-.49-.51-.36-.94-.81-1.14-1.34-.22-.53-.12-1.07-.02-1.46,.11-.4,.25-.73,.37-.99,.25-.52,.43-.79,.46-.77,.03,.02-.09,.31-.27,.85-.09,.27-.2,.6-.27,.99-.07,.39-.13,.83,.07,1.25,.19,.42,.57,.81,1.05,1.13,.24,.16,.5,.3,.78,.44,.3,.14,.53,.24,.85,.23,1.25-.05,2.68-.65,3.94-1.46,.3-.21,.62-.46,.74-.69,.15-.32,.29-.67,.38-1,.09-.33,.13-.67,.03-.91-.09-.25-.32-.38-.63-.47-1.26-.35-2.49-.51-3.49-.61-1.01-.1-1.83-.11-2.38-.03-.28,.04-.47,.11-.6,.17-.1,.09-.17,.13-.19,.13Z" style="fill:#ff9a6c;"></path></g><g><path d="M287.58,264.31c-.13,.12-.48,1.14,.09,2,.57,.86,1.6,.59,3.07,.28,1.47-.31,3.77-2.88,2.91-3.73-.86-.85-3.34-.97-6.07,1.45Z" style="fill:#ffbf9d;"></path><path d="M287.58,264.31s.14-.21,.46-.52c.34-.29,.84-.7,1.56-1.07,.71-.36,1.65-.72,2.77-.63,.28,.03,.56,.08,.84,.2,.28,.13,.55,.24,.78,.61,.18,.38,.08,.74-.02,1.04-.11,.31-.28,.57-.46,.84-.37,.51-.8,.94-1.27,1.3-.46,.35-.98,.67-1.55,.76-.51,.1-1,.2-1.48,.24-.47,.04-1-.01-1.36-.31-.69-.62-.66-1.41-.58-1.84,.08-.45,.28-.66,.31-.63,.02,.02-.09,.23-.11,.65-.03,.4,.06,1.09,.61,1.52,.55,.4,1.53,.11,2.52-.1,.91-.21,1.81-1,2.49-1.9,.31-.44,.59-1.02,.45-1.34-.05-.13-.31-.3-.52-.39-.22-.1-.46-.15-.7-.18-.97-.11-1.87,.18-2.56,.49-1.4,.64-2.12,1.33-2.18,1.26Z" style="fill:#ff9a6c;"></path></g><g><path d="M289.4,243.83s-.38-1.99,.95-2.46c1.34-.47,2.71,2.59,3.19,4.16,.48,1.57-4.14-1.7-4.14-1.7Z" style="fill:#ffbf9d;"></path><path d="M289.4,243.83c.04-.06,.69,.33,1.76,.93,.53,.29,1.18,.67,1.89,.9,.16,.08,.41,.01,.28,.07,.02,.03-.06-.25-.13-.44-.14-.41-.31-.83-.5-1.24-.38-.83-.81-1.61-1.35-2.13-.27-.26-.57-.41-.83-.36-.28,.05-.54,.23-.69,.45-.31,.45-.35,.97-.38,1.29-.02,.34-.02,.53-.05,.53-.03,0-.11-.18-.15-.53-.03-.34-.07-.89,.27-1.5,.18-.3,.48-.57,.91-.67,.46-.1,.92,.14,1.23,.43,.65,.6,1.1,1.41,1.5,2.27,.2,.44,.37,.87,.51,1.3l.1,.32c.02,.14,.09,.26,0,.5-.13,.26-.4,.26-.51,.25-.14,0-.25-.04-.36-.07-.82-.3-1.42-.71-1.95-1.05-1.03-.69-1.61-1.19-1.57-1.25Z" style="fill:#ff9a6c;"></path></g><path d="M328.31,252.61s.63,14.14,1.66,14.89c1.03,.75,40.88,1.67,43.95-.8,3.08-2.47,40.5-42.75,41.18-45.46,.68-2.71-9.35-18.02-14.17-19.2-4.82-1.18-44.88,47.81-44.88,47.81l-27.74,2.77Z" style="fill:#e0e0e0;"></path><path d="M390.59,210.32s-.15,.23-.49,.63c-.37,.44-.86,1.02-1.47,1.75-1.33,1.55-3.2,3.72-5.49,6.38-4.7,5.39-11.14,12.77-18.25,20.92-3.03,3.44-5.93,6.75-8.59,9.77l-.06,.07h-.09c-7.59,.8-14.1,1.47-18.78,1.95-2.27,.22-4.1,.39-5.41,.52-.59,.05-1.07,.09-1.44,.12-.33,.02-.5,.03-.5,.01,0-.01,.17-.05,.49-.1,.37-.05,.84-.11,1.44-.2,1.31-.16,3.13-.38,5.39-.66,4.67-.53,11.17-1.27,18.75-2.13l-.15,.08c2.65-3.03,5.55-6.34,8.57-9.79,7.16-8.11,13.64-15.46,18.37-20.82,2.34-2.62,4.25-4.75,5.61-6.27,.65-.7,1.16-1.27,1.55-1.69,.36-.38,.55-.58,.57-.57Z" style="fill:#263238;"></path><path d="M410.53,204.24c-.04,.16-2.52-.64-5.64-.36-3.12,.24-5.43,1.44-5.5,1.28-.08-.09,2.21-1.55,5.46-1.8,3.25-.29,5.75,.77,5.68,.87Z" style="fill:#263238;"></path><path d="M402.68,241.22s-.38,.44-1.15,1.16c-.76,.73-1.88,1.75-3.27,3.01-2.79,2.51-6.72,5.89-11.19,9.48-4.46,3.59-8.61,6.71-11.66,8.9-1.52,1.1-2.77,1.97-3.64,2.56-.87,.59-1.36,.9-1.38,.87-.02-.03,.43-.4,1.26-1.03,.91-.69,2.1-1.59,3.54-2.69,2.99-2.27,7.09-5.43,11.55-9.01,4.45-3.59,8.42-6.92,11.27-9.35,1.37-1.17,2.51-2.14,3.38-2.88,.8-.68,1.26-1.04,1.28-1.01Z" style="fill:#263238;"></path><path d="M401.88,196.04s-.25,.22-.76,.54c-.51,.32-1.25,.75-2.19,1.27-1.87,1.03-4.5,2.36-7.43,3.76-2.93,1.4-5.58,2.67-7.49,3.62-1.91,.94-3.08,1.54-3.12,1.48-.02-.03,.25-.22,.76-.54,.51-.32,1.25-.75,2.19-1.27,1.87-1.03,4.5-2.36,7.43-3.76,2.93-1.4,5.58-2.67,7.49-3.62,1.91-.94,3.08-1.54,3.12-1.48Z" style="fill:#263238;"></path></g><path d="M384.74,179.43c0-.1,.86,.21,2-.36,.55-.28,1.12-.81,1.41-1.57,.29-.75,.34-1.73-.04-2.56-.19-.41-.51-.73-.88-.8-.36-.08-.76,.1-1.13,.31-.71,.4-1.38,.79-2.01,1.15-1.16,.64-1.89,1.01-1.92,.95-.04-.06,.63-.54,1.73-1.26,.62-.39,1.27-.81,1.96-1.25,.38-.22,.86-.49,1.46-.39,.59,.1,1.02,.58,1.25,1.07,.46,1.02,.38,2.11,.02,2.97-.36,.87-1.06,1.46-1.7,1.72-.65,.28-1.23,.29-1.6,.23-.38-.06-.57-.17-.56-.2Z" style="fill:#263238;"></path><path d="M422.31,199.4s0-.28,.02-.81c.04-.58,.1-1.35,.16-2.32,.14-2.01,.37-4.93,.39-8.53,0-3.59-.21-7.92-1.5-12.49-.64-2.28-1.59-4.59-2.85-6.84-1.25-2.25-2.84-4.42-4.61-6.51-3.58-4.16-7.61-7.55-11.32-10.53-3.73-2.97-7.14-5.6-9.87-7.97-2.74-2.36-4.82-4.43-6.17-5.93-.67-.76-1.18-1.35-1.51-1.77-.33-.42-.5-.64-.49-.65s.21,.19,.57,.58c.35,.4,.88,.97,1.58,1.7,1.39,1.46,3.5,3.48,6.26,5.79,2.76,2.32,6.18,4.92,9.93,7.87,3.74,2.96,7.8,6.36,11.42,10.56,1.79,2.11,3.4,4.3,4.66,6.6,1.27,2.29,2.23,4.64,2.87,6.96,1.29,4.65,1.45,9.01,1.41,12.62-.07,3.62-.35,6.53-.55,8.54-.11,.97-.2,1.74-.26,2.31-.07,.53-.11,.8-.13,.8Z" style="fill:#455a64;"></path><path d="M355.95,417.69s.12,.37,.23,1.07c.12,.69,.25,1.7,.39,2.94,.26,2.49,.47,5.96,.3,9.79-.17,3.83-.67,7.27-1.14,9.73-.24,1.23-.45,2.22-.63,2.9-.17,.68-.28,1.05-.32,1.04-.04,0,0-.39,.12-1.08,.13-.8,.28-1.78,.46-2.92,.38-2.47,.82-5.89,.98-9.69,.17-3.8,.02-7.24-.15-9.73-.17-2.49-.34-4.03-.25-4.04Z" style="fill:#ff9a6c;"></path></g></g><g id="Character_1"><g><g><path d="M114.04,346.24v78.54h-9.93v-76.19l9.93-2.35Z" style="fill:#e0e0e0;"></path><path d="M114.04,346.24s-.23,.07-.66,.18c-.45,.11-1.09,.27-1.91,.48-1.69,.42-4.14,1.02-7.33,1.81l.09-.12c.08,14.1,.14,42.9,.14,76.19l-.26-.26h1.03c3.05,0,6.06,0,8.89,0l-.26,.26c.05-22.04,.09-41.63,.12-55.73,.03-7.05,.06-12.73,.08-16.68,.01-1.95,.02-3.47,.03-4.53,0-.5,.01-.9,.02-1.18,0-.27,.01-.41,.02-.42s.01,.12,.02,.38l.02,1.15c0,1.04,.02,2.54,.03,4.46,.02,3.93,.04,9.59,.08,16.61,.03,14.16,.07,33.82,.12,55.95v.26h-.26c-2.84,0-5.85,0-8.89,0h-1.29v-.26c0-33.29,.06-62.1,.14-76.19v-.1l.09-.02c3.24-.73,5.73-1.3,7.44-1.69,.81-.18,1.44-.32,1.89-.42,.42-.09,.62-.13,.62-.13Z" style="fill:#263238;"></path></g><g><rect x="103.52" y="401.8" width="11.52" height="19.1" style="fill:#263238;"></rect><path d="M42.98,435.72s31.31-14.62,66.1-16.87v10.12s-45.37,4.18-62.24,10.12v2.25h-3.85v-5.62Z" style="fill:#263238;"></path><path d="M175.17,435.72s-31.31-14.62-66.1-16.87v10.12s45.37,4.18,62.24,10.12v5.78h3.85v-9.16Z" style="fill:#263238;"></path><path d="M106.83,418.55c-.26,.09-16.12,16.55-17.25,22.68l-.29,9.21,3.53-2.03v-2.72s12.09-15.65,18.04-16.5v-10.65h-4.03Z" style="fill:#263238;"></path><path d="M101.27,454.28c-.33-.02-.59-.32-.93-.71-.33-.39-.72-.86-1.26-1.33-.54-.46-1.24-.93-2.06-1.24-.41-.15-.84-.28-1.29-.33-.46-.06-.95-.08-1.46-.03-1.02,.08-2.01,.39-2.85,.79-.84,.42-1.49,.89-2.04,1.42-1.09,1.05-1.65,2.13-2.3,2.1-.31-.02-.62-.34-.78-.99-.16-.64-.15-1.62,.25-2.74,.39-1.12,1.27-2.39,2.54-3.35,1.27-.96,2.93-1.67,4.8-1.83,.93-.08,1.87,0,2.75,.21,.9,.21,1.7,.58,2.39,1.02,1.39,.88,2.32,2.09,2.79,3.22,.48,1.14,.48,2.19,.29,2.85-.09,.33-.23,.57-.39,.73-.15,.15-.31,.22-.46,.21Z" style="fill:#263238;"></path><circle cx="94.19" cy="455.27" r="6.2" style="fill:#263238;"></circle><path d="M51.84,446.85c-.33-.02-.59-.32-.93-.71-.33-.39-.72-.87-1.26-1.33-.54-.46-1.24-.93-2.06-1.24-.41-.15-.84-.28-1.29-.33-.46-.06-.95-.08-1.46-.03-1.02,.08-2.01,.39-2.85,.79-.84,.42-1.49,.89-2.04,1.42-1.09,1.05-1.65,2.13-2.3,2.1-.31-.02-.62-.34-.78-.99-.16-.64-.15-1.62,.25-2.74,.39-1.11,1.27-2.39,2.54-3.35,1.27-.96,2.93-1.67,4.8-1.83,.93-.08,1.87,0,2.75,.21,.9,.21,1.7,.58,2.39,1.02,1.39,.88,2.32,2.09,2.79,3.22,.48,1.14,.48,2.19,.29,2.85-.09,.33-.23,.57-.39,.73-.15,.15-.31,.22-.46,.21Z" style="fill:#263238;"></path><path d="M50.96,447.84c0,3.42-2.78,6.2-6.2,6.2s-6.2-2.78-6.2-6.2,2.78-6.2,6.2-6.2,6.2,2.78,6.2,6.2Z" style="fill:#263238;"></path><path d="M181.24,448.59c-.33-.02-.59-.32-.93-.71-.33-.39-.72-.86-1.26-1.33-.54-.46-1.24-.93-2.06-1.24-.41-.15-.84-.28-1.29-.33-.46-.06-.95-.08-1.46-.03-1.02,.08-2.01,.39-2.85,.79-.84,.42-1.49,.89-2.04,1.42-1.09,1.05-1.65,2.13-2.3,2.1-.31-.02-.62-.34-.78-.99-.16-.64-.15-1.62,.25-2.74,.39-1.11,1.27-2.39,2.54-3.35,1.27-.96,2.93-1.67,4.8-1.83,.93-.08,1.87,0,2.75,.21,.9,.21,1.7,.58,2.39,1.02,1.39,.88,2.32,2.09,2.79,3.22,.48,1.14,.48,2.19,.29,2.85-.09,.33-.23,.57-.39,.73-.15,.15-.31,.22-.46,.21Z" style="fill:#263238;"></path><path d="M180.35,449.58c0,3.42-2.78,6.2-6.2,6.2s-6.2-2.78-6.2-6.2,2.78-6.2,6.2-6.2,6.2,2.78,6.2,6.2Z" style="fill:#263238;"></path><path d="M106.56,419.09s-.15,.19-.46,.5c-.31,.31-.76,.75-1.3,1.31-1.09,1.11-2.55,2.69-4.11,4.48-1.56,1.79-2.92,3.46-3.89,4.68-.45,.57-.84,1.05-1.15,1.44-.27,.34-.43,.52-.45,.51-.02-.01,.11-.22,.35-.58,.24-.36,.61-.88,1.08-1.5,.93-1.25,2.27-2.94,3.83-4.74,1.56-1.8,3.06-3.36,4.19-4.43,.56-.54,1.04-.96,1.37-1.24,.34-.28,.53-.43,.54-.41Z" style="fill:#455a64;"></path><path d="M111.59,420.03s.14,.45,.23,1.21c.08,.75,.14,1.8,.09,2.96-.05,1.16-.2,2.2-.35,2.94-.15,.74-.29,1.19-.33,1.18-.09-.02,.28-1.85,.37-4.14,.11-2.29-.1-4.14,0-4.15Z" style="fill:#455a64;"></path></g><g><path d="M204.72,396.25l-4.67,29.11s29.71,14.55,29.4,20.01l-60-7.08,7.74-45.36,27.52,3.32Z" style="fill:#263238;"></path><path d="M169.46,438.29l.73-4.58,57.25,8.5s2.54,1.42,2.02,3.16l-60-7.08Z" style="fill:#455a64;"></path><path d="M201.06,425.18c-.04,.28-1.52,.23-3.07,.95-1.57,.68-2.46,1.8-2.72,1.65-.26-.09,.38-1.69,2.27-2.53,1.88-.86,3.62-.32,3.52-.07Z" style="fill:#fff;"></path><path d="M207.05,428.39c.03,.28-1.29,.6-2.43,1.65-1.17,1.02-1.58,2.26-1.87,2.21-.28,.01-.29-1.64,1.16-2.92,1.43-1.3,3.17-1.21,3.14-.95Z" style="fill:#fff;"></path><path d="M209.76,435.94c-.27,.03-.51-1.41,.42-2.83,.93-1.44,2.38-1.87,2.48-1.63,.14,.25-.85,.96-1.6,2.14-.78,1.17-1.01,2.33-1.3,2.32Z" style="fill:#fff;"></path><path d="M201.35,418.43c-.15,.24-1.45-.3-3.12-.39-1.67-.12-3.02,.25-3.14,0-.15-.22,1.24-1.1,3.2-.97,1.96,.12,3.23,1.16,3.06,1.36Z" style="fill:#fff;"></path></g><g><path d="M186.18,411.89l-11.02,25.89s24.18,20.31,22.63,25.3l-53.95-20.36,15.42-41.07,26.92,10.24Z" style="fill:#263238;"></path><path d="M143.85,442.72l1.73-4.08,51.08,21.05s2.02,1.89,1.14,3.39l-53.95-20.36Z" style="fill:#455a64;"></path><path d="M176.14,437.84c-.1,.25-1.46-.14-3.07,.17-1.61,.27-2.69,1.1-2.9,.91-.22-.14,.74-1.48,2.68-1.82,1.94-.36,3.42,.54,3.28,.74Z" style="fill:#fff;"></path><path d="M180.95,442.19c-.03,.26-1.33,.26-2.63,.97-1.32,.68-1.98,1.73-2.24,1.62-.26-.05,.11-1.58,1.74-2.44,1.62-.87,3.21-.39,3.13-.15Z" style="fill:#fff;"></path><path d="M181.72,449.81c-.26-.04-.15-1.42,1.05-2.53,1.19-1.12,2.64-1.19,2.67-.94,.07,.26-1.01,.69-1.98,1.62-.99,.9-1.47,1.92-1.74,1.85Z" style="fill:#fff;"></path></g><path d="M121.09,289.76c3.14-.72,67.76,7.87,78.86,10.75,7.86,2.04,14.63,9.03,14.19,22.03-1.13,33.12-10.05,93.82-10.05,93.82l-30.87-4.95s2.25-16.34,3.62-55.07c.41-11.62,4.43-22.04,4.43-22.04l-59.67-11.98-.52-32.55Z" style="fill:#263238;"></path><g><path d="M136.1,294.07c1.46,.64,68.89,9.45,74.96,23.62,3.61,8.43-5.88,36.9-10,50.92-4.34,14.79-20.78,63.75-20.78,63.75l-32.86-9.4,24.8-81.87s-44.53-1.69-45.4-1.69-27.51-1.76-35.96-2.72c-2.3-.26-4.55-1.67-6.6-3.53-5.65-5.15-8.65-12.6-8.65-20.25v-21.76l52.93-8.45,7.56,11.36Z" style="fill:#263238;"></path><path d="M180.6,432.97l-33.81-9.67,24.75-81.74c-5.49-.21-43.93-1.67-44.74-1.67-1.13,0-27.8-1.79-36.01-2.72-2.17-.25-4.49-1.48-6.88-3.66-5.6-5.11-8.81-12.62-8.81-20.61v-22.19l53.67-8.56,7.63,11.48c.51,.12,2.25,.4,4.38,.76,16.19,2.67,65.45,10.78,70.73,23.1,3.23,7.55-3.66,30.33-8.23,45.41-.64,2.13-1.24,4.1-1.75,5.85-4.3,14.63-20.62,63.28-20.79,63.77l-.15,.45Zm-32.56-10.35l31.91,9.13c1.67-4.99,16.56-49.43,20.62-63.28,.51-1.75,1.11-3.72,1.76-5.85,4.52-14.94,11.35-37.52,8.26-44.73-3.36-7.84-26.9-15.41-69.97-22.5-3.39-.56-4.47-.74-4.74-.86l-.13-.06-7.46-11.22-52.19,8.33v21.33c0,7.71,3.09,14.96,8.49,19.88,2.23,2.04,4.36,3.18,6.32,3.4,8.7,.99,35.2,2.71,35.9,2.71,.88,0,43.6,1.62,45.42,1.69l.65,.03-.19,.62-24.65,81.39Z" style="fill:#455a64;"></path></g><g><path d="M168.94,142.61c2.63,.69,5.64-.66,6.87-3.09,.37-.73,.59-1.57,.42-2.37-.17-.8-.79-1.54-1.59-1.67,1.17-.62,2.13-1.68,2.48-2.95,.36-1.27,.06-2.74-.87-3.69-.92-.95-2.47-1.27-3.64-.66,.19-1.42-.51-2.91-1.72-3.67l-5.94,.65,3.99,17.44Z" style="fill:#263238;"></path><path d="M148.89,195.83l6.21-10.79s12.33-.55,13.81-12.65c.72-5.84,1.21-18,1.54-29,.35-11.83-8.45-21.94-20.22-23.24l-1.17-.13c-12.69-.65-20.33,9.76-20.63,22.46l-.5,37.27,19.53,18,1.42-1.92Z" style="fill:#ae7461;"></path><path d="M155.11,185.04s-7.71-.2-15.43-5.1c0,0,1.44,7.95,13.65,8.19l1.78-3.09Z" style="fill:#6f4439;"></path><path d="M165.82,154.8c-.07,.92-.9,1.62-1.86,1.56-.96-.05-1.68-.84-1.61-1.76,.07-.92,.9-1.62,1.86-1.56,.96,.05,1.68,.84,1.61,1.76Z" style="fill:#263238;"></path><path d="M167.2,149.03c-.24,.2-1.44-.91-3.31-1.11-1.86-.23-3.33,.58-3.51,.33-.09-.11,.18-.5,.82-.86,.63-.37,1.68-.68,2.84-.54,1.16,.13,2.09,.67,2.6,1.17,.52,.5,.67,.93,.56,1.02Z" style="fill:#263238;"></path><path d="M149.8,152.91c-.07,.92-.9,1.62-1.86,1.56-.96-.05-1.68-.84-1.61-1.76,.07-.92,.9-1.62,1.86-1.56,.96,.05,1.68,.84,1.61,1.76Z" style="fill:#263238;"></path><path d="M148.86,147.36c-.24,.2-1.45-.91-3.31-1.11-1.86-.23-3.33,.58-3.51,.33-.09-.11,.17-.5,.82-.86,.63-.37,1.68-.68,2.84-.54,1.16,.13,2.09,.67,2.6,1.17,.52,.5,.67,.93,.56,1.02Z" style="fill:#263238;"></path><path d="M154.09,161.92c0-.11,1.18-.18,3.08-.21,.48,0,.94-.04,1.06-.36,.15-.33,0-.87-.16-1.44-.32-1.2-.65-2.46-1.01-3.77-1.38-5.37-2.33-9.76-2.11-9.82,.22-.05,1.52,4.25,2.9,9.62,.33,1.32,.65,2.58,.95,3.79,.12,.56,.36,1.21,.04,1.89-.17,.34-.54,.56-.86,.61-.31,.06-.58,.04-.82,.02-1.9-.11-3.07-.23-3.07-.33Z" style="fill:#263238;"></path><path d="M148.47,162.6c.3,.02,.09,2.04,1.66,3.66,1.57,1.63,3.75,1.64,3.73,1.92,.01,.13-.52,.34-1.44,.26-.9-.07-2.17-.5-3.13-1.49-.96-1-1.28-2.22-1.26-3.06,.02-.85,.3-1.33,.43-1.3Z" style="fill:#263238;"></path><path d="M150.14,140.12c-.24,.49-2.07,.04-4.28,.06-2.21-.02-4.05,.42-4.29-.06-.11-.23,.25-.67,1.02-1.09,.76-.41,1.94-.75,3.26-.75,1.33,0,2.5,.34,3.26,.75,.77,.41,1.13,.85,1.02,1.08Z" style="fill:#263238;"></path><path d="M167.11,143.57c-.37,.39-1.61-.19-3.15-.38-1.53-.24-2.88-.03-3.13-.51-.11-.23,.14-.63,.76-.97,.61-.34,1.58-.56,2.64-.41,1.06,.15,1.93,.63,2.42,1.13,.5,.49,.63,.95,.46,1.14Z" style="fill:#263238;"></path><path d="M169.9,137.71s-2.36-7.94-5.82-10.11c-4.19-2.63-6.64,2.02-10.73,.38-4.09-1.65-8.09-4.17-12.77-1.38-5.11,3.05-3.18,5.8-4.06,11.14-3.58,21.66-8.24,27.39-8.24,17,0-1.14-3.02-2.38-2.96-7.18,.08-6.23,.67-13.73,2.52-17.96,1.57-3.56,3.95-5.87,8.02-8.26,6.44-3.78,14.62-2.97,20.1-1.8,5.49,1.17,15.48,8.73,13.93,18.18Z" style="fill:#263238;"></path><path d="M129.09,154.49c.13-1.88-1.32-3.53-3.2-3.56-2.28-.03-4.94,.97-5.3,5.66-.65,8.31,7.83,7.25,7.86,7.01,.02-.16,.4-5.63,.64-9.11Z" style="fill:#ae7461;"></path><path d="M126.88,160.33s-.15,.09-.41,.18c-.25,.09-.66,.13-1.08-.06-.85-.39-1.48-1.84-1.41-3.34,.04-.76,.25-1.47,.57-2.04,.3-.59,.73-.98,1.18-1.03,.45-.07,.74,.22,.82,.46,.09,.24,.03,.4,.07,.42,.02,.02,.19-.13,.15-.47-.02-.17-.1-.37-.29-.55-.19-.18-.47-.28-.78-.27-.64,0-1.27,.54-1.61,1.17-.38,.63-.64,1.43-.68,2.28-.08,1.68,.66,3.31,1.83,3.75,.57,.2,1.07,.06,1.34-.12,.27-.19,.33-.37,.3-.39Z" style="fill:#6f4439;"></path><path d="M158.73,134.93s.04,.01,.06,.01c.05,0,.1,.01,.15,.03l-.21-.04Z" style="fill:#FF725E;"></path><path d="M175.48,122.15c-.51-2.18-2.36-3.88-4.45-4.67-2.1-.78-4.42-.76-6.63-.41,.46-3-2.65-5.57-5.68-5.72-3.03-.15-5.85,1.38-8.5,2.86-3.48-2.56-9.09-1.35-11.21,2.42-2.09-1.39-4.93-1.57-7.17-.45-2.25,1.12-3.82,3.49-3.97,5.99-2,.22-3.82,1.6-4.57,3.47-.75,1.86-.38,4.13,.92,5.66-1.46,.77-2.33,2.53-2.04,4.16,.29,1.63,1.71,2.99,3.35,3.21l6.45-4.84c3.24,.85,6.95-1.62,7.4-4.95,2.44,1.18,5.57,.73,7.58-1.1,.42,1.59,1.68,2.94,3.24,3.47,1.56,.53,3.38,.23,4.69-.77,.03,2.25,1.45,4.42,3.51,5.34,2.05,.92,4.62,.53,6.32-.95,1.94,1.9,5.37,1.98,7.4,.18,2.03-1.81,2.34-5.23,.68-7.38,2.11-.76,3.21-3.33,2.7-5.52Z" style="fill:#263238;"></path><path d="M138.83,130.22s0,.26-.21,.67c-.2,.41-.6,.98-1.29,1.47-.68,.49-1.71,.89-2.88,.74-1.15-.13-2.4-.77-3.18-1.94l.48,.02c-.46,.57-1.06,1.05-1.75,1.38-1.48,.71-3.18,.7-4.47,.09-1.31-.6-2.11-1.7-2.51-2.66-.41-.98-.43-1.85-.37-2.43,.07-.58,.22-.87,.25-.86,.12,0-.32,1.31,.52,3.12,.42,.86,1.18,1.83,2.35,2.32,1.15,.51,2.66,.5,3.98-.13,.62-.3,1.15-.72,1.55-1.21l.26-.32,.22,.34c.65,1.01,1.74,1.6,2.75,1.74,1.02,.16,1.94-.15,2.6-.55,1.33-.85,1.63-1.88,1.72-1.82Z" style="fill:#455a64;"></path></g><g><path d="M116.18,186s-14.04,9.16-22.88,27.47c-8.85,18.31-21.04,70.01-21.65,73.79-.61,3.79,11.9,13.26,30.82,12,18.92-1.26,32.53-5.45,34.05-9.55,1.53-4.1,16.28-63.61,16.58-68.66,.31-5.05-4.58-16.73-4.58-16.73l2.14-7.26s-16.8-18.94-21.07-20.84c-4.27-1.89-6.69,5.68-6.69,5.68l-6.71,4.1Z" style="fill:#FF725E;"></path><path d="M114.16,231.94s49.54,34.95,58.25,34.63c8.71-.32,28.72-38.08,27.43-43.88-1.29-5.81-12.26-6.45-12.26-6.45l-16.78,19.68s-18.07-27.11-23.23-31.62c-5.16-4.52-14.2-12.91-23.23-3.87s-11.3,26.58-10.17,31.52Z" style="fill:#FF725E;"></path><path d="M188.11,214.67s-.56-8.21-.9-9.11c-.34-.9-.9-3.15-.9-3.15l2.81,.45s5.85-10.46,7.2-10.91,2.93,1.46,2.93,1.46l2.59,1.01s3.71-4.61,5.18-3.71c1.46,.9,2.14,3.49,2.14,3.49l-1.46,5.29s4.16-3.15,5.51-2.25,1.8,2.25,.9,4.72l-3.15,3.38s2.96-.34,3.62,.79c.66,1.13,.09,2.25-.47,2.81-.56,.56-2.81,.68-2.81,.68,0,0-9.23,8.66-9.9,9.23-.67,.56-2.36,4.16-2.36,4.16l-12.04-4.84,1.13-3.49Z" style="fill:#ae7461;"></path><g><path d="M186.31,202.4s-2.21-.08-1.61-1.76c.6-1.68,1.21-2.15,2.69-2.35,1.48-.2,2.95-.74,3.42,.81,.47,1.54-2.36,3.99-4.5,3.31Z" style="fill:#ae7461;"></path><path d="M186.31,202.4c0-.1,1,.27,2.34-.47,.64-.35,1.38-.94,1.79-1.78,.47-.81-.08-2.04-1.24-1.85-.55,.02-1.11,.15-1.68,.23-.54,.07-1.04,.17-1.43,.41-.76,.47-1.11,1.46-1.3,2.09-.14,.7,.51,1.04,.88,1.16,.4,.14,.63,.17,.63,.21,0,.03-.25,.07-.69-.02-.22-.05-.49-.13-.77-.34-.28-.2-.49-.63-.43-1.07,.07-.44,.23-.82,.42-1.26,.2-.42,.5-.89,.99-1.2,.48-.31,1.06-.43,1.61-.5,.54-.08,1.1-.22,1.73-.24,.31-.01,.65,.01,.97,.14,.32,.13,.58,.4,.73,.68,.15,.27,.24,.59,.23,.91,0,.32-.11,.6-.23,.85-.52,.99-1.34,1.56-2.06,1.9-.73,.34-1.4,.41-1.85,.35-.45-.05-.66-.19-.65-.21Z" style="fill:#6f4439;"></path></g><g><path d="M198.89,193.03s.91-2.05,2.19-1.92c1.28,.13,2.42,.21,2.69,1.92,.27,1.71-1.58,9.09-2.44,9.5-.85,.4-3.41,.33-3.27-2.69,.13-3.02,.84-6.81,.84-6.81Z" style="fill:#ae7461;"></path><path d="M198.89,193.03s0,.41-.09,1.13c-.08,.72-.22,1.76-.34,3.05-.06,.64-.12,1.35-.16,2.11-.05,.76-.06,1.56,.35,2.23,.38,.67,1.25,1,2.09,.88,.19-.03,.46-.08,.52-.18,.09-.09,.22-.32,.31-.52,.2-.42,.36-.88,.52-1.34,.6-1.87,1.03-3.71,1.31-5.38,.12-.84,.26-1.64,.06-2.32-.16-.71-.7-1.11-1.31-1.23-.3-.07-.6-.11-.89-.15-.3-.05-.51-.04-.74,.05-.43,.18-.74,.51-.97,.78-.45,.55-.62,.92-.66,.9-.03-.01,.08-.41,.5-1.03,.21-.3,.51-.68,1.02-.92,.24-.13,.61-.15,.88-.11,.29,.03,.61,.05,.94,.12,.33,.07,.69,.19,1.01,.45,.31,.25,.52,.63,.64,1.02,.24,.8,.1,1.67,0,2.51-.26,1.71-.68,3.57-1.29,5.47-.16,.47-.32,.94-.54,1.4-.12,.23-.2,.45-.44,.69-.28,.25-.52,.24-.78,.3-1,.14-2.09-.28-2.57-1.13-.49-.83-.43-1.77-.37-2.51,.06-.77,.14-1.48,.23-2.12,.17-1.29,.36-2.33,.51-3.04,.15-.71,.25-1.1,.29-1.1Z" style="fill:#6f4439;"></path></g><g><path d="M210.08,193.46s-1.48,.74-2.28,1.54-4.58,6.71-4,8.59c.58,1.88,1.95,1.95,3.11,1.07,1.16-.87,5.66-6.14,6.13-7.77,.47-1.63-.87-3.98-2.95-3.44Z" style="fill:#ae7461;"></path><path d="M210.08,193.46s.1-.05,.31-.11c.21-.04,.54-.08,.95,.04,.81,.19,1.88,1.19,1.96,2.74,.02,.38-.04,.8-.22,1.19-.17,.37-.38,.74-.61,1.1-.46,.72-1,1.46-1.59,2.22-.59,.76-1.23,1.53-1.92,2.31-.35,.39-.7,.78-1.08,1.17-.38,.38-.78,.8-1.32,1.08-.52,.27-1.21,.39-1.8,.11-.59-.28-.91-.83-1.11-1.33-.1-.24-.17-.55-.17-.84,.01-.28,.04-.55,.11-.8,.11-.51,.29-.98,.47-1.43,.76-1.78,1.66-3.26,2.46-4.47,.41-.6,.78-1.14,1.2-1.57,.44-.4,.86-.66,1.21-.87,.7-.41,1.12-.57,1.14-.54,.02,.03-.37,.26-1.03,.71-.33,.23-.73,.51-1.12,.91-.36,.4-.72,.96-1.1,1.56-.75,1.22-1.62,2.7-2.33,4.44-.16,.44-.33,.89-.42,1.36-.06,.23-.08,.47-.09,.7,0,.22,.04,.42,.14,.66,.18,.44,.45,.87,.86,1.05,.4,.19,.9,.12,1.34-.11,.45-.23,.81-.6,1.19-.98,.37-.38,.73-.76,1.07-1.15,.69-.77,1.33-1.53,1.92-2.27,.59-.74,1.14-1.46,1.6-2.15,.47-.7,.87-1.35,.83-2.04-.03-1.38-.94-2.34-1.65-2.56-.74-.25-1.2-.05-1.2-.12Z" style="fill:#6f4439;"></path></g><g><path d="M214.24,201.54s-2.15,.24-4.23,2.05c-2.08,1.81-4.1,2.82-4.03,4.1,.07,1.28,.74,2.15,2.15,2.01,1.41-.13,7.32-3.69,7.72-5.1,.4-1.41-.07-3.23-1.61-3.06Z" style="fill:#ae7461;"></path><path d="M214.24,201.54s.42-.23,1.08,.18c.65,.42,1.02,1.59,.72,2.86-.23,.71-.8,1.15-1.34,1.65-.57,.48-1.21,.94-1.9,1.41-.69,.46-1.44,.91-2.23,1.34-.4,.21-.81,.42-1.25,.61-.42,.18-.92,.39-1.45,.39-.51,0-1.09-.15-1.47-.54-.39-.38-.57-.89-.64-1.37-.04-.23-.06-.48,0-.75,.05-.26,.18-.48,.31-.68,.28-.39,.6-.68,.92-.95,.65-.54,1.29-.99,1.86-1.43,.58-.44,1.08-.89,1.6-1.26,1.04-.74,2.01-1.11,2.69-1.3,.68-.18,1.08-.19,1.08-.15,.04,.08-1.58,.26-3.55,1.75-.48,.37-.98,.85-1.56,1.31-.57,.47-1.2,.93-1.82,1.46-.6,.53-1.26,1.13-1.04,1.94,.06,.41,.22,.8,.49,1.07,.27,.28,.68,.39,1.11,.39,.42,0,.82-.17,1.25-.34,.42-.18,.82-.38,1.21-.58,.78-.41,1.52-.85,2.21-1.3,.69-.44,1.33-.88,1.89-1.34,.54-.45,1.1-.92,1.26-1.41,.32-1.14,.03-2.21-.49-2.6-.52-.4-.98-.27-.96-.34Z" style="fill:#6f4439;"></path></g><g><path d="M207.74,212.93s-.04,.97,.69,1.48c.73,.51,1.91-.55,2.83-1.48,.92-.93,2.19-1.72,2.1-2.67-.09-.94-1.28-1.16-2.07-.66-.8,.5-3.55,3.33-3.55,3.33Z" style="fill:#ae7461;"></path><path d="M207.74,212.93c-.05-.05,.53-.74,1.54-1.79,.53-.52,1.08-1.15,1.92-1.76,.47-.28,1.08-.4,1.67-.16,.63,.22,.94,1.1,.63,1.7-.28,.59-.72,.96-1.11,1.32-.4,.35-.77,.67-1.11,1.01-.71,.66-1.37,1.29-2.2,1.47-.21,.03-.43,.01-.61-.08-.19-.1-.29-.22-.4-.33-.2-.25-.3-.5-.34-.71-.09-.42-.03-.65,0-.65,.04,0,.05,.23,.19,.59,.07,.18,.18,.39,.37,.58,.2,.19,.42,.32,.73,.24,.62-.16,1.27-.78,1.93-1.44,.33-.35,.72-.7,1.1-1.04,.37-.35,.78-.72,.97-1.14,.19-.41,.02-.87-.36-1.02-.38-.17-.87-.1-1.22,.1-.73,.5-1.37,1.14-1.91,1.61-1.07,.98-1.74,1.58-1.8,1.53Z" style="fill:#6f4439;"></path></g><path d="M167.62,253.12c-.07,0,0-.99,.18-2.56,.19-1.57,.51-3.73,.95-6.1,.44-2.37,.91-4.5,1.3-6.04,.39-1.53,.68-2.47,.74-2.45,.07,.02-.09,.98-.38,2.53-.33,1.73-.72,3.78-1.15,6.05-.41,2.27-.78,4.33-1.09,6.06-.28,1.55-.47,2.51-.55,2.5Z" style="fill:#263238;"></path><path d="M173,248.46c-.15,0-.26-2.61-.64-5.79-.37-3.19-.87-5.75-.72-5.78,.13-.03,.86,2.5,1.24,5.72,.38,3.22,.26,5.86,.12,5.85Z" style="fill:#263238;"></path><path d="M150.77,197.58s-.55,.21-1.49,.67c-.93,.47-2.24,1.27-3.43,2.68l-.14,.17-.15-.16c-2.05-2.22-4.82-5.11-7.99-8.12-3.49-3.33-6.81-6.18-9.25-8.2-1.16-.95-2.14-1.75-2.9-2.38-.69-.56-1.06-.88-1.03-.91s.43,.24,1.16,.75c.72,.51,1.76,1.28,3.01,2.25,2.5,1.95,5.87,4.76,9.38,8.11,3.18,3.03,5.93,5.96,7.92,8.24h-.29c1.28-1.42,2.67-2.2,3.64-2.61,.49-.21,.89-.33,1.16-.4,.27-.07,.42-.09,.42-.07Z" style="fill:#263238;"></path><path d="M123.2,242.73c.08,.12-4.74,3.35-10.77,7.2-6.03,3.86-10.97,6.89-11.05,6.77-.08-.12,4.74-3.35,10.77-7.21,6.02-3.86,10.97-6.89,11.05-6.77Z" style="fill:#263238;"></path><path d="M131.33,242.36s-.3,.34-.9,.87c-.68,.61-1.53,1.37-2.53,2.27-2.13,1.92-5.02,4.65-8.03,7.82-3.02,3.18-5.59,6.19-7.41,8.42-.85,1.05-1.57,1.94-2.14,2.64-.5,.63-.8,.96-.83,.94-.03-.02,.21-.4,.66-1.06,.45-.67,1.14-1.61,2.01-2.75,1.75-2.29,4.29-5.36,7.32-8.55,3.03-3.18,5.97-5.88,8.17-7.74,1.1-.93,2-1.66,2.65-2.15,.64-.49,1-.75,1.03-.72Z" style="fill:#263238;"></path><path d="M112.92,231.96c.08-.12,7.2,4.35,15.91,9.98,8.71,5.63,15.7,10.29,15.63,10.42-.08,.12-7.2-4.35-15.91-9.98-8.71-5.63-15.7-10.29-15.62-10.41Z" style="fill:#263238;"></path><path d="M148.91,206.16s-.17-.12-.45-.38c-.32-.3-.73-.68-1.23-1.14-1.07-.99-2.59-2.45-4.66-4.01-2.06-1.53-4.77-3.17-8.11-3.84-1.66-.33-3.47-.37-5.26,.03-1.79,.4-3.57,1.17-5.18,2.29-3.24,2.23-5.52,5.37-6.94,8.45-1.43,3.11-2.14,6.14-2.62,8.69-.47,2.55-.72,4.65-.92,6.09-.09,.68-.16,1.23-.22,1.66-.06,.38-.09,.58-.11,.58s-.01-.2,0-.59c.03-.44,.07-.99,.13-1.67,.13-1.45,.33-3.55,.75-6.13,.44-2.57,1.11-5.64,2.54-8.82,1.42-3.16,3.74-6.39,7.08-8.68,1.65-1.16,3.5-1.95,5.37-2.36,1.87-.41,3.75-.35,5.46,0,3.44,.72,6.18,2.43,8.24,4.02,2.07,1.61,3.55,3.12,4.58,4.16,.47,.49,.85,.9,1.16,1.22,.26,.28,.39,.44,.38,.45Z" style="fill:#263238;"></path></g><g><path d="M23.18,178.63s-3.08,1.79-4.07,1.96c-.98,.16,7.96,23.56,9.21,24.7,1.26,1.15,5.24-1.15,5.24-1.15l-3.99-1.8s-8.18-18-7.36-19.31c.82-1.31,4.08-1.72,4.08-1.72l-3.12-2.69Z" style="fill:#e0e0e0;"></path><g><path d="M28.83,195.27c1.48,3.56,5.32,20.13,13.66,39.74,3.39,7.97,18.22,35.91,22.35,58.63,3.75,20.65,.1,55.77-14.04,62.22l6.63,2.19c14.15-6.46,19.21-43.77,15.46-64.41-4.13-22.71-18.96-50.65-22.35-58.63-8.34-19.61-11.81-36.36-13.66-39.74-1.85-3.38-8.48-2.69-8.48-2.69,0,0-.31,.89,.44,2.69Z" style="fill:#455a64;"></path><polygon points="127.18 282.5 108.98 299.07 103.52 321.7 91.24 319.42 95.56 297.7 85.44 286.55 127.18 282.5" style="fill:#e0e0e0;"></polygon><path d="M183.9,339.97s-8.62-15.15-30.83-13.59-72.81,5.23-78.99,8.88-8.31,10.97-5.68,16.98c2.63,6.01,93.82-4.18,99.31-3.66,5.49,.52,13.85,7.32,17.77,3.4,3.92-3.92-1.57-12.02-1.57-12.02Z" style="fill:#455a64;"></path><g><path d="M103.52,321.7s-7.42,41.53-9.25,42.58c-1.83,1.05-12.8-1.73-12.28-6.22,.52-4.49,6.89-40.16,9.59-40.35,2.69-.19,11.94,4,11.94,4Z" style="fill:#455a64;"></path><path d="M103.52,321.7s-.1-.02-.28-.1c-.21-.08-.47-.19-.8-.32-.73-.29-1.76-.7-3.06-1.22-1.33-.51-2.97-1.13-4.92-1.7-.49-.13-.99-.27-1.52-.37-.26-.05-.53-.08-.8-.12-.25,.02-.59-.06-.71,.07-.37,.32-.62,.9-.86,1.44-.23,.55-.44,1.14-.64,1.74-1.55,4.86-2.83,10.83-4.19,17.45-.67,3.32-1.34,6.8-1.99,10.43-.31,1.81-.64,3.66-.96,5.53-.15,.94-.29,1.88-.44,2.83-.06,.49-.16,.94-.08,1.37,.07,.43,.26,.85,.51,1.23,1.1,1.5,2.91,2.38,4.63,3.07,1.75,.66,3.58,1.13,5.37,1.21,.44,0,.9,0,1.25-.13,.04-.02,.09-.04,.11-.05,0-.01,.02-.02,.05-.06,.05-.06,.1-.16,.15-.25,.09-.19,.18-.4,.25-.6,.31-.83,.55-1.69,.78-2.54,.46-1.7,.86-3.39,1.24-5.04,1.5-6.6,2.68-12.58,3.68-17.6,.98-5,1.77-9.05,2.32-11.9,.27-1.38,.49-2.46,.64-3.23,.07-.34,.13-.62,.18-.84,.04-.19,.07-.28,.08-.28,0,0,0,.1-.03,.29-.03,.22-.07,.5-.13,.85-.13,.78-.31,1.87-.54,3.25-.49,2.82-1.21,6.9-2.16,11.93-.96,5.03-2.1,11.02-3.57,17.63-.37,1.65-.77,3.34-1.23,5.06-.23,.86-.47,1.72-.79,2.59-.08,.22-.17,.43-.27,.65-.06,.11-.11,.22-.2,.33-.03,.05-.1,.12-.18,.18-.07,.05-.13,.06-.2,.1-.51,.19-.98,.18-1.46,.17-1.89-.09-3.74-.57-5.54-1.24-1.77-.71-3.63-1.58-4.87-3.26-.29-.43-.52-.92-.6-1.44-.05-.26-.04-.53-.02-.79l.1-.72c.15-.95,.3-1.9,.45-2.84,.33-1.87,.65-3.72,.97-5.54,.66-3.62,1.34-7.11,2.02-10.43,1.39-6.63,2.7-12.59,4.31-17.47,.21-.61,.43-1.2,.67-1.76,.27-.56,.48-1.12,.98-1.57,.71-.29,1.21-.04,1.77,.01,.54,.11,1.05,.25,1.54,.4,1.95,.6,3.58,1.25,4.91,1.79,1.33,.55,2.34,1,3.03,1.31,.32,.15,.57,.27,.77,.37,.17,.08,.27,.14,.26,.14Z" style="fill:#263238;"></path></g><path d="M23.66,180.01c1.45,2.98,6.64,1.09,9.5-.59,2.86-1.68,4.96-4.41,6.58-7.31,6.14-11.01,5.7-25.37-1.09-35.99-1.6-2.51-3.63-4.89-6.35-6.1-2.72-1.21-6.25-.96-8.28,1.22,0,0-1.08,2.17-.36,3.18,.72,1.01,9.05,9.59,7.03,24.23-2.02,14.64-9.77,15.71-7.03,21.36Z" style="fill:#455a64;"></path></g><path d="M142.19,284.85s-.68-6.14-7.17-6.37c-6.48-.23-22.52-1.36-37.3-.8-14.79,.57-21.27,2.73-22.18,4.21-.91,1.48-2.05,5.35-1.14,5.57,.64,.16,33.25-1.02,53.01-1.86,8.47-.36,14.57-.66,14.78-.76Z" style="fill:#455a64;"></path></g></g></g><g id="Table"><g><g><polygon points="167.95 276.74 167.95 469.21 176.15 469.21 176.15 276.38 167.95 276.74" style="fill:#e0e0e0;"></polygon><path d="M167.95,276.74s.15-.02,.48-.03c.34-.02,.83-.05,1.49-.08,1.36-.07,3.41-.17,6.23-.31h.07v.07c.11,22.8,.19,100.47,.19,192.63v.45h-.26c-2.81,0-5.6,0-8.19,0h-.26v-.26c.04-53.61,.08-101.75,.11-136.51,.03-17.34,.06-31.34,.08-41.02,.02-4.82,.03-8.55,.04-11.1,0-1.26,.01-2.21,.02-2.87,0-.65,.02-.97,.02-.97,0,0,.01,.35,.02,1,0,.67,.01,1.64,.02,2.91,0,2.56,.02,6.32,.04,11.16,.02,9.69,.05,23.71,.08,41.07,.03,34.71,.06,82.79,.11,136.32l-.26-.26c2.59,0,5.38,0,8.19,0l-.26,.26v-.19c0-92.16,.08-169.83,.19-192.63l.07,.07c-2.8,.1-4.84,.18-6.19,.23-.67,.02-1.16,.04-1.51,.05-.33,0-.5,0-.5,0Z" style="fill:#263238;"></path></g><g><polygon points="336.77 276.74 336.77 469.21 344.97 469.21 344.97 276.58 336.77 276.74" style="fill:#e0e0e0;"></polygon><path d="M336.77,276.74s.15-.01,.48-.02c.34-.01,.83-.03,1.49-.05,1.36-.04,3.41-.09,6.23-.17h.07v.07c.11,22.78,.19,100.42,.19,192.54v.35h-.26c-2.81,0-5.6,0-8.19,0h-.26v-.26c.04-53.6,.08-101.75,.11-136.51,.03-17.34,.06-31.34,.08-41.02,.02-4.82,.03-8.55,.04-11.1,0-1.26,.01-2.21,.02-2.87,0-.65,.02-.97,.02-.97,0,0,.01,.35,.02,1,0,.67,.01,1.64,.02,2.91,0,2.56,.02,6.32,.04,11.16,.02,9.69,.05,23.71,.08,41.08,.03,34.71,.06,82.79,.11,136.31l-.26-.26c2.59,0,5.38,0,8.19,0l-.26,.26v-.09c0-92.12,.08-169.75,.19-192.54l.07,.07c-2.8,.04-4.84,.07-6.19,.09-.67,0-1.16,.01-1.51,.01-.33,0-.5,0-.5,0Z" style="fill:#263238;"></path></g><rect x="153.12" y="265.32" width="207.47" height="11.7" style="fill:#6f4439;"></rect></g></g></svg>
