<svg xmlns="http://www.w3.org/2000/svg" id="canvas" viewBox="214.721 294.075 965.873 164.838"><path id="sig-p0" d="M 224.02,356.82 C 223.97 358.49, 224.44 360.66, 224.99 365.01 C 225.54 369.36, 226.01 372.39, 226.77 378.56 C 227.53 384.73, 228.06 388.89, 228.78 395.85 C 229.50 402.81, 229.84 406.79, 230.38 413.34 C 230.91 419.90, 231.13 423.35, 231.45 428.63 C 231.77 433.91, 231.71 436.72, 231.98 439.75 C 232.25 442.78, 232.66 443.63, 232.80 443.79 C 232.94 443.95, 233.28 443.13, 232.70 440.54 C 232.11 437.94, 231.22 435.89, 229.87 430.79 C 228.53 425.70, 227.50 421.98, 225.96 415.07 C 224.41 408.16, 223.41 403.85, 222.14 396.25 C 220.87 388.66, 220.23 384.52, 219.60 377.09 C 218.98 369.67, 218.81 365.84, 219.01 359.12 C 219.21 352.40, 219.58 349.06, 220.62 343.50 C 221.65 337.94, 222.45 335.27, 224.19 331.32 C 225.93 327.37, 227.11 325.80, 229.32 323.73 C 231.53 321.66, 232.78 321.24, 235.24 320.98 C 237.70 320.73, 239.12 321.11, 241.62 322.45 C 244.12 323.80, 245.61 325.01, 247.74 327.72 C 249.87 330.42, 251.05 332.24, 252.28 336.00 C 253.51 339.75, 254.00 342.11, 253.88 346.48 C 253.76 350.85, 253.11 353.42, 251.69 357.86 C 250.27 362.29, 249.16 364.75, 246.80 368.66 C 244.44 372.56, 242.66 374.52, 239.88 377.37 C 237.10 380.22, 235.34 381.32, 232.89 382.89 C 230.44 384.46, 229.29 384.93, 227.64 385.23 C 226.00 385.52, 225.33 384.38, 224.67 384.36 C 224.01 384.34, 223.71 384.59, 224.34 385.12 C 224.97 385.66, 225.83 387.05, 227.80 387.02 C 229.77 387.00, 231.49 386.64, 234.20 385.00 C 236.92 383.35, 238.54 381.87, 241.38 378.80 C 244.23 375.73, 246.01 373.70, 248.43 369.63 C 250.85 365.56, 251.99 363.05, 253.48 358.43 C 254.96 353.81, 255.68 351.16, 255.85 346.54 C 256.03 341.93, 255.59 339.40, 254.35 335.34 C 253.10 331.28, 251.95 329.26, 249.63 326.24 C 247.32 323.23, 245.71 321.76, 242.77 320.26 C 239.84 318.76, 237.93 318.34, 234.97 318.74 C 232.00 319.15, 230.40 319.90, 227.94 322.28 C 225.48 324.67, 224.41 326.48, 222.67 330.67 C 220.93 334.86, 220.23 337.57, 219.25 343.25 C 218.27 348.93, 217.94 352.30, 217.78 359.09 C 217.61 365.88, 217.80 369.72, 218.42 377.19 C 219.05 384.67, 219.68 388.82, 220.89 396.46 C 222.10 404.10, 223.04 408.43, 224.45 415.39 C 225.87 422.35, 226.74 426.11, 227.96 431.27 C 229.18 436.44, 229.55 438.65, 230.55 441.20 C 231.56 443.75, 232.31 444.33, 233.00 444.03 C 233.69 443.72, 234.01 442.76, 234.02 439.66 C 234.03 436.56, 233.49 433.80, 233.04 428.52 C 232.60 423.23, 232.33 419.79, 231.77 413.23 C 231.21 406.66, 230.91 402.68, 230.23 395.71 C 229.55 388.73, 229.07 384.56, 228.37 378.37 C 227.68 372.18, 227.36 369.12, 226.74 364.77 C 226.11 360.43, 225.79 358.23, 225.24 356.63 C 224.70 355.04, 224.08 355.14, 224.02 356.82"/><path id="sig-p1" d="M 261.17,378.55 C 260.93 379.25, 261.01 379.87, 261.06 381.85 C 261.11 383.84, 261.24 385.13, 261.42 388.47 C 261.59 391.82, 261.84 394.19, 261.93 398.56 C 262.03 402.93, 261.92 405.77, 261.88 410.31 C 261.83 414.86, 261.59 417.68, 261.71 421.29 C 261.84 424.89, 261.96 426.69, 262.50 428.34 C 263.04 429.99, 263.63 430.31, 264.42 429.52 C 265.21 428.74, 265.77 427.49, 266.46 424.42 C 267.16 421.35, 267.19 418.74, 267.90 414.18 C 268.61 409.62, 269.01 406.50, 270.04 401.63 C 271.06 396.76, 271.76 393.98, 273.03 389.84 C 274.30 385.71, 275.19 383.69, 276.40 380.95 C 277.61 378.22, 278.15 377.15, 279.09 376.18 C 280.03 375.21, 280.33 375.33, 281.11 376.10 C 281.89 376.88, 282.06 377.90, 282.98 380.05 C 283.91 382.20, 284.53 383.83, 285.73 386.85 C 286.93 389.88, 287.65 392.00, 288.97 395.19 C 290.29 398.39, 290.83 400.26, 292.32 402.82 C 293.82 405.39, 294.67 406.57, 296.44 408.03 C 298.22 409.48, 299.21 410.09, 301.19 410.11 C 303.16 410.12, 304.38 409.73, 306.32 408.10 C 308.26 406.48, 309.18 404.99, 310.89 401.97 C 312.60 398.94, 313.42 396.47, 314.87 392.98 C 316.31 389.48, 317.28 387.08, 318.12 384.49 C 318.96 381.90, 318.86 380.58, 319.06 380.03 C 319.26 379.49, 318.98 379.87, 319.13 381.76 C 319.28 383.66, 319.34 385.74, 319.83 389.50 C 320.31 393.25, 320.71 396.22, 321.56 400.55 C 322.41 404.87, 322.87 407.48, 324.08 411.12 C 325.29 414.76, 325.92 416.56, 327.63 418.76 C 329.33 420.96, 330.51 421.71, 332.60 422.13 C 334.69 422.55, 336.06 422.48, 338.08 420.86 C 340.11 419.23, 341.30 417.15, 342.71 414.02 C 344.12 410.89, 344.66 408.44, 345.15 405.20 C 345.63 401.96, 345.41 399.32, 345.13 397.82 C 344.86 396.31, 344.35 396.32, 343.77 397.68 C 343.19 399.03, 343.03 401.59, 342.24 404.61 C 341.45 407.63, 341.01 409.90, 339.84 412.78 C 338.66 415.66, 337.75 417.49, 336.38 419.01 C 335.01 420.52, 334.34 420.68, 332.99 420.35 C 331.63 420.01, 330.92 419.33, 329.61 417.34 C 328.29 415.34, 327.50 413.82, 326.41 410.36 C 325.31 406.91, 324.89 404.32, 324.14 400.07 C 323.39 395.81, 323.25 392.86, 322.66 389.09 C 322.07 385.33, 322.02 383.21, 321.19 381.24 C 320.37 379.27, 319.72 378.84, 318.53 379.25 C 317.33 379.66, 316.50 380.77, 315.22 383.29 C 313.93 385.81, 313.51 388.41, 312.12 391.85 C 310.72 395.30, 309.79 397.66, 308.26 400.52 C 306.73 403.38, 305.90 404.63, 304.48 406.14 C 303.07 407.66, 302.46 408.08, 301.18 408.11 C 299.90 408.14, 299.32 407.62, 298.07 406.27 C 296.82 404.93, 296.21 403.81, 294.94 401.38 C 293.66 398.94, 292.95 397.23, 291.71 394.09 C 290.47 390.95, 289.95 388.76, 288.75 385.67 C 287.54 382.58, 287.03 380.84, 285.69 378.64 C 284.34 376.45, 283.57 375.45, 282.04 374.70 C 280.51 373.94, 279.59 373.82, 278.02 374.86 C 276.46 375.91, 275.61 377.06, 274.22 379.94 C 272.82 382.82, 272.30 385.00, 271.05 389.25 C 269.81 393.50, 269.12 396.28, 268.00 401.18 C 266.87 406.08, 266.30 409.20, 265.43 413.75 C 264.56 418.30, 264.02 420.85, 263.64 423.93 C 263.26 427.01, 263.44 428.31, 263.54 429.15 C 263.65 429.99, 264.03 429.72, 264.17 428.13 C 264.32 426.55, 264.28 424.80, 264.27 421.24 C 264.26 417.68, 264.11 414.87, 264.14 410.33 C 264.16 405.79, 264.33 402.95, 264.38 398.55 C 264.43 394.15, 264.55 391.73, 264.39 388.33 C 264.24 384.93, 264.03 383.55, 263.61 381.55 C 263.18 379.55, 262.75 378.94, 262.27 378.34 C 261.78 377.74, 261.41 377.85, 261.17 378.55"/><path id="sig-p2" d="M 331.24,364.08 C 331.05 364.73, 331.38 366.51, 331.78 367.05 C 332.19 367.59, 333.07 367.42, 333.26 366.78 C 333.44 366.13, 333.12 364.35, 332.71 363.81 C 332.31 363.27, 331.42 363.43, 331.24 364.08"/><path id="sig-p3" d="M 355.47,376.46 C 355.13 377.19, 354.97 377.92, 354.91 380.07 C 354.85 382.22, 354.93 383.68, 355.18 387.19 C 355.43 390.71, 355.70 393.11, 356.16 397.65 C 356.63 402.18, 356.84 405.26, 357.50 409.88 C 358.16 414.50, 358.49 417.13, 359.46 420.74 C 360.44 424.35, 360.89 426.15, 362.38 427.94 C 363.87 429.73, 365.09 430.28, 366.91 429.71 C 368.74 429.13, 369.89 427.98, 371.53 425.08 C 373.16 422.17, 373.82 419.72, 375.08 415.19 C 376.35 410.66, 376.89 407.56, 377.84 402.41 C 378.80 397.26, 379.26 394.24, 379.86 389.44 C 380.46 384.64, 380.57 382.05, 380.83 378.42 C 381.09 374.78, 381.18 373.32, 381.17 371.25 C 381.17 369.18, 380.77 368.65, 380.80 368.07 C 380.83 367.49, 380.54 367.90, 381.35 368.36 C 382.15 368.82, 382.81 369.73, 384.81 370.37 C 386.82 371.01, 388.31 371.45, 391.37 371.57 C 394.42 371.70, 396.35 371.46, 400.08 370.99 C 403.81 370.52, 406.08 370.03, 410.02 369.21 C 413.96 368.39, 416.16 367.78, 419.76 366.90 C 423.36 366.02, 425.31 365.62, 428.03 364.82 C 430.75 364.01, 432.06 363.39, 433.36 362.86 C 434.65 362.32, 434.87 361.91, 434.51 362.14 C 434.14 362.38, 433.20 362.47, 431.55 364.03 C 429.91 365.59, 428.67 366.89, 426.29 369.95 C 423.92 373.01, 422.34 375.14, 419.69 379.34 C 417.04 383.53, 415.37 386.27, 413.05 390.93 C 410.73 395.60, 409.55 398.38, 408.10 402.64 C 406.65 406.90, 405.99 409.17, 405.79 412.23 C 405.60 415.29, 406.00 416.70, 407.12 417.94 C 408.24 419.18, 409.46 419.39, 411.40 418.43 C 413.34 417.48, 414.60 416.16, 416.81 413.16 C 419.02 410.17, 420.31 407.71, 422.47 403.44 C 424.62 399.17, 425.76 396.27, 427.60 391.82 C 429.43 387.37, 430.49 384.55, 431.65 381.18 C 432.82 377.81, 433.17 376.12, 433.43 374.98 C 433.68 373.84, 433.12 373.89, 432.92 375.47 C 432.71 377.06, 432.38 379.07, 432.40 382.90 C 432.41 386.74, 432.44 390.00, 432.98 394.66 C 433.53 399.32, 433.92 402.20, 435.12 406.22 C 436.31 410.24, 436.88 412.50, 438.97 414.77 C 441.05 417.03, 442.66 417.83, 445.53 417.53 C 448.41 417.22, 450.21 416.32, 453.35 413.26 C 456.48 410.19, 458.10 407.70, 461.20 402.21 C 464.30 396.72, 465.83 393.09, 468.86 385.79 C 471.89 378.50, 473.50 374.02, 476.35 365.75 C 479.20 357.48, 480.59 352.64, 483.09 344.43 C 485.60 336.23, 486.80 331.81, 488.88 324.73 C 490.97 317.65, 492.08 314.08, 493.52 309.03 C 494.96 303.98, 495.60 301.67, 496.08 299.46 C 496.56 297.25, 496.07 296.84, 495.92 297.99 C 495.77 299.14, 495.53 300.93, 495.31 305.21 C 495.10 309.50, 494.96 312.87, 494.84 319.43 C 494.71 325.98, 494.68 330.22, 494.69 338.00 C 494.69 345.78, 494.69 350.43, 494.86 358.33 C 495.02 366.24, 495.14 370.57, 495.51 377.52 C 495.87 384.47, 496.15 387.94, 496.69 393.06 C 497.23 398.19, 497.31 400.36, 498.20 403.15 C 499.09 405.94, 499.93 406.82, 501.15 407.02 C 502.37 407.23, 503.26 406.42, 504.31 404.16 C 505.36 401.90, 505.72 399.63, 506.38 395.75 C 507.04 391.86, 507.22 389.06, 507.62 384.74 C 508.02 380.42, 508.15 377.61, 508.38 374.13 C 508.60 370.65, 508.62 368.92, 508.76 367.34 C 508.90 365.77, 508.68 365.68, 509.08 366.25 C 509.48 366.83, 509.48 368.17, 510.76 370.22 C 512.03 372.27, 512.95 374.14, 515.44 376.49 C 517.93 378.84, 519.81 380.35, 523.22 381.96 C 526.63 383.57, 528.76 384.19, 532.49 384.55 C 536.21 384.91, 538.24 384.72, 541.85 383.77 C 545.45 382.82, 547.48 381.92, 550.52 379.79 C 553.56 377.66, 554.98 376.03, 557.05 373.14 C 559.13 370.24, 560.00 368.32, 560.89 365.32 C 561.78 362.31, 561.99 360.58, 561.51 358.11 C 561.02 355.64, 560.25 354.24, 558.47 352.97 C 556.69 351.70, 555.17 351.23, 552.60 351.77 C 550.03 352.30, 548.27 353.17, 545.61 355.62 C 542.95 358.07, 541.38 360.05, 539.32 364.03 C 537.25 368.01, 536.21 370.61, 535.29 375.53 C 534.37 380.44, 534.06 383.57, 534.71 388.60 C 535.35 393.63, 536.16 396.52, 538.50 400.70 C 540.84 404.87, 542.45 406.82, 546.40 409.49 C 550.36 412.16, 553.09 413.29, 558.28 414.06 C 563.46 414.82, 566.65 414.52, 572.31 413.30 C 577.96 412.08, 581.00 410.69, 586.56 407.95 C 592.11 405.21, 595.32 402.95, 600.08 399.59 C 604.84 396.24, 607.07 394.14, 610.35 391.18 C 613.63 388.21, 615.40 386.18, 616.48 384.75 C 617.55 383.31, 617.17 382.95, 615.74 384.00 C 614.30 385.05, 612.61 387.12, 609.30 389.98 C 605.99 392.84, 603.85 394.98, 599.17 398.31 C 594.49 401.63, 591.33 403.91, 585.89 406.60 C 580.46 409.30, 577.46 410.62, 571.99 411.80 C 566.51 412.97, 563.44 413.19, 558.51 412.45 C 553.59 411.72, 551.04 410.62, 547.34 408.10 C 543.64 405.58, 542.19 403.80, 540.02 399.86 C 537.84 395.91, 537.05 393.17, 536.49 388.38 C 535.92 383.59, 536.23 380.56, 537.19 375.90 C 538.14 371.24, 539.24 368.75, 541.28 365.09 C 543.33 361.42, 545.03 359.75, 547.41 357.59 C 549.80 355.42, 551.24 354.84, 553.21 354.26 C 555.18 353.67, 556.08 353.83, 557.25 354.68 C 558.41 355.52, 558.85 356.51, 559.05 358.48 C 559.25 360.45, 559.05 361.88, 558.24 364.52 C 557.43 367.17, 556.82 369.03, 555.00 371.70 C 553.18 374.37, 551.90 375.89, 549.15 377.86 C 546.40 379.82, 544.54 380.66, 541.25 381.52 C 537.97 382.39, 536.11 382.56, 532.74 382.17 C 529.37 381.77, 527.43 381.17, 524.42 379.56 C 521.41 377.96, 519.96 376.37, 517.71 374.14 C 515.45 371.91, 514.77 370.18, 513.15 368.41 C 511.53 366.64, 510.84 365.60, 509.61 365.28 C 508.38 364.97, 507.77 365.12, 506.99 366.85 C 506.21 368.57, 506.08 370.37, 505.69 373.90 C 505.30 377.43, 505.45 380.21, 505.04 384.49 C 504.63 388.77, 504.23 391.52, 503.64 395.30 C 503.04 399.08, 502.53 401.20, 502.07 403.40 C 501.60 405.60, 501.70 406.46, 501.31 406.30 C 500.92 406.15, 500.75 405.30, 500.13 402.62 C 499.51 399.93, 498.87 397.92, 498.20 392.88 C 497.52 387.85, 497.19 384.36, 496.76 377.45 C 496.33 370.53, 496.20 366.20, 496.05 358.31 C 495.90 350.42, 495.91 345.77, 496.01 338.01 C 496.10 330.24, 496.26 326.02, 496.53 319.48 C 496.80 312.93, 497.28 309.61, 497.34 305.28 C 497.40 300.95, 497.38 299.10, 496.83 297.84 C 496.29 296.58, 495.56 296.82, 494.61 298.98 C 493.66 301.14, 493.46 303.55, 492.09 308.64 C 490.72 313.72, 489.77 317.31, 487.77 324.40 C 485.77 331.50, 484.57 335.92, 482.07 344.12 C 479.58 352.32, 478.19 357.15, 475.31 365.39 C 472.43 373.63, 470.79 378.10, 467.70 385.30 C 464.60 392.51, 462.98 396.11, 459.84 401.42 C 456.71 406.74, 454.91 409.06, 452.01 411.88 C 449.10 414.70, 447.57 415.24, 445.31 415.52 C 443.04 415.80, 442.27 415.27, 440.68 413.28 C 439.08 411.30, 438.35 409.37, 437.33 405.59 C 436.30 401.81, 435.99 398.94, 435.55 394.39 C 435.12 389.83, 435.34 386.64, 435.14 382.82 C 434.94 379.01, 435.08 377.00, 434.53 375.30 C 433.98 373.61, 433.43 373.36, 432.40 374.36 C 431.36 375.36, 430.71 376.98, 429.35 380.31 C 427.99 383.64, 427.39 386.59, 425.60 391.00 C 423.81 395.42, 422.60 398.26, 420.41 402.38 C 418.22 406.50, 416.65 408.72, 414.64 411.60 C 412.62 414.48, 411.62 415.65, 410.33 416.76 C 409.04 417.87, 408.60 418.03, 408.17 417.17 C 407.73 416.31, 407.81 415.24, 408.18 412.46 C 408.55 409.69, 408.70 407.41, 410.02 403.28 C 411.33 399.14, 412.47 396.35, 414.77 391.80 C 417.06 387.24, 418.76 384.54, 421.50 380.52 C 424.24 376.50, 426.02 374.62, 428.46 371.70 C 430.90 368.77, 432.31 367.78, 433.69 365.90 C 435.06 364.02, 435.46 363.28, 435.34 362.30 C 435.21 361.32, 434.67 361.07, 433.05 361.01 C 431.44 360.94, 430.04 361.29, 427.26 361.99 C 424.48 362.69, 422.69 363.54, 419.14 364.51 C 415.60 365.48, 413.41 366.08, 409.54 366.83 C 405.67 367.59, 403.41 368.03, 399.81 368.28 C 396.22 368.53, 394.43 368.30, 391.57 368.07 C 388.72 367.85, 387.54 367.44, 385.55 367.16 C 383.57 366.89, 382.81 366.59, 381.65 366.69 C 380.50 366.79, 380.30 366.78, 379.77 367.67 C 379.23 368.56, 379.20 369.01, 378.98 371.14 C 378.75 373.26, 378.83 374.66, 378.62 378.27 C 378.42 381.89, 378.49 384.46, 377.94 389.21 C 377.40 393.96, 376.91 396.97, 375.90 402.04 C 374.89 407.10, 374.23 410.18, 372.89 414.55 C 371.55 418.91, 370.52 421.12, 369.21 423.87 C 367.90 426.62, 367.39 427.71, 366.34 428.30 C 365.30 428.88, 364.90 428.44, 363.98 426.81 C 363.06 425.18, 362.60 423.60, 361.73 420.15 C 360.87 416.70, 360.31 414.11, 359.67 409.57 C 359.02 405.03, 358.86 401.95, 358.53 397.44 C 358.19 392.93, 358.22 390.51, 358.02 387.01 C 357.81 383.51, 357.79 382.05, 357.50 379.93 C 357.22 377.81, 357.00 377.10, 356.59 376.41 C 356.19 375.71, 355.80 375.73, 355.47 376.46"/><path id="sig-p4" d="M 674.10,301.72 C 673.63 303.14, 673.38 304.76, 672.87 309.00 C 672.37 313.23, 672.13 316.28, 671.59 322.90 C 671.04 329.53, 670.67 334.00, 670.15 342.14 C 669.62 350.27, 669.30 355.21, 668.97 363.56 C 668.63 371.91, 668.57 376.77, 668.48 383.89 C 668.39 391.00, 668.29 394.52, 668.51 399.12 C 668.73 403.73, 668.87 405.65, 669.58 406.91 C 670.28 408.17, 671.33 407.72, 672.02 405.42 C 672.71 403.12, 672.74 400.63, 673.03 395.42 C 673.32 390.20, 673.36 386.49, 673.48 379.33 C 673.60 372.16, 673.51 367.64, 673.63 359.59 C 673.74 351.55, 673.80 346.91, 674.05 339.10 C 674.29 331.28, 674.53 327.07, 674.84 320.52 C 675.15 313.97, 675.40 310.68, 675.59 306.36 C 675.78 302.04, 675.91 300.32, 675.79 298.93 C 675.66 297.55, 675.09 297.65, 674.97 299.45 C 674.86 301.24, 674.84 303.34, 675.19 307.91 C 675.54 312.48, 675.92 316.22, 676.72 322.30 C 677.53 328.37, 677.95 332.35, 679.20 338.30 C 680.45 344.25, 681.19 347.64, 682.98 352.06 C 684.76 356.48, 685.76 358.48, 688.12 360.40 C 690.47 362.32, 692.07 362.68, 694.74 361.66 C 697.40 360.63, 698.77 359.04, 701.44 355.28 C 704.11 351.51, 705.50 348.45, 708.11 342.83 C 710.71 337.22, 712.05 333.43, 714.47 327.22 C 716.89 321.01, 718.31 316.96, 720.22 311.77 C 722.13 306.59, 723.14 303.89, 724.03 301.28 C 724.91 298.67, 724.60 297.93, 724.64 298.74 C 724.67 299.55, 724.46 300.97, 724.20 305.34 C 723.94 309.70, 723.59 313.36, 723.32 320.56 C 723.04 327.76, 722.86 332.75, 722.82 341.34 C 722.78 349.93, 722.77 355.02, 723.10 363.51 C 723.43 371.99, 723.60 376.57, 724.45 383.77 C 725.30 390.97, 725.90 394.49, 727.36 399.52 C 728.82 404.55, 729.62 406.65, 731.77 408.92 C 733.92 411.19, 735.49 411.55, 738.10 410.88 C 740.72 410.20, 742.23 408.81, 744.85 405.54 C 747.46 402.27, 748.85 399.60, 751.18 394.54 C 753.51 389.49, 754.67 385.98, 756.48 380.28 C 758.29 374.58, 759.13 371.20, 760.24 366.05 C 761.36 360.89, 761.81 358.30, 762.04 354.52 C 762.27 350.74, 762.13 349.16, 761.40 347.15 C 760.67 345.14, 759.83 344.53, 758.38 344.47 C 756.92 344.40, 755.65 344.90, 754.12 346.82 C 752.59 348.73, 751.78 350.53, 750.72 354.04 C 749.66 357.55, 749.27 359.94, 748.82 364.36 C 748.36 368.78, 748.14 371.62, 748.44 376.12 C 748.75 380.62, 749.12 383.11, 750.34 386.86 C 751.57 390.62, 752.47 392.49, 754.57 394.88 C 756.67 397.27, 758.06 398.30, 760.84 398.81 C 763.61 399.32, 765.47 398.93, 768.44 397.44 C 771.41 395.94, 773.00 394.47, 775.70 391.33 C 778.40 388.19, 779.71 385.84, 781.93 381.73 C 784.16 377.61, 785.27 374.59, 786.84 370.77 C 788.42 366.95, 789.18 364.78, 789.80 362.62 C 790.43 360.47, 790.14 359.79, 789.96 359.98 C 789.77 360.17, 789.14 361.09, 788.88 363.57 C 788.62 366.05, 788.69 368.56, 788.66 372.37 C 788.63 376.19, 788.57 378.86, 788.74 382.65 C 788.90 386.44, 788.88 388.53, 789.47 391.33 C 790.06 394.14, 790.50 395.37, 791.67 396.69 C 792.84 398.00, 793.68 398.44, 795.31 397.92 C 796.93 397.40, 798.10 396.45, 799.80 394.11 C 801.50 391.77, 802.15 389.64, 803.79 386.22 C 805.43 382.80, 806.46 380.24, 808.00 376.99 C 809.54 373.73, 810.46 371.86, 811.47 369.95 C 812.48 368.04, 812.64 367.34, 813.06 367.44 C 813.49 367.55, 813.33 368.40, 813.59 370.49 C 813.85 372.58, 813.87 374.51, 814.36 377.89 C 814.84 381.27, 815.23 383.75, 816.01 387.38 C 816.80 391.01, 817.12 393.18, 818.27 396.05 C 819.42 398.93, 820.14 400.32, 821.76 401.75 C 823.37 403.18, 824.46 403.80, 826.33 403.21 C 828.20 402.62, 829.30 401.66, 831.11 398.80 C 832.91 395.94, 833.67 393.78, 835.34 388.93 C 837.01 384.09, 837.88 380.89, 839.46 374.55 C 841.04 368.22, 841.80 364.21, 843.25 357.27 C 844.70 350.32, 845.40 346.37, 846.71 339.83 C 848.02 333.28, 848.66 329.88, 849.80 324.53 C 850.94 319.18, 851.69 316.62, 852.39 313.09 C 853.10 309.57, 853.27 308.11, 853.32 306.90 C 853.36 305.70, 852.85 305.68, 852.61 307.05 C 852.38 308.42, 852.13 309.90, 852.16 313.77 C 852.18 317.64, 852.36 320.52, 852.73 326.41 C 853.11 332.30, 853.41 336.09, 854.02 343.22 C 854.62 350.35, 854.90 354.65, 855.77 362.08 C 856.63 369.50, 857.14 373.65, 858.34 380.34 C 859.54 387.03, 860.31 390.34, 861.77 395.53 C 863.23 400.72, 863.91 403.29, 865.64 406.28 C 867.36 409.28, 868.63 409.87, 870.40 410.52 C 872.17 411.17, 873.25 410.33, 874.48 409.51 C 875.72 408.69, 876.36 407.19, 876.59 406.42 C 876.81 405.65, 876.21 405.34, 875.60 405.68 C 874.99 406.03, 874.47 407.48, 873.54 408.16 C 872.62 408.84, 872.22 409.65, 870.97 409.09 C 869.73 408.52, 868.87 408.13, 867.32 405.33 C 865.77 402.54, 864.76 400.15, 863.22 395.10 C 861.68 390.06, 860.86 386.74, 859.62 380.10 C 858.39 373.47, 857.87 369.33, 857.04 361.93 C 856.20 354.53, 855.93 350.23, 855.44 343.11 C 854.96 335.99, 854.79 332.20, 854.62 326.32 C 854.45 320.44, 854.72 317.60, 854.60 313.72 C 854.47 309.84, 854.47 308.36, 854.00 306.93 C 853.53 305.50, 852.96 305.41, 852.24 306.56 C 851.52 307.70, 851.20 309.14, 850.42 312.67 C 849.63 316.21, 849.32 318.85, 848.31 324.23 C 847.30 329.61, 846.66 333.02, 845.38 339.57 C 844.10 346.11, 843.40 350.06, 841.91 356.98 C 840.42 363.90, 839.62 367.90, 837.93 374.16 C 836.24 380.41, 835.27 383.59, 833.46 388.25 C 831.66 392.91, 830.47 394.81, 828.92 397.48 C 827.37 400.15, 826.84 401.03, 825.71 401.61 C 824.58 402.18, 824.20 401.65, 823.26 400.34 C 822.33 399.03, 821.90 397.77, 821.03 395.05 C 820.15 392.34, 819.60 390.31, 818.90 386.78 C 818.19 383.25, 818.06 380.79, 817.50 377.40 C 816.94 374.02, 816.92 372.04, 816.08 369.85 C 815.23 367.66, 814.61 366.71, 813.28 366.44 C 811.94 366.17, 810.98 366.67, 809.40 368.52 C 807.81 370.37, 807.02 372.42, 805.36 375.69 C 803.69 378.97, 802.73 381.57, 801.08 384.90 C 799.42 388.23, 798.39 390.05, 797.09 392.36 C 795.78 394.66, 795.37 395.75, 794.57 396.43 C 793.77 397.11, 793.54 396.86, 793.09 395.74 C 792.65 394.63, 792.64 393.51, 792.34 390.87 C 792.04 388.23, 791.72 386.24, 791.60 382.54 C 791.49 378.85, 791.74 376.18, 791.75 372.39 C 791.75 368.59, 791.94 366.09, 791.64 363.55 C 791.34 361.01, 791.02 360.02, 790.24 359.67 C 789.46 359.31, 788.87 359.73, 787.74 361.77 C 786.62 363.80, 786.16 366.06, 784.61 369.85 C 783.06 373.63, 782.13 376.69, 780.00 380.69 C 777.87 384.68, 776.50 386.92, 773.96 389.83 C 771.42 392.74, 769.85 393.88, 767.31 395.24 C 764.76 396.59, 763.43 396.96, 761.24 396.58 C 759.05 396.20, 758.12 395.42, 756.36 393.34 C 754.60 391.25, 753.59 389.65, 752.44 386.18 C 751.29 382.71, 750.85 380.29, 750.60 375.99 C 750.35 371.68, 750.61 368.86, 751.19 364.64 C 751.76 360.42, 752.44 358.15, 753.47 354.88 C 754.49 351.61, 755.33 350.13, 756.32 348.29 C 757.31 346.44, 757.75 345.79, 758.41 345.66 C 759.08 345.53, 759.34 345.89, 759.65 347.64 C 759.97 349.38, 760.22 350.78, 760.00 354.40 C 759.78 358.01, 759.58 360.62, 758.55 365.69 C 757.52 370.76, 756.68 374.15, 754.86 379.76 C 753.05 385.37, 751.80 388.84, 749.48 393.75 C 747.15 398.65, 745.61 401.18, 743.23 404.27 C 740.86 407.37, 739.64 408.51, 737.61 409.20 C 735.57 409.90, 734.84 409.75, 733.06 407.74 C 731.29 405.72, 730.21 403.94, 728.72 399.11 C 727.23 394.29, 726.52 390.76, 725.62 383.63 C 724.72 376.50, 724.53 371.92, 724.21 363.46 C 723.90 355.01, 723.92 349.92, 724.05 341.35 C 724.18 332.79, 724.46 327.82, 724.86 320.63 C 725.26 313.44, 725.96 309.84, 726.04 305.41 C 726.13 300.97, 726.03 299.44, 725.27 298.46 C 724.51 297.48, 723.58 297.96, 722.25 300.51 C 720.91 303.06, 720.45 305.97, 718.61 311.19 C 716.76 316.42, 715.42 320.47, 713.01 326.65 C 710.60 332.83, 709.19 336.60, 706.56 342.11 C 703.94 347.61, 702.38 350.60, 699.87 354.17 C 697.36 357.73, 696.12 358.98, 694.02 359.93 C 691.93 360.89, 691.26 360.64, 689.38 358.93 C 687.49 357.23, 686.31 355.59, 684.61 351.40 C 682.90 347.20, 682.04 343.83, 680.85 337.96 C 679.66 332.09, 679.35 328.11, 678.66 322.06 C 677.97 316.01, 677.85 312.28, 677.41 307.72 C 676.97 303.16, 677.00 301.06, 676.46 299.27 C 675.92 297.49, 675.24 297.38, 674.73 298.78 C 674.21 300.18, 674.12 301.94, 673.88 306.28 C 673.64 310.61, 673.74 313.91, 673.53 320.47 C 673.33 327.03, 673.10 331.24, 672.87 339.06 C 672.64 346.88, 672.57 351.53, 672.39 359.57 C 672.20 367.62, 672.19 372.14, 671.94 379.29 C 671.69 386.43, 671.46 390.14, 671.14 395.30 C 670.82 400.47, 670.48 402.84, 670.34 405.11 C 670.19 407.38, 670.47 407.87, 670.42 406.66 C 670.37 405.45, 670.22 403.61, 670.09 399.06 C 669.95 394.51, 669.72 390.99, 669.73 383.89 C 669.74 376.80, 669.79 371.94, 670.13 363.61 C 670.47 355.28, 670.83 350.34, 671.42 342.22 C 672.02 334.11, 672.46 329.65, 673.10 323.04 C 673.74 316.43, 674.19 313.42, 674.62 309.19 C 675.05 304.95, 675.35 303.36, 675.25 301.86 C 675.14 300.37, 674.58 300.29, 674.10 301.72"/><path id="sig-p5" d="M 837.48,368.11 C 838.09 368.44, 838.64 368.72, 840.46 368.68 C 842.27 368.65, 843.61 368.57, 846.58 367.93 C 849.54 367.29, 851.50 366.59, 855.28 365.49 C 859.07 364.39, 861.45 363.72, 865.50 362.42 C 869.56 361.12, 871.78 360.32, 875.55 358.99 C 879.33 357.66, 881.31 356.90, 884.37 355.77 C 887.43 354.65, 889.12 353.94, 890.85 353.37 C 892.58 352.80, 892.98 352.38, 893.02 352.92 C 893.06 353.47, 892.22 353.87, 891.06 356.11 C 889.90 358.34, 888.91 360.20, 887.23 364.08 C 885.54 367.96, 884.22 370.74, 882.63 375.51 C 881.03 380.28, 880.02 383.24, 879.24 387.94 C 878.45 392.64, 878.21 395.25, 878.71 399.02 C 879.21 402.80, 879.87 404.64, 881.74 406.82 C 883.61 409.00, 885.23 409.77, 888.06 409.93 C 890.89 410.10, 892.84 409.51, 895.88 407.64 C 898.92 405.77, 900.65 404.05, 903.29 400.57 C 905.93 397.09, 907.35 394.69, 909.08 390.24 C 910.80 385.79, 911.44 382.92, 911.92 378.32 C 912.40 373.71, 912.18 371.13, 911.47 367.21 C 910.75 363.29, 910.00 361.43, 908.34 358.74 C 906.67 356.05, 905.31 355.02, 903.15 353.76 C 900.98 352.51, 899.49 352.39, 897.53 352.47 C 895.56 352.54, 894.49 353.10, 893.31 354.12 C 892.12 355.14, 891.64 356.13, 891.59 357.56 C 891.55 358.99, 891.81 359.98, 893.07 361.27 C 894.34 362.57, 895.40 363.34, 897.91 364.02 C 900.42 364.69, 902.20 364.69, 905.63 364.65 C 909.05 364.60, 911.16 364.19, 915.02 363.79 C 918.88 363.40, 921.12 362.98, 924.93 362.69 C 928.74 362.41, 930.81 362.18, 934.07 362.37 C 937.32 362.57, 938.92 362.67, 941.20 363.66 C 943.48 364.64, 944.28 365.22, 945.47 367.30 C 946.66 369.39, 946.82 370.89, 947.15 374.08 C 947.49 377.27, 947.40 379.56, 947.15 383.26 C 946.89 386.97, 946.38 389.31, 945.88 392.62 C 945.37 395.93, 944.87 397.77, 944.63 399.81 C 944.38 401.86, 944.42 402.67, 944.64 402.85 C 944.86 403.04, 945.23 402.50, 945.72 400.73 C 946.20 398.97, 946.49 397.22, 947.07 394.02 C 947.65 390.82, 947.83 388.38, 948.61 384.74 C 949.39 381.10, 949.99 378.91, 950.97 375.83 C 951.94 372.75, 952.45 371.23, 953.48 369.34 C 954.51 367.45, 954.94 367.01, 956.11 366.37 C 957.28 365.73, 957.83 365.94, 959.32 366.12 C 960.82 366.31, 961.61 366.84, 963.60 367.28 C 965.60 367.72, 966.76 368.14, 969.30 368.31 C 971.84 368.48, 973.42 368.59, 976.32 368.13 C 979.23 367.68, 980.85 367.26, 983.83 366.02 C 986.80 364.77, 988.41 363.84, 991.19 361.91 C 993.97 359.99, 995.48 358.68, 997.73 356.39 C 999.99 354.10, 1001.11 352.64, 1002.46 350.47 C 1003.81 348.29, 1004.25 347.10, 1004.48 345.52 C 1004.71 343.94, 1004.41 343.14, 1003.62 342.55 C 1002.82 341.96, 1001.81 341.90, 1000.49 342.58 C 999.17 343.27, 998.19 344.14, 997.02 345.98 C 995.86 347.83, 995.21 349.19, 994.68 351.82 C 994.15 354.45, 993.96 356.08, 994.36 359.14 C 994.76 362.20, 995.37 363.96, 996.69 367.12 C 998.01 370.28, 999.07 371.91, 1000.98 374.94 C 1002.89 377.98, 1004.22 379.51, 1006.25 382.31 C 1008.29 385.10, 1009.47 386.49, 1011.14 388.91 C 1012.81 391.32, 1013.65 392.44, 1014.60 394.36 C 1015.55 396.28, 1015.90 397.06, 1015.89 398.51 C 1015.89 399.95, 1015.62 400.57, 1014.56 401.58 C 1013.49 402.59, 1012.57 402.98, 1010.57 403.54 C 1008.57 404.11, 1007.10 404.32, 1004.57 404.40 C 1002.03 404.48, 1000.38 404.35, 997.88 403.94 C 995.39 403.53, 993.92 403.32, 992.08 402.33 C 990.25 401.35, 989.46 400.57, 988.69 399.02 C 987.92 397.48, 987.78 396.87, 988.24 394.61 C 988.71 392.34, 989.36 390.83, 991.03 387.70 C 992.71 384.57, 993.83 382.68, 996.62 378.97 C 999.41 375.26, 1001.34 373.22, 1004.97 369.15 C 1008.60 365.08, 1010.70 362.86, 1014.76 358.62 C 1018.83 354.39, 1021.24 352.11, 1025.30 347.99 C 1029.35 343.86, 1031.43 341.84, 1035.05 337.98 C 1038.67 334.12, 1040.41 332.18, 1043.38 328.69 C 1046.35 325.21, 1047.78 323.49, 1049.90 320.55 C 1052.01 317.62, 1053.00 316.27, 1053.97 314.02 C 1054.94 311.77, 1055.06 310.66, 1054.74 309.30 C 1054.43 307.94, 1053.76 307.33, 1052.40 307.22 C 1051.05 307.10, 1049.79 307.27, 1047.97 308.71 C 1046.14 310.14, 1045.03 311.43, 1043.29 314.41 C 1041.55 317.38, 1040.67 319.31, 1039.26 323.56 C 1037.84 327.81, 1037.16 330.40, 1036.20 335.65 C 1035.24 340.90, 1034.88 344.10, 1034.47 349.82 C 1034.07 355.54, 1034.03 358.80, 1034.18 364.25 C 1034.34 369.70, 1034.63 372.59, 1035.24 377.09 C 1035.84 381.58, 1036.14 383.72, 1037.21 386.74 C 1038.27 389.75, 1039.05 390.90, 1040.55 392.18 C 1042.04 393.45, 1042.98 393.59, 1044.68 393.10 C 1046.37 392.61, 1047.43 391.74, 1049.01 389.73 C 1050.60 387.71, 1051.40 385.85, 1052.60 383.03 C 1053.81 380.20, 1054.43 378.12, 1055.03 375.60 C 1055.63 373.09, 1055.57 371.58, 1055.60 370.46 C 1055.64 369.35, 1055.31 369.26, 1055.21 370.02 C 1055.11 370.78, 1054.85 371.97, 1055.10 374.27 C 1055.35 376.57, 1055.48 378.61, 1056.46 381.51 C 1057.45 384.41, 1058.36 386.33, 1060.02 388.79 C 1061.68 391.24, 1062.64 392.38, 1064.76 393.77 C 1066.88 395.16, 1068.16 395.60, 1070.61 395.74 C 1073.06 395.88, 1074.41 395.58, 1077.01 394.46 C 1079.60 393.34, 1081.04 392.20, 1083.57 390.13 C 1086.10 388.07, 1087.38 386.64, 1089.65 384.14 C 1091.93 381.64, 1093.23 380.06, 1094.94 377.64 C 1096.65 375.21, 1097.34 373.60, 1098.20 372.00 C 1099.07 370.39, 1099.08 369.69, 1099.28 369.60 C 1099.48 369.52, 1099.24 369.99, 1099.20 371.57 C 1099.17 373.15, 1098.93 374.67, 1099.11 377.49 C 1099.30 380.31, 1099.53 382.51, 1100.14 385.66 C 1100.75 388.82, 1101.19 390.74, 1102.18 393.26 C 1103.18 395.78, 1103.81 397.14, 1105.11 398.26 C 1106.41 399.39, 1107.91 398.92, 1108.67 398.87 C 1109.43 398.83, 1109.33 398.41, 1108.90 398.04 C 1108.47 397.66, 1107.26 398.15, 1106.53 397.00 C 1105.79 395.85, 1105.81 394.67, 1105.24 392.28 C 1104.67 389.89, 1104.11 388.10, 1103.65 385.06 C 1103.20 382.01, 1103.38 379.87, 1102.96 377.07 C 1102.54 374.27, 1102.28 372.74, 1101.55 371.07 C 1100.82 369.39, 1100.37 368.80, 1099.30 368.69 C 1098.23 368.58, 1097.58 369.09, 1096.20 370.51 C 1094.82 371.94, 1094.14 373.46, 1092.40 375.80 C 1090.66 378.13, 1089.65 379.80, 1087.51 382.21 C 1085.37 384.61, 1084.04 385.92, 1081.69 387.83 C 1079.34 389.74, 1077.96 390.68, 1075.77 391.77 C 1073.57 392.85, 1072.60 393.28, 1070.70 393.25 C 1068.81 393.23, 1067.84 392.88, 1066.28 391.64 C 1064.72 390.40, 1064.11 389.32, 1062.90 387.04 C 1061.69 384.76, 1061.13 382.95, 1060.23 380.24 C 1059.33 377.54, 1059.18 375.66, 1058.40 373.51 C 1057.62 371.35, 1057.21 370.21, 1056.34 369.45 C 1055.46 368.69, 1055.00 368.72, 1054.04 369.72 C 1053.07 370.72, 1052.47 372.08, 1051.49 374.46 C 1050.51 376.85, 1050.15 378.93, 1049.14 381.64 C 1048.13 384.36, 1047.45 386.06, 1046.43 388.03 C 1045.41 390.01, 1044.96 390.92, 1044.03 391.50 C 1043.10 392.08, 1042.70 392.03, 1041.77 390.93 C 1040.84 389.83, 1040.31 388.82, 1039.37 385.99 C 1038.43 383.17, 1037.77 381.18, 1037.07 376.82 C 1036.36 372.46, 1036.03 369.57, 1035.84 364.20 C 1035.66 358.82, 1035.70 355.58, 1036.13 349.94 C 1036.56 344.30, 1036.95 341.12, 1037.99 335.99 C 1039.04 330.87, 1039.78 328.32, 1041.35 324.32 C 1042.92 320.31, 1044.12 318.66, 1045.85 315.97 C 1047.57 313.29, 1048.63 312.35, 1049.97 310.90 C 1051.31 309.46, 1051.88 309.04, 1052.54 308.74 C 1053.20 308.44, 1053.42 308.56, 1053.27 309.41 C 1053.12 310.26, 1052.83 311.01, 1051.80 312.99 C 1050.77 314.97, 1050.08 316.40, 1048.12 319.32 C 1046.16 322.23, 1044.87 324.04, 1042.02 327.56 C 1039.17 331.08, 1037.45 333.03, 1033.88 336.90 C 1030.32 340.77, 1028.25 342.79, 1024.20 346.91 C 1020.15 351.04, 1017.74 353.32, 1013.63 357.53 C 1009.53 361.74, 1007.41 363.95, 1003.69 367.98 C 999.96 372.02, 997.96 374.00, 994.99 377.70 C 992.02 381.40, 990.72 383.21, 988.85 386.49 C 986.97 389.77, 986.08 391.41, 985.62 394.12 C 985.16 396.83, 985.55 397.93, 986.55 400.05 C 987.55 402.18, 988.48 403.33, 990.62 404.75 C 992.76 406.18, 994.44 406.57, 997.25 407.19 C 1000.07 407.81, 1001.84 407.99, 1004.71 407.85 C 1007.57 407.71, 1009.25 407.40, 1011.58 406.47 C 1013.90 405.54, 1015.02 404.78, 1016.33 403.21 C 1017.63 401.63, 1017.98 400.58, 1018.11 398.60 C 1018.24 396.61, 1017.91 395.54, 1016.98 393.29 C 1016.05 391.03, 1015.18 389.82, 1013.45 387.31 C 1011.72 384.81, 1010.40 383.51, 1008.34 380.77 C 1006.29 378.02, 1004.99 376.51, 1003.17 373.57 C 1001.36 370.64, 1000.39 369.04, 999.25 366.09 C 998.11 363.13, 997.72 361.50, 997.48 358.80 C 997.25 356.09, 997.54 354.77, 998.07 352.55 C 998.59 350.33, 999.31 349.33, 1000.09 347.70 C 1000.88 346.08, 1001.41 345.29, 1001.99 344.42 C 1002.57 343.55, 1002.91 343.26, 1003.01 343.35 C 1003.10 343.45, 1003.07 343.80, 1002.47 344.89 C 1001.87 345.98, 1001.35 346.93, 999.99 348.82 C 998.63 350.72, 997.72 352.20, 995.65 354.36 C 993.57 356.52, 992.19 357.84, 989.61 359.63 C 987.03 361.42, 985.49 362.26, 982.74 363.32 C 979.99 364.38, 978.51 364.58, 975.86 364.92 C 973.21 365.27, 971.85 365.17, 969.50 365.04 C 967.15 364.91, 966.14 364.55, 964.12 364.29 C 962.10 364.03, 961.20 363.66, 959.41 363.73 C 957.62 363.79, 956.77 363.74, 955.16 364.60 C 953.54 365.46, 952.69 365.96, 951.33 368.03 C 949.96 370.10, 949.44 371.73, 948.31 374.94 C 947.19 378.15, 946.63 380.37, 945.72 384.08 C 944.80 387.79, 944.23 390.19, 943.75 393.49 C 943.28 396.78, 943.14 398.62, 943.35 400.56 C 943.55 402.49, 944.04 403.21, 944.78 403.18 C 945.51 403.15, 946.24 402.44, 947.02 400.42 C 947.81 398.39, 948.14 396.46, 948.68 393.06 C 949.23 389.66, 949.55 387.28, 949.75 383.42 C 949.96 379.57, 950.16 377.26, 949.73 373.78 C 949.30 370.31, 949.10 368.53, 947.60 366.05 C 946.10 363.57, 944.89 362.61, 942.22 361.38 C 939.54 360.15, 937.71 360.13, 934.22 359.91 C 930.73 359.70, 928.64 360.03, 924.76 360.29 C 920.88 360.55, 918.63 360.97, 914.80 361.23 C 910.98 361.49, 908.87 361.69, 905.64 361.61 C 902.42 361.52, 900.87 361.27, 898.68 360.81 C 896.50 360.36, 895.74 359.98, 894.72 359.33 C 893.71 358.69, 893.62 358.29, 893.61 357.59 C 893.61 356.90, 893.88 356.40, 894.68 355.85 C 895.47 355.30, 896.13 354.83, 897.57 354.83 C 899.02 354.83, 900.17 354.82, 901.91 355.86 C 903.65 356.90, 904.78 357.68, 906.27 360.03 C 907.77 362.38, 908.65 363.99, 909.39 367.61 C 910.12 371.23, 910.38 373.74, 909.94 378.12 C 909.50 382.49, 908.87 385.28, 907.18 389.49 C 905.50 393.71, 904.03 395.99, 901.51 399.20 C 898.99 402.41, 897.25 403.86, 894.58 405.55 C 891.90 407.25, 890.38 407.70, 888.15 407.67 C 885.91 407.64, 884.87 407.20, 883.40 405.42 C 881.93 403.64, 881.24 402.18, 880.81 398.75 C 880.37 395.32, 880.45 392.78, 881.22 388.27 C 881.99 383.77, 882.99 380.85, 884.67 376.22 C 886.34 371.59, 887.79 368.95, 889.57 365.14 C 891.36 361.34, 892.71 359.72, 893.60 357.20 C 894.49 354.68, 894.66 353.72, 894.03 352.54 C 893.40 351.35, 892.56 351.10, 890.45 351.26 C 888.34 351.42, 886.62 352.22, 883.49 353.34 C 880.36 354.46, 878.52 355.50, 874.79 356.87 C 871.05 358.25, 868.86 359.01, 864.82 360.22 C 860.78 361.42, 858.39 362.00, 854.60 362.88 C 850.81 363.77, 848.76 364.00, 845.86 364.65 C 842.95 365.30, 841.77 365.66, 840.08 366.13 C 838.40 366.61, 837.94 366.63, 837.42 367.02 C 836.90 367.42, 836.88 367.77, 837.48 368.11"/><path id="sig-p6" d="M 1111.15,336.88 C 1111.17 336.55, 1110.80 336.36, 1110.54 336.56 C 1110.28 336.77, 1109.87 337.57, 1109.86 337.90 C 1109.84 338.23, 1110.21 338.42, 1110.47 338.21 C 1110.73 338.01, 1111.14 337.21, 1111.15 336.88"/><path id="sig-p7" d="M 1133.12,369.74 C 1132.81 370.46, 1132.66 371.15, 1132.66 373.25 C 1132.67 375.34, 1132.81 376.74, 1133.14 380.23 C 1133.48 383.72, 1133.89 385.94, 1134.33 390.71 C 1134.78 395.47, 1134.94 398.43, 1135.39 404.06 C 1135.84 409.69, 1136.15 412.95, 1136.60 418.88 C 1137.06 424.81, 1137.33 428.24, 1137.69 433.71 C 1138.04 439.18, 1138.15 442.23, 1138.38 446.24 C 1138.62 450.26, 1138.69 451.99, 1138.88 453.78 C 1139.07 455.57, 1139.38 455.97, 1139.35 455.20 C 1139.31 454.43, 1139.29 453.12, 1138.70 449.92 C 1138.11 446.72, 1137.23 444.19, 1136.39 439.19 C 1135.55 434.19, 1135.02 430.89, 1134.51 424.91 C 1134.00 418.92, 1133.77 415.44, 1133.83 409.28 C 1133.89 403.11, 1134.00 399.79, 1134.80 394.08 C 1135.59 388.37, 1136.26 385.50, 1137.82 380.74 C 1139.39 375.99, 1140.41 373.74, 1142.64 370.31 C 1144.87 366.87, 1146.30 365.45, 1148.97 363.56 C 1151.65 361.67, 1153.24 361.19, 1156.00 360.84 C 1158.76 360.50, 1160.19 360.69, 1162.78 361.84 C 1165.36 363.00, 1166.84 364.18, 1168.93 366.61 C 1171.03 369.03, 1172.03 370.83, 1173.24 373.97 C 1174.45 377.10, 1174.76 378.99, 1174.99 382.28 C 1175.22 385.58, 1175.10 387.48, 1174.38 390.44 C 1173.67 393.40, 1172.97 394.90, 1171.42 397.09 C 1169.87 399.29, 1168.80 400.14, 1166.64 401.42 C 1164.47 402.69, 1163.09 403.08, 1160.58 403.47 C 1158.08 403.85, 1156.57 403.71, 1154.11 403.34 C 1151.65 402.96, 1150.24 402.58, 1148.28 401.59 C 1146.32 400.59, 1145.38 399.77, 1144.30 398.36 C 1143.23 396.95, 1142.82 396.04, 1142.90 394.54 C 1142.99 393.05, 1143.25 392.25, 1144.75 390.89 C 1146.25 389.53, 1147.95 388.79, 1150.40 387.75 C 1152.85 386.72, 1154.61 386.46, 1156.99 385.72 C 1159.37 384.98, 1161.29 384.64, 1162.32 384.06 C 1163.35 383.47, 1163.34 383.07, 1162.15 382.80 C 1160.95 382.52, 1158.97 382.35, 1156.34 382.70 C 1153.71 383.04, 1151.72 383.28, 1148.99 384.52 C 1146.25 385.76, 1144.35 386.91, 1142.66 388.89 C 1140.97 390.87, 1140.64 392.22, 1140.54 394.42 C 1140.44 396.61, 1140.87 397.92, 1142.14 399.87 C 1143.41 401.82, 1144.60 402.87, 1146.90 404.16 C 1149.20 405.45, 1150.82 405.89, 1153.65 406.33 C 1156.49 406.76, 1158.18 406.85, 1161.06 406.34 C 1163.94 405.83, 1165.55 405.32, 1168.06 403.78 C 1170.57 402.24, 1171.86 401.18, 1173.62 398.63 C 1175.38 396.08, 1176.10 394.33, 1176.87 391.03 C 1177.64 387.72, 1177.72 385.70, 1177.46 382.11 C 1177.19 378.52, 1176.88 376.50, 1175.56 373.07 C 1174.24 369.64, 1173.19 367.66, 1170.84 364.96 C 1168.48 362.26, 1166.79 360.86, 1163.76 359.57 C 1160.73 358.29, 1158.89 358.08, 1155.69 358.54 C 1152.49 359.00, 1150.67 359.72, 1147.76 361.88 C 1144.84 364.04, 1143.41 365.67, 1141.12 369.34 C 1138.84 373.02, 1137.87 375.35, 1136.31 380.26 C 1134.75 385.16, 1134.12 388.08, 1133.33 393.88 C 1132.53 399.68, 1132.44 403.03, 1132.34 409.26 C 1132.24 415.49, 1132.44 418.98, 1132.82 425.03 C 1133.20 431.08, 1133.58 434.42, 1134.25 439.51 C 1134.92 444.60, 1135.28 447.27, 1136.16 450.50 C 1137.04 453.73, 1137.77 454.97, 1138.64 455.64 C 1139.52 456.31, 1140.17 455.76, 1140.52 453.85 C 1140.87 451.95, 1140.65 450.18, 1140.41 446.12 C 1140.18 442.07, 1139.79 439.06, 1139.34 433.59 C 1138.90 428.12, 1138.63 424.69, 1138.19 418.76 C 1137.74 412.83, 1137.46 409.58, 1137.12 403.94 C 1136.77 398.30, 1136.70 395.34, 1136.46 390.55 C 1136.22 385.77, 1136.16 383.50, 1135.91 380.00 C 1135.66 376.49, 1135.56 375.11, 1135.22 373.04 C 1134.89 370.97, 1134.66 370.31, 1134.24 369.65 C 1133.81 369.00, 1133.43 369.02, 1133.12 369.74"/></svg>