<svg xmlns="http://www.w3.org/2000/svg" id="canvas" viewBox="217.482 317.667 911.750 132.323" preserveAspectRatio="xMinYMid meet"><path id="tr-p0" d="M 272.11,334.83 C 271.52 335.78, 271.35 337.24, 271.13 339.56 C 270.91 341.87, 270.91 343.28, 271.00 346.41 C 271.09 349.55, 271.34 351.57, 271.57 355.23 C 271.81 358.88, 271.92 360.70, 272.18 364.69 C 272.45 368.69, 272.65 370.92, 272.91 375.22 C 273.17 379.52, 273.26 381.81, 273.48 386.20 C 273.70 390.60, 273.87 392.95, 274.01 397.20 C 274.14 401.44, 274.19 403.67, 274.16 407.43 C 274.14 411.19, 274.01 413.01, 273.89 416.02 C 273.77 419.02, 273.53 420.42, 273.57 422.46 C 273.60 424.49, 273.90 425.13, 274.08 426.20 C 274.27 427.28, 274.21 427.47, 274.47 427.83 C 274.74 428.20, 275.00 428.30, 275.39 428.02 C 275.78 427.74, 276.05 427.49, 276.43 426.42 C 276.81 425.35, 277.03 424.73, 277.31 422.67 C 277.58 420.61, 277.77 419.17, 277.81 416.12 C 277.84 413.06, 277.63 411.18, 277.48 407.38 C 277.33 403.57, 277.26 401.34, 277.06 397.08 C 276.87 392.81, 276.70 390.46, 276.49 386.05 C 276.28 381.65, 276.20 379.36, 276.01 375.06 C 275.82 370.75, 275.67 368.53, 275.56 364.54 C 275.45 360.54, 275.48 358.74, 275.48 355.10 C 275.48 351.46, 275.60 349.44, 275.56 346.32 C 275.52 343.20, 275.58 341.80, 275.28 339.49 C 274.98 337.18, 274.70 335.71, 274.07 334.78 C 273.43 333.85, 272.70 333.87, 272.11 334.83"/><path id="tr-p1" d="M 220.93,323.77 C 221.58 324.41, 222.52 324.71, 224.31 325.10 C 226.11 325.49, 227.24 325.61, 229.89 325.73 C 232.53 325.86, 234.10 325.65, 237.54 325.72 C 240.98 325.79, 242.86 325.87, 247.09 326.08 C 251.31 326.29, 253.70 326.41, 258.67 326.76 C 263.64 327.11, 266.25 327.33, 271.94 327.84 C 277.62 328.35, 280.96 328.66, 287.08 329.31 C 293.20 329.97, 296.42 330.38, 302.56 331.09 C 308.69 331.81, 311.70 332.24, 317.74 332.90 C 323.77 333.56, 327.41 333.91, 332.72 334.41 C 338.04 334.90, 340.50 335.15, 344.31 335.37 C 348.13 335.59, 350.28 335.76, 351.80 335.49 C 353.33 335.22, 353.39 334.55, 351.93 334.02 C 350.48 333.48, 348.32 333.23, 344.52 332.83 C 340.72 332.42, 338.24 332.40, 332.93 331.99 C 327.62 331.57, 323.99 331.34, 317.96 330.74 C 311.94 330.14, 308.93 329.72, 302.80 328.99 C 296.68 328.26, 293.45 327.82, 287.33 327.11 C 281.20 326.40, 277.86 326.05, 272.17 325.44 C 266.49 324.82, 263.88 324.55, 258.91 324.03 C 253.95 323.50, 251.57 323.29, 247.36 322.79 C 243.14 322.30, 241.29 321.99, 237.83 321.57 C 234.38 321.14, 232.77 320.79, 230.10 320.69 C 227.43 320.59, 226.29 320.83, 224.48 321.07 C 222.67 321.32, 221.77 321.38, 221.06 321.92 C 220.35 322.46, 220.28 323.14, 220.93 323.77"/><path id="tr-p2" d="M 356.48,322.82 C 355.84 323.76, 355.45 325.11, 355.14 327.63 C 354.83 330.15, 354.95 331.82, 354.95 335.43 C 354.96 339.03, 355.02 341.31, 355.16 345.65 C 355.29 349.99, 355.44 352.36, 355.62 357.12 C 355.81 361.87, 355.89 364.42, 356.07 369.42 C 356.25 374.42, 356.32 377.16, 356.54 382.12 C 356.76 387.08, 356.99 389.66, 357.16 394.21 C 357.34 398.76, 357.29 401.12, 357.41 404.88 C 357.54 408.63, 357.41 410.45, 357.77 412.98 C 358.13 415.50, 358.51 416.38, 359.21 417.49 C 359.92 418.61, 360.33 418.78, 361.31 418.55 C 362.28 418.32, 363.13 417.77, 364.09 416.34 C 365.06 414.91, 365.32 413.53, 366.12 411.41 C 366.92 409.29, 367.05 408.03, 368.11 405.74 C 369.17 403.45, 369.91 402.26, 371.41 399.96 C 372.91 397.67, 373.75 396.29, 375.62 394.27 C 377.49 392.25, 378.56 391.47, 380.76 389.85 C 382.96 388.24, 384.13 387.40, 386.61 386.19 C 389.10 384.97, 390.54 384.38, 393.19 383.78 C 395.84 383.18, 397.09 383.03, 399.85 383.18 C 402.62 383.33, 404.18 383.67, 407.00 384.53 C 409.82 385.40, 411.25 385.93, 413.93 387.50 C 416.62 389.07, 417.92 390.13, 420.43 392.37 C 422.95 394.62, 424.23 396.00, 426.52 398.72 C 428.81 401.44, 429.85 403.09, 431.89 405.98 C 433.94 408.86, 434.89 410.38, 436.74 413.15 C 438.60 415.92, 439.38 417.69, 441.15 419.83 C 442.91 421.98, 444.01 422.99, 445.56 423.87 C 447.11 424.76, 448.14 424.38, 448.88 424.24 C 449.63 424.10, 449.57 423.69, 449.28 423.17 C 448.99 422.65, 448.37 422.85, 447.45 421.65 C 446.53 420.44, 446.19 419.28, 444.69 417.13 C 443.19 414.99, 441.91 413.56, 439.94 410.90 C 437.97 408.25, 436.97 406.75, 434.85 403.85 C 432.72 400.95, 431.69 399.23, 429.30 396.39 C 426.91 393.54, 425.60 392.06, 422.92 389.62 C 420.24 387.17, 418.86 385.95, 415.92 384.17 C 412.98 382.38, 411.38 381.71, 408.22 380.68 C 405.06 379.65, 403.30 379.23, 400.11 379.02 C 396.92 378.81, 395.35 378.96, 392.27 379.62 C 389.20 380.28, 387.55 380.97, 384.74 382.32 C 381.93 383.66, 380.69 384.57, 378.21 386.34 C 375.74 388.12, 374.52 389.00, 372.38 391.19 C 370.24 393.37, 369.30 394.84, 367.53 397.27 C 365.75 399.70, 364.89 400.91, 363.50 403.35 C 362.10 405.79, 361.31 407.15, 360.56 409.47 C 359.81 411.80, 359.79 413.32, 359.77 414.97 C 359.75 416.62, 360.14 417.32, 360.48 417.72 C 360.82 418.13, 361.22 418.02, 361.45 416.99 C 361.68 415.97, 361.78 415.04, 361.63 412.58 C 361.48 410.12, 361.02 408.38, 360.69 404.68 C 360.37 400.97, 360.28 398.60, 359.98 394.07 C 359.69 389.53, 359.44 386.94, 359.20 381.99 C 358.95 377.05, 358.89 374.33, 358.75 369.34 C 358.62 364.35, 358.56 361.79, 358.52 357.05 C 358.48 352.31, 358.45 349.94, 358.55 345.63 C 358.64 341.33, 358.85 339.08, 358.99 335.50 C 359.13 331.93, 359.37 330.29, 359.25 327.77 C 359.12 325.26, 358.91 323.90, 358.36 322.91 C 357.80 321.92, 357.13 321.88, 356.48 322.82"/><path id="tr-p3" d="M 466.73,398.59 C 466.09 399.45, 465.79 400.93, 465.57 402.89 C 465.35 404.86, 465.55 406.19, 465.64 408.42 C 465.73 410.66, 465.68 412.23, 466.02 414.09 C 466.37 415.95, 466.77 416.79, 467.37 417.72 C 467.98 418.65, 468.48 418.98, 469.04 418.74 C 469.61 418.49, 470.02 417.82, 470.20 416.50 C 470.39 415.18, 470.26 414.12, 469.96 412.12 C 469.67 410.12, 469.17 408.88, 468.74 406.50 C 468.30 404.12, 468.04 402.66, 467.78 400.22 C 467.52 397.78, 467.33 396.50, 467.42 394.30 C 467.51 392.09, 467.61 391.06, 468.22 389.21 C 468.83 387.35, 469.34 386.46, 470.47 385.04 C 471.60 383.61, 472.20 382.97, 473.87 382.08 C 475.54 381.19, 476.59 380.94, 478.83 380.57 C 481.08 380.19, 482.45 380.18, 485.09 380.21 C 487.73 380.25, 489.32 380.40, 492.03 380.74 C 494.74 381.07, 496.39 381.56, 498.63 381.89 C 500.86 382.22, 501.64 382.17, 503.19 382.41 C 504.75 382.65, 505.63 383.23, 506.41 383.09 C 507.20 382.96, 507.53 382.49, 507.11 381.74 C 506.68 380.99, 505.79 380.19, 504.29 379.33 C 502.80 378.48, 501.95 378.19, 499.64 377.49 C 497.32 376.78, 495.62 376.23, 492.71 375.79 C 489.79 375.36, 488.02 375.25, 485.07 375.31 C 482.11 375.36, 480.59 375.45, 477.93 376.06 C 475.27 376.68, 473.91 377.11, 471.77 378.38 C 469.63 379.66, 468.72 380.55, 467.21 382.44 C 465.70 384.32, 465.08 385.50, 464.23 387.80 C 463.38 390.10, 463.24 391.40, 462.95 393.94 C 462.67 396.49, 462.74 397.85, 462.79 400.53 C 462.85 403.20, 462.91 404.78, 463.22 407.34 C 463.54 409.90, 463.77 411.29, 464.35 413.34 C 464.94 415.39, 465.31 416.41, 466.17 417.58 C 467.03 418.76, 467.78 419.22, 468.64 419.22 C 469.51 419.22, 469.97 418.67, 470.48 417.58 C 470.99 416.49, 471.10 415.68, 471.21 413.77 C 471.33 411.86, 471.28 410.25, 471.04 408.02 C 470.80 405.79, 470.47 404.51, 470.01 402.62 C 469.56 400.73, 469.43 399.38, 468.77 398.57 C 468.12 397.77, 467.37 397.73, 466.73 398.59"/><path id="tr-p4" d="M 524.88,411.43 C 525.57 412.02, 526.48 412.31, 528.32 412.52 C 530.15 412.73, 531.40 412.79, 534.06 412.49 C 536.72 412.19, 538.59 411.82, 541.62 411.03 C 544.64 410.25, 546.37 409.67, 549.19 408.57 C 552.01 407.47, 553.38 406.77, 555.73 405.51 C 558.07 404.25, 559.18 403.69, 560.91 402.26 C 562.64 400.83, 563.42 400.05, 564.37 398.37 C 565.32 396.69, 565.75 395.66, 565.67 393.87 C 565.59 392.07, 565.31 390.95, 563.97 389.39 C 562.63 387.82, 561.39 386.98, 558.97 386.03 C 556.55 385.07, 554.96 384.78, 551.87 384.62 C 548.78 384.46, 546.90 384.69, 543.51 385.23 C 540.13 385.76, 538.17 386.16, 534.96 387.29 C 531.75 388.41, 530.12 389.20, 527.47 390.86 C 524.82 392.53, 523.51 393.43, 521.71 395.62 C 519.91 397.81, 519.12 399.17, 518.49 401.83 C 517.86 404.49, 517.71 406.15, 518.56 408.93 C 519.41 411.70, 520.45 413.21, 522.74 415.71 C 525.03 418.21, 526.60 419.36, 530.02 421.43 C 533.43 423.51, 535.52 424.39, 539.82 426.07 C 544.11 427.74, 546.62 428.63, 551.51 429.83 C 556.40 431.02, 559.16 431.50, 564.27 432.03 C 569.39 432.56, 572.11 432.58, 577.10 432.48 C 582.10 432.37, 584.95 432.10, 589.27 431.51 C 593.58 430.92, 595.61 430.51, 598.69 429.53 C 601.76 428.54, 603.56 427.48, 604.64 426.60 C 605.73 425.71, 605.47 425.13, 604.12 425.12 C 602.76 425.11, 600.93 425.84, 597.87 426.53 C 594.81 427.22, 593.00 427.93, 588.84 428.58 C 584.67 429.24, 581.89 429.64, 577.03 429.80 C 572.17 429.97, 569.52 429.96, 564.55 429.42 C 559.58 428.89, 556.90 428.38, 552.19 427.14 C 547.48 425.89, 545.04 424.96, 540.98 423.22 C 536.93 421.48, 534.97 420.50, 531.93 418.45 C 528.89 416.40, 527.68 415.13, 525.79 412.97 C 523.90 410.81, 523.17 409.71, 522.47 407.67 C 521.76 405.62, 521.80 404.62, 522.27 402.74 C 522.73 400.85, 523.30 399.90, 524.79 398.25 C 526.28 396.60, 527.40 395.89, 529.71 394.49 C 532.02 393.09, 533.46 392.23, 536.33 391.25 C 539.21 390.28, 541.05 389.92, 544.10 389.60 C 547.14 389.27, 548.88 389.43, 551.55 389.64 C 554.22 389.85, 555.48 390.12, 557.42 390.64 C 559.37 391.15, 560.28 391.54, 561.27 392.20 C 562.26 392.87, 562.38 393.13, 562.37 393.96 C 562.36 394.79, 562.02 395.33, 561.24 396.36 C 560.46 397.38, 559.97 398.04, 558.47 399.08 C 556.97 400.12, 555.93 400.57, 553.75 401.58 C 551.57 402.59, 550.23 403.23, 547.57 404.13 C 544.91 405.03, 543.31 405.46, 540.44 406.07 C 537.58 406.68, 535.75 406.69, 533.26 407.17 C 530.77 407.65, 529.68 407.99, 528.00 408.48 C 526.32 408.96, 525.49 409.01, 524.87 409.60 C 524.24 410.19, 524.19 410.85, 524.88 411.43"/><path id="tr-p5" d="M 597.32,410.48 C 597.77 411.15, 598.53 411.54, 599.85 411.92 C 601.16 412.30, 602.03 412.42, 603.89 412.40 C 605.75 412.38, 606.97 412.25, 609.14 411.82 C 611.31 411.38, 612.49 410.91, 614.75 410.23 C 617.00 409.56, 618.17 409.27, 620.42 408.45 C 622.66 407.63, 623.87 407.13, 625.96 406.12 C 628.05 405.11, 629.17 404.57, 630.88 403.39 C 632.58 402.21, 633.42 401.61, 634.50 400.21 C 635.59 398.80, 636.09 397.87, 636.29 396.36 C 636.49 394.84, 636.26 393.92, 635.51 392.61 C 634.76 391.30, 634.05 390.74, 632.54 389.81 C 631.03 388.88, 630.15 388.35, 627.96 387.95 C 625.76 387.56, 624.25 387.52, 621.58 387.82 C 618.91 388.11, 617.38 388.59, 614.62 389.44 C 611.87 390.29, 610.45 390.73, 607.80 392.07 C 605.15 393.40, 603.57 394.29, 601.37 396.12 C 599.17 397.94, 598.16 398.97, 596.80 401.18 C 595.45 403.39, 594.86 404.67, 594.59 407.15 C 594.33 409.63, 594.52 411.06, 595.47 413.56 C 596.43 416.06, 597.20 417.45, 599.36 419.64 C 601.51 421.83, 603.07 422.76, 606.24 424.53 C 609.41 426.30, 611.25 427.16, 615.21 428.47 C 619.16 429.79, 621.44 430.27, 626.02 431.10 C 630.61 431.93, 633.15 432.24, 638.14 432.62 C 643.12 433.00, 645.89 433.03, 650.96 433.00 C 656.03 432.97, 658.66 432.91, 663.48 432.48 C 668.30 432.04, 670.78 431.72, 675.06 430.82 C 679.33 429.93, 681.32 429.22, 684.86 428.00 C 688.39 426.78, 689.92 426.19, 692.74 424.74 C 695.56 423.29, 697.03 422.47, 698.94 420.76 C 700.85 419.04, 701.37 417.78, 702.30 416.19 C 703.23 414.60, 703.56 413.65, 703.57 412.81 C 703.59 411.96, 703.14 411.69, 702.37 411.96 C 701.60 412.24, 700.93 413.02, 699.72 414.17 C 698.51 415.32, 698.07 416.26, 696.31 417.71 C 694.56 419.16, 693.46 419.99, 690.94 421.45 C 688.43 422.90, 687.04 423.68, 683.74 424.99 C 680.44 426.31, 678.54 427.06, 674.44 428.02 C 670.33 428.98, 667.92 429.34, 663.22 429.80 C 658.53 430.27, 655.92 430.33, 650.95 430.35 C 645.98 430.37, 643.23 430.32, 638.36 429.89 C 633.49 429.45, 631.00 429.10, 626.59 428.18 C 622.19 427.26, 620.01 426.69, 616.34 425.29 C 612.68 423.89, 611.01 422.92, 608.26 421.15 C 605.52 419.39, 604.40 418.30, 602.62 416.46 C 600.83 414.62, 600.15 413.73, 599.32 411.95 C 598.49 410.17, 598.27 409.26, 598.45 407.56 C 598.63 405.86, 599.08 405.02, 600.23 403.45 C 601.38 401.88, 602.26 401.13, 604.19 399.72 C 606.13 398.31, 607.54 397.50, 609.91 396.41 C 612.27 395.31, 613.57 394.91, 616.03 394.23 C 618.48 393.55, 619.93 393.28, 622.18 393.00 C 624.43 392.73, 625.59 392.72, 627.28 392.86 C 628.96 393.00, 629.52 393.35, 630.62 393.70 C 631.71 394.05, 632.25 394.23, 632.75 394.63 C 633.24 395.03, 633.33 395.11, 633.10 395.69 C 632.86 396.27, 632.48 396.75, 631.57 397.54 C 630.65 398.34, 630.03 398.81, 628.52 399.68 C 627.00 400.55, 625.93 401.02, 623.99 401.88 C 622.06 402.75, 620.95 403.28, 618.84 403.99 C 616.73 404.70, 615.58 404.92, 613.43 405.45 C 611.29 405.98, 610.11 406.27, 608.12 406.65 C 606.14 407.04, 605.12 407.14, 603.52 407.37 C 601.91 407.61, 601.27 407.60, 600.09 407.84 C 598.90 408.07, 598.15 408.03, 597.60 408.56 C 597.04 409.08, 596.87 409.81, 597.32 410.48"/><path id="tr-p6" d="M 797.28,391.34 C 796.75 392.35, 796.72 393.91, 796.64 396.19 C 796.55 398.47, 796.65 399.96, 796.87 402.74 C 797.08 405.51, 797.42 407.40, 797.71 410.07 C 798.01 412.74, 798.04 413.89, 798.32 416.08 C 798.61 418.28, 798.61 419.50, 799.12 421.04 C 799.64 422.58, 800.09 423.30, 800.88 423.78 C 801.67 424.26, 802.29 424.14, 803.07 423.44 C 803.86 422.75, 804.35 422.00, 804.80 420.32 C 805.25 418.65, 805.35 417.38, 805.32 415.06 C 805.30 412.75, 804.91 411.29, 804.67 408.75 C 804.43 406.20, 804.26 404.82, 804.14 402.35 C 804.01 399.87, 803.99 398.66, 804.05 396.36 C 804.12 394.07, 804.10 392.81, 804.47 390.87 C 804.84 388.93, 805.06 388.04, 805.91 386.67 C 806.76 385.29, 807.43 384.86, 808.72 384.00 C 810.01 383.14, 810.56 382.75, 812.36 382.36 C 814.15 381.97, 815.31 382.05, 817.69 382.07 C 820.06 382.09, 821.45 382.17, 824.24 382.45 C 827.04 382.73, 828.81 383.09, 831.64 383.46 C 834.48 383.82, 835.98 384.07, 838.41 384.29 C 840.83 384.51, 842.58 384.85, 843.75 384.56 C 844.91 384.26, 845.12 383.67, 844.23 382.81 C 843.33 381.95, 841.65 381.08, 839.29 380.25 C 836.92 379.43, 835.31 379.22, 832.40 378.68 C 829.49 378.14, 827.69 377.83, 824.72 377.54 C 821.76 377.26, 820.27 377.12, 817.58 377.26 C 814.88 377.39, 813.46 377.51, 811.24 378.21 C 809.01 378.91, 808.21 379.51, 806.47 380.75 C 804.72 382.00, 803.76 382.60, 802.51 384.44 C 801.26 386.27, 800.81 387.57, 800.22 389.91 C 799.62 392.26, 799.71 393.64, 799.54 396.14 C 799.37 398.65, 799.41 399.86, 799.38 402.43 C 799.35 405.00, 799.39 406.44, 799.38 408.98 C 799.37 411.52, 799.28 412.93, 799.31 415.15 C 799.35 417.36, 799.27 418.47, 799.56 420.07 C 799.85 421.66, 800.16 422.49, 800.76 423.12 C 801.36 423.76, 802.09 423.79, 802.56 423.25 C 803.03 422.71, 803.07 421.91, 803.11 420.41 C 803.14 418.91, 802.78 417.88, 802.73 415.74 C 802.67 413.59, 802.94 412.40, 802.83 409.69 C 802.72 406.98, 802.55 404.97, 802.18 402.17 C 801.80 399.38, 801.52 397.92, 800.94 395.71 C 800.36 393.50, 800.00 392.00, 799.27 391.12 C 798.54 390.24, 797.81 390.32, 797.28 391.34"/><path id="tr-p7" d="M 895.27,400.48 C 895.23 399.75, 894.96 399.15, 894.05 398.30 C 893.14 397.45, 892.43 396.97, 890.73 396.22 C 889.04 395.46, 887.90 394.91, 885.57 394.55 C 883.23 394.18, 881.75 394.32, 879.07 394.39 C 876.39 394.46, 874.96 394.48, 872.17 394.90 C 869.37 395.32, 867.80 395.60, 865.11 396.48 C 862.41 397.36, 860.97 397.97, 858.69 399.32 C 856.41 400.66, 855.30 401.47, 853.72 403.19 C 852.14 404.90, 851.44 405.87, 850.79 407.88 C 850.13 409.90, 849.98 411.04, 850.44 413.27 C 850.91 415.50, 851.45 416.86, 853.13 419.03 C 854.80 421.20, 856.11 422.29, 858.82 424.12 C 861.52 425.95, 863.28 426.81, 866.64 428.17 C 870.00 429.53, 871.96 430.21, 875.61 430.93 C 879.26 431.66, 881.30 431.83, 884.87 431.80 C 888.45 431.78, 890.29 431.71, 893.48 430.80 C 896.66 429.88, 898.29 429.07, 900.78 427.23 C 903.27 425.39, 904.39 424.00, 905.92 421.59 C 907.45 419.18, 907.83 417.79, 908.41 415.19 C 908.99 412.58, 909.08 411.14, 908.80 408.58 C 908.52 406.01, 908.05 404.49, 907.02 402.36 C 906.00 400.24, 904.89 399.32, 903.69 397.96 C 902.49 396.59, 901.99 396.20, 901.01 395.54 C 900.03 394.88, 899.42 394.65, 898.80 394.67 C 898.18 394.69, 897.93 395.07, 897.92 395.64 C 897.91 396.21, 898.29 396.55, 898.75 397.53 C 899.21 398.51, 899.39 399.17, 900.22 400.54 C 901.06 401.91, 902.06 402.66, 902.92 404.37 C 903.77 406.08, 904.21 407.12, 904.49 409.11 C 904.77 411.09, 904.75 412.26, 904.33 414.31 C 903.90 416.36, 903.61 417.44, 902.39 419.35 C 901.18 421.26, 900.26 422.33, 898.25 423.87 C 896.24 425.41, 895.04 426.22, 892.36 427.05 C 889.68 427.88, 888.04 428.00, 884.84 428.03 C 881.65 428.06, 879.70 427.92, 876.39 427.20 C 873.07 426.48, 871.24 425.80, 868.25 424.43 C 865.27 423.05, 863.77 422.00, 861.46 420.33 C 859.15 418.66, 858.15 417.69, 856.70 416.08 C 855.25 414.46, 854.71 413.67, 854.21 412.27 C 853.71 410.87, 853.74 410.31, 854.22 409.08 C 854.70 407.85, 855.28 407.28, 856.61 406.11 C 857.94 404.95, 858.90 404.29, 860.88 403.26 C 862.87 402.24, 864.13 401.69, 866.52 400.99 C 868.90 400.28, 870.30 400.04, 872.82 399.73 C 875.35 399.43, 876.76 399.47, 879.14 399.48 C 881.52 399.48, 882.77 399.45, 884.74 399.77 C 886.70 400.08, 887.47 400.64, 888.96 401.05 C 890.45 401.47, 891.13 401.67, 892.19 401.85 C 893.25 402.03, 893.64 402.22, 894.26 401.94 C 894.87 401.67, 895.31 401.21, 895.27 400.48"/><path id="tr-p8" d="M 929.93,343.38 C 929.36 344.14, 929.11 345.14, 928.91 347.16 C 928.70 349.18, 928.67 350.46, 928.91 353.47 C 929.15 356.48, 929.62 358.46, 930.09 362.22 C 930.56 365.97, 930.78 367.91, 931.27 372.24 C 931.76 376.58, 931.88 379.14, 932.54 383.89 C 933.20 388.64, 933.64 391.22, 934.58 395.99 C 935.53 400.76, 936.11 403.25, 937.26 407.74 C 938.41 412.24, 939.05 414.54, 940.34 418.47 C 941.62 422.40, 942.27 424.31, 943.70 427.37 C 945.12 430.44, 945.84 431.88, 947.47 433.80 C 949.09 435.72, 950.74 436.56, 951.84 436.97 C 952.94 437.38, 953.30 436.87, 952.97 435.85 C 952.63 434.82, 951.39 433.84, 950.17 431.84 C 948.96 429.84, 948.29 428.73, 946.90 425.86 C 945.50 422.98, 944.60 421.23, 943.22 417.47 C 941.83 413.70, 941.16 411.44, 939.97 407.03 C 938.79 402.63, 938.22 400.15, 937.30 395.45 C 936.39 390.75, 935.97 388.22, 935.40 383.52 C 934.84 378.82, 934.76 376.28, 934.48 371.95 C 934.19 367.63, 934.12 365.67, 933.97 361.90 C 933.83 358.13, 933.96 356.09, 933.75 353.10 C 933.53 350.12, 933.29 348.92, 932.89 346.97 C 932.49 345.02, 932.36 344.07, 931.77 343.35 C 931.18 342.64, 930.51 342.62, 929.93 343.38"/><path id="tr-p9" d="M 976.97,416.11 C 977.65 416.78, 978.75 417.24, 980.49 417.47 C 982.23 417.71, 983.53 417.69, 985.67 417.29 C 987.81 416.90, 989.06 416.41, 991.20 415.50 C 993.35 414.59, 994.44 413.94, 996.38 412.72 C 998.33 411.51, 999.24 410.78, 1000.90 409.41 C 1002.57 408.05, 1003.44 407.31, 1004.70 405.90 C 1005.95 404.49, 1006.56 403.84, 1007.19 402.36 C 1007.82 400.88, 1008.07 399.99, 1007.85 398.48 C 1007.62 396.97, 1007.31 396.01, 1006.05 394.81 C 1004.78 393.61, 1003.74 393.05, 1001.51 392.47 C 999.28 391.90, 997.82 391.68, 994.92 391.93 C 992.01 392.17, 990.16 392.67, 987.00 393.70 C 983.84 394.74, 981.97 395.40, 979.13 397.11 C 976.30 398.82, 974.87 399.97, 972.82 402.25 C 970.77 404.53, 969.77 405.83, 968.87 408.53 C 967.98 411.24, 967.82 412.89, 968.33 415.76 C 968.84 418.63, 969.50 420.23, 971.41 422.88 C 973.33 425.53, 974.84 426.79, 977.90 429.03 C 980.96 431.26, 982.79 432.25, 986.72 434.06 C 990.65 435.88, 993.05 436.81, 997.56 438.10 C 1002.08 439.39, 1004.92 439.85, 1009.30 440.51 C 1013.67 441.18, 1016.01 441.37, 1019.43 441.42 C 1022.85 441.46, 1025.01 441.19, 1026.41 440.73 C 1027.81 440.26, 1027.79 439.59, 1026.43 439.10 C 1025.07 438.61, 1022.94 438.61, 1019.61 438.27 C 1016.28 437.93, 1014.00 438.01, 1009.76 437.38 C 1005.53 436.76, 1002.74 436.40, 998.41 435.15 C 994.09 433.89, 991.79 432.92, 988.13 431.10 C 984.48 429.29, 982.81 428.21, 980.15 426.08 C 977.48 423.95, 976.38 422.67, 974.80 420.45 C 973.23 418.24, 972.73 417.13, 972.29 415.01 C 971.85 412.89, 971.86 411.80, 972.60 409.85 C 973.34 407.89, 974.26 407.02, 976.01 405.23 C 977.76 403.45, 978.90 402.32, 981.37 400.93 C 983.83 399.53, 985.55 398.99, 988.35 398.26 C 991.15 397.52, 992.90 397.46, 995.37 397.25 C 997.83 397.04, 998.98 397.11, 1000.67 397.22 C 1002.37 397.33, 1003.03 397.49, 1003.83 397.81 C 1004.64 398.14, 1004.68 398.30, 1004.69 398.85 C 1004.70 399.40, 1004.52 399.77, 1003.90 400.56 C 1003.29 401.36, 1002.78 401.79, 1001.60 402.84 C 1000.43 403.88, 999.56 404.62, 998.03 405.80 C 996.50 406.97, 995.70 407.70, 993.96 408.71 C 992.21 409.72, 991.17 410.12, 989.30 410.85 C 987.43 411.58, 986.39 411.88, 984.59 412.34 C 982.80 412.80, 981.83 412.80, 980.33 413.16 C 978.83 413.51, 977.76 413.53, 977.09 414.12 C 976.41 414.72, 976.29 415.44, 976.97 416.11"/><path id="tr-p10" d="M 1080.26,394.14 C 1079.88 393.36, 1079.29 392.71, 1077.70 391.90 C 1076.11 391.10, 1074.91 390.58, 1072.30 390.13 C 1069.70 389.68, 1067.88 389.46, 1064.68 389.65 C 1061.48 389.85, 1059.59 390.46, 1056.30 391.09 C 1053.01 391.73, 1051.20 391.89, 1048.22 392.84 C 1045.23 393.79, 1043.64 394.41, 1041.39 395.84 C 1039.14 397.27, 1038.10 398.20, 1036.96 399.99 C 1035.82 401.78, 1035.50 402.79, 1035.68 404.79 C 1035.86 406.79, 1036.15 407.96, 1037.85 409.99 C 1039.55 412.02, 1041.06 413.04, 1044.19 414.94 C 1047.32 416.84, 1049.54 417.77, 1053.52 419.51 C 1057.50 421.24, 1059.82 421.94, 1064.09 423.63 C 1068.36 425.32, 1070.75 426.21, 1074.87 427.95 C 1079.00 429.69, 1081.23 430.62, 1084.71 432.33 C 1088.19 434.03, 1089.85 435.20, 1092.30 436.47 C 1094.74 437.74, 1095.76 437.98, 1096.92 438.68 C 1098.08 439.38, 1098.31 439.71, 1098.11 439.98 C 1097.90 440.25, 1097.47 439.90, 1095.89 440.02 C 1094.30 440.14, 1093.05 440.30, 1090.18 440.59 C 1087.30 440.87, 1085.33 441.25, 1081.52 441.44 C 1077.70 441.63, 1075.35 441.72, 1071.10 441.54 C 1066.85 441.37, 1064.44 441.07, 1060.26 440.58 C 1056.08 440.09, 1053.94 439.83, 1050.21 439.10 C 1046.49 438.37, 1044.57 437.94, 1041.64 436.91 C 1038.71 435.88, 1037.47 435.06, 1035.56 433.95 C 1033.66 432.85, 1033.15 432.24, 1032.12 431.38 C 1031.09 430.51, 1030.93 430.25, 1030.42 429.63 C 1029.90 429.01, 1029.96 428.48, 1029.53 428.27 C 1029.10 428.05, 1028.53 428.07, 1028.26 428.56 C 1027.99 429.05, 1027.89 429.71, 1028.19 430.73 C 1028.48 431.76, 1028.67 432.36, 1029.74 433.68 C 1030.81 434.99, 1031.39 435.94, 1033.53 437.29 C 1035.68 438.65, 1037.25 439.44, 1040.46 440.45 C 1043.68 441.46, 1045.74 441.67, 1049.62 442.33 C 1053.51 442.98, 1055.63 443.21, 1059.89 443.72 C 1064.14 444.24, 1066.57 444.56, 1070.90 444.90 C 1075.23 445.24, 1077.59 445.29, 1081.55 445.43 C 1085.51 445.56, 1087.60 445.92, 1090.71 445.57 C 1093.81 445.22, 1095.23 444.67, 1097.08 443.67 C 1098.92 442.68, 1099.54 442.02, 1099.91 440.60 C 1100.29 439.18, 1100.09 438.11, 1098.95 436.58 C 1097.80 435.06, 1096.77 434.42, 1094.19 432.97 C 1091.62 431.52, 1089.71 430.90, 1086.08 429.34 C 1082.45 427.78, 1080.19 426.89, 1076.03 425.18 C 1071.86 423.47, 1069.45 422.56, 1065.25 420.79 C 1061.05 419.02, 1058.76 418.22, 1055.00 416.34 C 1051.24 414.45, 1049.27 413.21, 1046.46 411.35 C 1043.65 409.50, 1042.50 408.45, 1040.94 407.05 C 1039.39 405.65, 1038.94 405.36, 1038.69 404.36 C 1038.44 403.36, 1038.71 403.03, 1039.68 402.07 C 1040.64 401.10, 1041.55 400.54, 1043.52 399.54 C 1045.49 398.54, 1046.82 397.88, 1049.53 397.06 C 1052.24 396.24, 1054.01 395.93, 1057.07 395.45 C 1060.14 394.96, 1061.95 394.64, 1064.85 394.63 C 1067.75 394.61, 1069.23 395.13, 1071.58 395.37 C 1073.94 395.60, 1075.02 395.71, 1076.62 395.79 C 1078.22 395.88, 1078.86 396.12, 1079.59 395.79 C 1080.32 395.46, 1080.64 394.91, 1080.26 394.14"/><path id="tr-p11" d="M 1125.77,446.98 C 1126.25 446.90, 1126.40 446.34, 1126.01 446.04 C 1125.62 445.74, 1124.31 445.40, 1123.83 445.48 C 1123.34 445.55, 1123.20 446.12, 1123.59 446.42 C 1123.97 446.72, 1125.28 447.05, 1125.77 446.98"/></svg>